<?xml version="1.0" encoding="utf-8"?>
<!-- Generator: Adobe Illustrator 23.0.0, SVG Export Plug-In . SVG Version: 6.00 Build 0)  -->
<svg version="1.1" id="Layer_1" xmlns="http://www.w3.org/2000/svg" xmlns:xlink="http://www.w3.org/1999/xlink" x="0px" y="0px"
	 viewBox="0 0 500 500" style="enable-background:new 0 0 500 500;" xml:space="preserve">
<path d="M418.6,291.8h-14.9c-0.5-2.5-1.2-4.2-2.2-5.2c-1.6-1.6-4.3-2.4-8-2.4c-3.7,0-6.2,0.6-7.7,1.8c-1.1,0.9-1.6,2.2-1.6,3.8
	c0,2.2,3.1,4.1,9.3,5.4c7.1,1.5,12.2,2.9,15.3,3.9c0.8,0.3,1.5,0.6,2.1,0.8c6.3,3,9.4,7.5,9.4,13.5c0,7.4-3.1,12.8-9.2,16.1
	c-0.8,0.4-1.5,0.8-2.3,1.1c-3.9,1.7-8.6,2.6-13.7,2.6c-7.7,0-14-1.4-18.8-4.1c-3-1.7-5.2-3.9-6.7-6.6c-1.5-2.6-2.2-5.7-2.2-9.3H383
	c0,2.7,1,4.8,2.9,6.2c1.9,1.5,5.1,2.3,9.7,2.3c3.4,0,6-0.7,7.7-2.2c1.3-1.1,1.9-2.4,1.9-3.8c0-2.4-3.1-4.3-9.2-5.6
	c-9.1-1.9-14.9-3.5-17.2-4.7c-6.2-2.9-9.3-7.4-9.3-13.7c0-5,1.6-9.3,4.9-12.8c4.1-4.4,10.2-6.5,18.4-6.5c6.7,0,12.1,1,16.1,2.9
	c0.4,0.2,0.7,0.3,1,0.5c2.9,1.6,5.1,3.7,6.6,6.3C417.9,285.1,418.6,288.2,418.6,291.8L418.6,291.8z M410.7,255.5
	c0-0.3,0-0.6-0.2-0.8c-0.2-0.3-0.4-0.4-0.7-0.5c-0.2-0.1-0.5-0.1-1-0.2h-2.4v2.9h2.4c0.7,0,1.1-0.2,1.4-0.4
	C410.5,256.3,410.7,256,410.7,255.5L410.7,255.5z M411.9,254c0.3,0.4,0.5,0.9,0.5,1.4c0,0.7-0.3,1.3-0.8,1.8c-0.5,0.5-1.2,0.8-2,0.9
	c0.4,0.2,0.6,0.3,0.8,0.5l1.4,1.9l1.1,1.9h-1.8l-0.9-1.5c-0.6-1-1-1.7-1.4-2.1c0,0-0.1-0.1-0.2-0.2l-1.2-0.4h-0.9v4.1H405v-9.6h3.3
	c0.2,0,0.4,0,0.6,0c0.8,0,1.4,0.1,1.8,0.3C411.2,253.2,411.6,253.5,411.9,254L411.9,254z"/>
<path d="M416.3,257.5c0-1.3-0.3-2.6-1-3.7c-0.7-1.2-1.6-2.1-2.8-2.8c-1.2-0.6-2.4-1-3.6-1h0c-1.2,0-2.5,0.4-3.6,1
	c-1.2,0.7-2.1,1.6-2.8,2.8c-0.7,1.2-1,2.4-1,3.7c0,1.3,0.4,2.5,1,3.7c0.6,1.1,1.5,2.1,2.7,2.7c1.2,0.7,2.4,1,3.7,1h0
	c1.3,0,2.5-0.3,3.7-1c1.2-0.7,2.1-1.6,2.7-2.7C416,260,416.3,258.8,416.3,257.5z M417.8,257.5c0,1.5-0.4,3-1.2,4.4
	c-0.8,1.4-1.8,2.5-3.3,3.3c-1.4,0.8-2.9,1.2-4.4,1.2h0c-1.5,0-3-0.4-4.4-1.2c-1.4-0.8-2.5-1.8-3.3-3.3c-0.8-1.4-1.2-2.9-1.2-4.4
	c0-1.6,0.4-3.1,1.2-4.5c0.8-1.4,1.9-2.5,3.3-3.3c1.4-0.8,2.9-1.1,4.4-1.2h0c1.5,0,2.9,0.4,4.4,1.2c1.4,0.8,2.6,1.8,3.3,3.3
	C417.4,254.4,417.8,255.9,417.8,257.5z M330.6,185.1l42.1,70.1h-67.6l-40.2-67l-30.4-50.7l30.4-18.3l19.2-11.5L330.6,185.1z
	 M361.1,303.9v28.8h-14v-3.2c-4.7,3.1-10.4,4.9-16.4,4.9h-0.2c-16.7-0.1-30.3-13.7-30.3-30.5c0-16.7,13.6-30.3,30.3-30.4h0.2
	c6,0,11.7,1.8,16.4,4.9v-3.3h14V303.9z M347.1,307.1v-6.4c-1.5-7.7-8.3-13.5-16.4-13.5h-0.2c-9.2,0.1-16.6,7.5-16.6,16.7
	s7.4,16.7,16.6,16.8h0.2C338.8,320.6,345.6,314.7,347.1,307.1L347.1,307.1z M295.4,303.9v28.8h-14v-3.2c-4.8,3.1-10.4,4.9-16.4,4.9
	h-0.2c-16.7-0.1-30.3-13.7-30.3-30.5c0-16.7,13.6-30.3,30.3-30.4h0.2c6.1,0,11.6,1.8,16.4,4.9v-23.1h14V303.9z M281.4,307.1v-6.4
	c-1.5-7.7-8.3-13.5-16.4-13.5h-0.2c-9.2,0.1-16.6,7.5-16.6,16.7s7.4,16.7,16.6,16.8h0.2C273.1,320.6,279.9,314.7,281.4,307.1
	L281.4,307.1z M264.9,227.6l16.5,27.6h-67.6l-37.5-62.4l-1.6-2.7l1.6-1l48-28.9L264.9,227.6z M213.9,273.4h15.2v59.2h-15.2V273.4z
	 M213.9,255.5h15.2v13.4h-15.2V255.5z M206.9,303.9v28.8h-14v-3.2c-4.8,3.1-10.4,4.9-16.5,4.9h-0.2c-16.7-0.1-30.3-13.7-30.3-30.5
	c0-16.7,13.6-30.3,30.3-30.4h0.2c6.1,0,11.7,1.8,16.5,4.9v-23.1h14V303.9z M192.9,307.1v-6.4c-1.5-7.7-8.3-13.5-16.5-13.5h-0.2
	c-9.2,0.1-16.6,7.5-16.6,16.7s7.4,16.7,16.6,16.8h0.2C184.6,320.6,191.4,314.7,192.9,307.1L192.9,307.1z M176.3,232.1l13.8,23.1
	h-67.6l-7.6-12.7l49.7-29.8L176.3,232.1z M140.5,303.9v28.8h-14v-3.2c-4.8,3.1-10.4,4.9-16.5,4.9h-0.2
	c-16.7-0.1-30.2-13.7-30.2-30.5c0-16.7,13.6-30.3,30.2-30.4h0.2c6,0,11.7,1.8,16.5,4.9v-3.3h14V303.9z M126.5,307.1v-6.4
	c-1.5-7.7-8.3-13.5-16.5-13.5h-0.2c-9.1,0.1-16.6,7.5-16.6,16.7s7.4,16.7,16.6,16.8h0.2C118.2,320.6,125,314.7,126.5,307.1
	L126.5,307.1z"/>
</svg>
