<svg id="Layer_1" xmlns="http://www.w3.org/2000/svg" viewBox="0 0 500 500"><path class="st0" d="M152.4 185.6c.8-1.3 2.1-.8 2.1-.8 1.2.3.9 2.1.9 2.1-.7 9.7 1 11.6 1 11.6l11.3 30.5c1.4 3.7 3.7 1.3 3.7 1.3 2.4-1.2 3.2-.4 3.2-.4 1.4 1.1 0 2.6 0 2.6l-6.2 10.6c-1.8 4-5.7.1-5.7.1-1.4-.8-5.6-4.6-5.6-4.6-1.3-2.5-3.2-.2-3.2-.2l-6.9 11c-2.3 4.5-7.9 1.2-7.9 1.2-20-7.8-6.9-33.6-6.9-33.6 1.4-4.5 4.1-3.7 4.1-3.7l10.4.2c-.2-3.2-3.9-10.3-3.9-10.3-.9-2.6-2.7-2.2-2.7-2.2l-17.5.2c-1.5.1-1.3-1.1-1.3-1.1-.3-1.1 1.5-1.9 1.5-1.9 3.5-1.1 6.8-6.4 6.8-6.4 2.4-2.9 4.9-2.1 4.9-2.1l10.5.1c5.4.3 7.4-4.2 7.4-4.2zm-13.8 32.8c-2.2-.1-2.3 3.2-2.3 3.2-.4 12.6 9.2 16.2 9.2 16.2 3.6 2.4 4.4-.6 4.4-.6l3.3-5.6-4.7-13.1-9.9-.1zm23.2-57.3s2.2-.5 4.4 9l11.8 47.6s2.3 7.3-.5 10.4c0 0-1.3.5-.9 1.7 0 0 .1.9 1.9 1.1 0 0 9.9.8 13.1 3.8 0 0 2.7 2.9 4.4-.2 0 0 4.1-5.8 6.8-8.4 0 0 1.3-.6.7-2.3 0 0-.1-1.5-1.9-.8 0 0-6.2 3.5-7.9-2.1l-15.1-58.3s-1.6-4.6 1.7-9.3c0 0 1.6-1.6.4-2.7 0 0-1.1-1-3 .3 0 0-3.7 2.1-7.8 8 0 0 0 1.2-2 .4 0 0-2.6-1.2-6.6-.6 0 0-1.1 0-1.2.9 0 0-.2 1.3 1.7 1.5zm137.2-1.9s-18.3 4.4-12.2 17.8l1.9 4.4s1.1 1.6.8 4.9l-4.1 31.7s.1 1.6-1.6 3.2l-1.7 1.4s-1.4.7-1.1 1.8c0 0 .2 1.2 1.6 1.2 0 0 11.2 3.9 14.9 10.1 0 0 1.7 3.1 4.8.5l3.6-1.8s3.1-2.3 6.9.8c0 0 8.2 5.8 8.8 6.4 0 0 2.2 3.3 5.4.9 0 0 6.2-3.5 13.7-2.9 0 0 2.7 1.2 3.6-2.4l11.2-33.1s3.4-8.8-2.7-16.5c0 0-.9-2.5-3.9-.9l-7.8 3.1s-2 .4 0 3l.8 1.4s1.6 1.5.2 6.8l-9.7 29.6s-.3 2.7-1.9 1.5l-7.2-5.2s-1.6-.2.1-5.6l6.5-25.9s3.1-9.1-4.8-16.1c0 0-.9-1.6-3.8-.1l-6.2 3.6s-2.7 1.1-.3 3.1c0 0 3.4 2.2 1.6 9.2l-7 27.4s-.5 5.7-4 3l-5.4-3.4s-2.3-.1-1.5-4.9l4.8-26.2s2.4-9-3.5-16c0 0-8.8-8.6-.5-13.3 0 0 2-.8 1.6-2.1.1.3 0-1-1.9-.4zm126 61.9l-10.2 1.4s-1.8.2-1.5 1.2c0 0 0 1 1.1 1.3l1.1.8s2.6 1.3.1 4.5l-15.9 24.1s-3.8 4-2.8 11c0 0 1.1 6 1 9.1 0 0 1.5 8.1-2.5 1.8 0 0-5.8-8.4-14.5-12.8 0 0-2.8-2-5.6.5l-3.7 2.9s-1.9 1.6.1 2.1c0 0 9.4 5.5 14.2 12 0 0 1.9 3.3 6.2 3.1 0 0 8.7.6 11.5-.6 0 0 5.5-.1 5.6-7.7v-3.9s-.7-2.2 3-2.3c0 0 36 2.6 36.8-31 0 0 .5-4.6-3.6-3.7l-6.4.4s-3.5-.4-3.2 3.8c0 0 .6 21.8-23.1 25.5 0 0-4.5 1.2-2.6-2.7 0 0 9.7-15.8 16.1-23.3 0 0 7.6-7.6 3.3-15.3l-.9-1.4s-.5-1.5-3.6-.8zm-225.9-67.9s2.2-.2 3.2 9.5l5.8 48.7s1.4 7.6-1.7 10.3c0 0-1.3.3-1.1 1.6 0 0 0 .9 1.8 1.3 0 0 9.7 2 12.5 5.4 0 0 2.3 3.2 4.4.3 0 0 4.8-5.2 7.8-7.5 0 0 1.4-.4.9-2.2 0 0 .1-1.5-1.8-1 0 0-6.6 2.7-7.6-3.1l-7.8-59.7s-1-4.7 2.8-9c0 0 1.8-1.4.7-2.6 0 0-.9-1.1-3.1-.1 0 0-3.9 1.7-8.7 7 0 0-.1 1.2-2 .2 0 0-2.4-1.5-6.5-1.4 0 0-1.1-.1-1.3.8.2-.1 0 1.2 1.7 1.5z"/><path class="st0" d="M274.5 171.4c1.2-1 2.2 0 2.2 0 1 .7.1 2.3.1 2.3-4.1 8.8-3.2 11.2-3.2 11.2l-.3 32.5c0 4 3 2.6 3 2.6 2.7-.3 3.1.8 3.1.8.9 1.6-.9 2.4-.9 2.4l-9.6 7.7c-3.1 3.1-5.3-1.9-5.3-1.9-1.1-1.3-3.5-6.3-3.5-6.3-.4-2.8-2.9-1.3-2.9-1.3l-10.4 7.8c-3.7 3.4-7.9-1.7-7.9-1.7-15.9-14.4 5.5-33.8 5.5-33.8 3-3.7 5.2-2 5.2-2l9.6 3.9c.9-3.1 0-11 0-11 .1-2.7-1.7-3-1.7-3l-16.4-6.1c-1.5-.4-.8-1.5-.8-1.5.1-1.2 2.1-1.2 2.1-1.2 3.7.2 8.6-3.5 8.6-3.5 3.2-1.8 5.4-.2 5.4-.2l9.8 3.8c4.9 1.9 8.3-1.5 8.3-1.5zm-24.6 25.5c-2-.9-3.3 2.2-3.3 2.2-4.9 11.6 2.8 18.4 2.8 18.4 2.5 3.5 4.4 1 4.4 1l5.1-4 .2-13.9-9.2-3.7zm153.6 13.7c1.5-.4 2 .9 2 .9.6 1.1-.8 2.1-.8 2.1-7.4 6.3-7.6 8.9-7.6 8.9L383.3 252c-1.6 3.6 1.6 3.6 1.6 3.6 2.5.8 2.5 2 2.5 2 .2 1.8-1.8 1.8-1.8 1.8l-11.9 3c-4.1 1.6-4-4-4-4-.4-1.6-.6-7.2-.6-7.2.8-2.7-2.1-2.4-2.1-2.4l-12.7 2.8c-4.8 1.6-6.4-4.8-6.4-4.8-8.4-19.7 19.1-28.4 19.1-28.4 4.2-2.1 5.5.3 5.5.3l7.1 7.6c2.1-2.4 4.6-10 4.6-10 1.2-2.5-.3-3.4-.3-3.4l-12.4-12.3c-1.2-1-.1-1.7-.1-1.7.6-1 2.4-.2 2.4-.2 3.3 1.7 9.3.4 9.3.4 3.7-.3 4.9 2.1 4.9 2.1l7.3 7.6c3.7 3.4 8.2 1.8 8.2 1.8zm-33 13c-1.4-1.6-3.9.6-3.9.6-9.3 8.5-5.1 17.9-5.1 17.9.8 4.2 3.5 2.7 3.5 2.7l6.3-1.5 6-12.5-6.8-7.2zm-167.1 70.9v1.6c0 17.5-9.4 33.1-29.7 33.1-19 0-31.1-15.3-31.1-32.5 0-17.7 12.4-32.9 31.8-32.9 11.1 0 20.8 5.4 25.8 14.8l-11.2 5.8c-2.6-5.6-8.1-9.9-14.9-9.9-12.3 0-18.3 11.9-18.3 22.2 0 10.3 6.1 21.8 18.4 21.8 8 0 14.6-6.6 14.9-14.1h-13.8v-9.9h28.1zm3.2 2c0-17.4 13.2-32.6 32.3-32.6 19 0 32.3 15.2 32.3 32.6 0 17.8-13.2 32.8-32.3 32.8-19.1-.2-32.3-15.1-32.3-32.8zm13-.5c0 9.4 8.3 21.3 19.1 21.3s19.1-11.9 19.1-21.3c0-10-8-20.2-19.1-20.2s-19.1 10.1-19.1 20.2zm66.9 21h18v10.5h-30.7v-62.1h12.7V317zm34.9-41v13.7h18.4v10.6h-18.4v27.3h-12.7v-62.1H341V276h-19.6zm-189.8-21.9c2.9-4.3.8-6.5-.9-7.2-6-2.3-9 13.5-21.5 18.1-13.9 5-17.5 1.3-18.7-.8-2.4-4.4 5.2-13.1.5-24.7-5.5-13.4-12-21.9-8.5-27.7 3.4-5.7 12.8-4.4 17.2-4.4 8.9.2 10.7-11.1 9.5-13.9-.5-1.3-2-1.6-3.3-1.1-4.5 1.8-5.6 2.7-9.5 3.2s-6.4.7-15.2 2.2C74 199 46 218.2 57.7 253.5c9.6 29.1 40.7 28.7 52 24.4 12.5-4.5 18.9-19.3 21.9-23.8zm-48.3 2.5c.8 3.7-1.9 4.2-1.9 4.2-1.6.8-3.3-.3-3.3-.3-1.8-.9-3.1-2-3.1-2-3.4-2.3-7.1-6.9-9.2-11.7-6.1-14.2.3-26.7 3.2-29.9 0 0 1.1-1.6 2-2 0 0 1.7-1.6 2.8.2 0 0 .7 1.4.5 3.4 0 0-.1 1.4-.2 2.2-.3 2-1.6 4.9-1.6 7 0 2.6 1 5.6 1.9 7.4 2.3 4.7 7.1 15.3 7.9 17.9.9 2.1 1 3.6 1 3.6zm369.2-28.5c0-4.6 3.7-8.3 8.2-8.3h.1c4.6 0 8.3 3.6 8.3 8.2v.1c0 4.6-3.7 8.3-8.2 8.3h-.1c-4.6 0-8.3-3.6-8.3-8.2v-.1zm1.4 0c0 3.8 3.1 7 7 7 3.8 0 7-3.1 7-6.9 0-3.8-3.1-6.9-6.9-7h-.1c-3.9-.1-7 2.9-7 6.9 0-.2 0-.2 0 0zm10.6 4.7H463l-2.4-4.3h-1.7v4.3h-1.4v-9.3h3.9c1.7 0 3.2.5 3.2 2.5 0 1.8-1.2 2.5-2.5 2.6l2.4 4.2zm-5.5-8v2.3h1.4c1.3 0 3 .2 3-1.1 0-1.2-1-1.3-2.1-1.3l-2.3.1z"/></svg>