<svg xmlns="http://www.w3.org/2000/svg" viewBox="0 0 500 500"><path d="M379.4 374.9c0-1.1-.9-1.3-1.8-1.3h-1.8v2.8h1.6c1 0 2-.1 2-1.5z"/><path d="M377.4 370.5c-3.4 0-6 2.8-6 6.4-.1 3.8 2.6 6.5 6 6.5 3.3 0 6-2.8 6-6.5 0-3.6-2.7-6.4-6-6.4zm2.1 11.1l-2.2-3.9h-1.5v3.8h-1.3v-8.9h3.2c2 0 3 .7 3 2.6 0 1.6-.9 2.3-2.2 2.5l2.4 4h-1.4zM161.8 380.8l-42.7-42.7c-3-3-3.4-3.6-7.2-1.7 0 0-.1 0-.1.1v51.7h51.6c0-.1.1-.1.1-.2 1.9-3.8 1.4-4.1-1.7-7.2z"/><path d="M377.3 267.8c-.2.2-1.8 1.6-3.1.3-.6-.6-.6-1.5-.2-2.2 1.1-2.1.7-2.3-.9-4.1l-29.3-29.2 11.2-11.2 29.2 29.2c1.6 1.6 1.9 2 4 1v-78.7l-11.8 11.8-4.7-4.7c5.8-7.5 6.4-17 2-25.7-.6-1.8-1.5-3.6 0-5.1 2.6-2.6 4.8.1 5.2.5l9.3 9.4v-47.2h-48.3L350 122c.4.4 1.8 2-.6 4.5-1.4 1.4-2.6 1-4.2.2-8.8-4.5-16.9-4.3-25.2 1.7l-4.7-4.7 11.7-11.8H111.8v215.3l19.6-19.6c.4-.3 3.1-2.9 5.5-.5 1.1 1.1 1.2 2.6.5 4-1.9 3.8-1.4 4.1 1.7 7.2l42.7 42.7c3 3 3.4 3.6 7.2 1.7 1.4-.7 2.9-.7 4 .4 2.4 2.4-.2 5.3-.5 5.5l-19.7 19.7h78.7c.2-.3.3-.6.5-1 .6-1.1-.7-2.3-1.4-2.9l-24-24c-.7-.6-1.8-2-2.9-1.4-1.2.6-2.2 1.3-3.4.2-1.2-1.2-.2-2.5.7-3.4l11.7-11.7 34.3 34.3-10 10h131.4V256.9l-11.1 10.9zm-2.9-44.4c.2.2 1.2 1.5-.2 2.9-1.3 1.3-2.7.4-3.9-.6-2.9-2-6.5-4.4-10.6-3.7l-2.7-2.7 6.6-6.6 10.8 10.7zM341 132.6c2.5-2.5 5.1.8 5.7 1.5l17.6 17.6c.6.6 4 3.2 1.5 5.7-1.8 1.8-3.5.9-5.3-.1-3.9-2.4-8.6-4-12.9-1.5l-5-5c2.5-4.3.9-9-1.5-12.9-.9-1.7-1.7-3.5-.1-5.3zm-50.8 16.1l21.5-21.5 61.1 61-21.5 21.5c-.4.4-3.2 2.9-5.5.5-1.1-1.1-1.1-2.6-.4-4 1.9-3.8 1.4-4.1-1.7-7.2L301 156.3c-3-3-3.4-3.6-7.2-1.7-1.4.7-2.9.7-4-.4-2.5-2.3.1-5.2.4-5.5zm-9.1 9.1c.3-.3 3.1-2.9 5.5-.5 1.2 1.1 1.2 2.6.5 4-1.9 3.8-1.4 4.1 1.7 7.2l42.7 42.7c3 3 3.4 3.6 7.2 1.7 1.4-.7 2.9-.7 4 .4 2.4 2.4-.1 5.3-.4 5.4l-23 23c-.3.3-3.1 2.9-5.5.5-1.2-1.1-1.2-2.6-.5-4 1.9-3.8 1.4-4.1-1.7-7.2l-37.9-37.9 33 61-2.4 2.4-67.5-33.4c-1.7-.8-3.2-1.7-5-2-1.9-.5-3.2-1.1-4.7.2-1 .9-3.4 2.9-5.3 1-2.5-2.6-.1-5 .9-6l20.6-20.6L277 212l.2-.2-17.6-32.5 21.5-21.5zm-.7 160.7c-.6-1-1-2-.1-2.9 1.4-1.4 2.9.5 3.2.8l10 10c.4.4 2.2 1.8.8 3.2-.9.9-1.9.5-2.9-.1-2.1-1.3-4.8-2.2-7.3-.8l-2.9-2.9c1.4-2.4.5-5-.8-7.3zm4.8-6.5c-.8.7-1.5.6-2.4.1-4.9-2.5-9.5-2.4-14.2.9l-2.7-2.6 10.2-10.2 9.3 9.3c.3.3 1.2 1.1-.2 2.5zM251 291.2l-42.3-42.3c-2-2-4.8-4.1-10-1.8l-4.7-4.7c18.8-15.8 40.8-9.9 57 6.4 16.2 16.2 22.1 38.2 6.4 57l-4.7-4.7c2.5-5.1.3-7.9-1.7-9.9zm23.1-30.2l-27.5-27.5.2-.2 18.1 8.9 14 14c11.5 8.9 13.5.6 17 4 2.6 2.6-.9 5.7-1.8 6.6l-9.3 9.3c-.9.8-4.1 4.3-6.6 1.8-3.5-3.4 4.9-5.4-4.1-16.9zm-30.8-95.9c-.4-.9-.7-1.9 0-2.7 1.4-1.4 2.6 0 2.7.2l8.7 8.7-10 10-2.5-2.6c3-4 3.4-8.9 1.1-13.6zm-4.2 1.8c-.9.9-1.8.5-2.8 0-2-1.3-4.5-2.1-6.8-.7l-2.8-2.8c1.4-2.3.5-4.8-.7-6.8-.6-.9-.9-1.9 0-2.8 1.4-1.4 2.7.5 3 .7l9.3 9.3c.5.4 2.2 1.7.8 3.1zM222 139.3l8.8 8.8c.2.2 1 1.1-.3 2.4-.7.7-1.4.6-2.2.1-4.6-2.4-8.9-2.3-13.4.9l-2.5-2.6 9.6-9.6zm-22.9 23l11.4-11.4 32.2 32.2-11.4 11.4c-.2.2-1.7 1.5-2.9.3-.6-.6-.6-1.4-.2-2.1 1-2 .7-2.2-.8-3.8l-22.6-22.6c-1.6-1.6-1.8-1.9-3.8-.8-.7.4-1.5.4-2.1-.2-1.3-1.4.1-2.8.2-3zm-16.2 16.3l12.2-12.2c.2-.2 1.7-1.5 2.9-.3.6.6.6 1.4.2 2.1-1 2-.7 2.2.8 3.8l22.6 22.6c1.6 1.6 1.8 1.9 3.8.8.7-.4 1.5-.4 2.1.2 1.3 1.3-.1 2.8-.3 2.9L215 210.7c-.2.2-1.7 1.5-2.9.3-.6-.6-.6-1.4-.2-2.1 1-2 .7-2.2-.8-3.8l-10.3-10.3-3.8 3.8-2.5-2.5 3.8-3.8-9.8-9.8c-1.6-1.6-1.8-1.9-3.8-.8-.7.4-1.5.4-2.1-.2-1.2-1.2.1-2.7.3-2.9zm-16.3 16.3l12.2-12.2c.2-.2 1.7-1.5 2.9-.3.6.6.6 1.4.2 2.1-1 2-.7 2.2.8 3.8l22.6 22.6c1.6 1.6 1.8 1.9 3.8.8.7-.4 1.5-.4 2.1.2 1.3 1.3-.1 2.8-.3 2.9L198.7 227c-.2.2-1.7 1.5-2.9.3-.6-.6-.6-1.4-.2-2.1 1-2 .7-2.2-.8-3.8l-22.6-22.6c-1.6-1.6-1.8-1.9-3.8-.8-.7.4-1.5.4-2.1-.2-1.2-1.2.1-2.7.3-2.9zm-2.9 2.9l10 10c.2.2 1.1 1.4-.2 2.7-1.2 1.2-2.6.3-3.6-.6-2.7-1.9-6.1-4.1-10-3.5l-2.5-2.5 6.3-6.1zm-8.1 8.1l27.5 27.5c1.6 1.6 1.8 1.9 3.8.8.7-.4 1.5-.4 2.1.2 1.3 1.3-.1 2.8-.3 2.9l-12.2 12.2c-.2.2-1.7 1.5-2.9.3-.6-.6-.6-1.4-.2-2.1 1-2 .7-2.2-.8-3.8L145 216.5l10.6-10.6zm-18.8 18.7l6.2-6.2 2.5 2.5c-.6 3.9 1.6 7.3 3.5 10 .8 1.1 1.8 2.4.6 3.6-1.3 1.3-2.5.4-2.7.2l-10.1-10.1zm86.6 113.2l-23 23c-.4.4-3.2 2.9-5.5.5-1.1-1.1-1.1-2.6-.5-4 1.9-3.8 1.4-4.1-1.7-7.2l-19.5-19.5-7.2 7.2-4.7-4.7 7.2-7.2-18.5-18.5c-3-3-3.4-3.6-7.2-1.7-1.4.7-2.9.7-4-.5-2.4-2.4.2-5.2.5-5.5l23-23c.4-.4 3.1-2.9 5.5-.5 1.1 1.1 1.2 2.6.5 4-1.9 3.8-1.4 4.1 1.7 7.2l42.7 42.7c3 3 3.4 3.6 7.2 1.7 1.4-.7 2.9-.7 4 .5 2.3 2.4-.3 5.2-.5 5.5zm-26.7-34.5c-16.2-16.2-22.1-38.2-6.4-57l4.7 4.7c-2.5 5.3-.3 8 1.8 10l42.3 42.3c2 2 4.8 4.1 10 1.8l4.7 4.7c-18.8 15.6-40.8 9.8-57.1-6.5zM269 376l-2.7-2.7c2.4-3.1 0-5.9-1.8-7.6L245 346.2c-1.8-1.8-4.5-4.2-7.6-1.8l-2.7-2.7c7.7-7.9 19.6-9 32.1 2.3 11.1 10.3 9.8 24.5 2.2 32zm17-17.1c-.2.2-1.8 1.6-3.1.3-.6-.6-.6-1.5-.2-2.2 1.1-2.1.8-2.3-.9-4.1l-24-24c-1.7-1.7-1.9-2-4.1-.9-.8.5-1.6.5-2.2-.2-1.4-1.3.1-2.9.3-3.1l12.1-12.1 34.3 34.3-12.2 12zm14.1-14.1l-2.6-2.7c3.2-4.1 3.6-9.6 1.1-14.5-.4-1-.8-2 0-2.9 1.5-1.5 2.7 0 2.9.2l9.2 9.2-10.6 10.7zm26.8-26.8l-13 13c-.2.2-1.4 1.3-2.8-.1-.6-.6-.7-1.4-.4-2.1 1.1-2.1.6-2.1-1.2-3.8l-24-24c-1.7-1.7-1.9-2-4.1-.9-.7.5-1.6.4-2.2-.3-1.3-1.3.1-2.9.3-3.1l12.1-12.1 29.2 29.2c1.7 1.7 1.9 2 4.1.9.8-.4 1.6-.5 2.2.2 1.5 1.3 0 2.9-.2 3.1zm-3.2-31.2c-.5-.5-1-1.1-1.5-1.6.9 2.4 1 4.9.3 7.8-.9 3.4-3 6.4-7.4 10.8l-2.7-2.7c2.2-3.2.5-5.3-1.8-7.5l-6.9-6.9c-2-2-4.3-3.5-7.2-1.5l-2.7-2.7c4.3-4.3 7.4-6.4 10.8-7.4 5.2-1.3 9.4.1 13.1 3.6-4.1-7.7-4.1-16.4 2.4-24.2l2.8 2.8c-1.4 2.9-.2 4.5.9 5.6l23.8 23.8c1.1 1.1 2.7 2.3 5.6.9l2.7 2.7c-10.6 8.9-23 5.6-32.2-3.5zm34.3 1.5l-2.7-2.7c1.4-2.9.2-4.5-.9-5.6l-23.8-23.8c-1.1-1.1-2.7-2.3-5.6-1l-2.7-2.7c6.4-5.3 13.4-6.2 20-4.1l-7.2-7.2 6.6-6.6 2.7 2.7c-.7 4.1 1.7 7.7 3.7 10.6.8 1.1 1.8 2.5.7 3.7 2 1.3 3.8 2.8 5.6 4.6 9.1 9.1 12.4 21.4 3.6 32.1zm19.3 96.5c-4 0-7.5-3.3-7.5-7.8 0-4.4 3.4-7.7 7.5-7.7s7.5 3.3 7.5 7.7c0 4.5-3.4 7.8-7.5 7.8z"/></svg>