<svg xmlns="http://www.w3.org/2000/svg" viewBox="0 0 500 500"><path d="M447.7 288.8c-.1-1.1-1-2-2.1-1.9h-2.4v6.4h1.1v-2.7h.8l1.5 2.7h1.4l-1.7-2.8c.8-.2 1.4-.9 1.4-1.7zm-3.5.9v-1.8h1c.5-.1 1.1.2 1.2.8v.1c-.1.6-.7 1-1.3 1h-.1l-.8-.1zm1.1-5.2c-3.1.1-5.6 2.6-5.5 5.7s2.6 5.6 5.7 5.5 5.5-2.6 5.5-5.7-2.6-5.6-5.7-5.5zm0 10.4c-2.6 0-4.8-2.1-4.8-4.8 0-2.6 2.1-4.8 4.8-4.8 2.6 0 4.8 2.1 4.8 4.8-.1 2.6-2.2 4.8-4.8 4.8zM63 218.1h19.2v76.7H63v-76.7zm81.2-2.2c-10-.1-19.3 5.5-23.8 14.5h-.3V218h-18.2v76.7h19.2v-42.2c0-10.2 5.8-20.8 17.9-20.8s14.4 11.4 14.4 20.5v42.6h19.2v-48c0-15.6-8.4-30.9-28.4-30.9zm165.1 44.4c0 10.2-5.8 20.8-17.9 20.8S277 269.8 277 260.7V218h-19.2v48c0 15.7 8.3 31 28.3 31 10.1.2 19.4-5.5 23.8-14.6h.3v12.3h18.2V218h-19.2V260.3h.1zm38.9 34.6h19.2v-76.7h-19.2v76.7zm-165.9-59.7h21.5v59.7H223v-59.7h21.5v-17.1h-62.1v17.1h-.1zm31.1-27c6.4 0 11.6-5.2 11.6-11.6 0-6.4-5.2-11.6-11.6-11.6-6.4 0-11.6 5.2-11.6 11.6 0 6.4 5.2 11.5 11.6 11.6zm167.4 10v17.1h21.5V295h19.2v-59.7H443v-17.1h-62.2zm31.1-10c6.4 0 11.6-5.2 11.6-11.6 0-6.4-5.2-11.6-11.6-11.6s-11.6 5.2-11.6 11.6c.1 6.4 5.3 11.5 11.6 11.6z"/></svg>