<svg xmlns="http://www.w3.org/2000/svg" viewBox="0 0 500 500"><path d="M124.21 213.65h50.22v14.69h-32.05v12.61h29.51v14.81h-29.51v13.88h32.05v14.69h-50.22m112.81-23.01c0 5.67-3.12 8.79-12.15 8.79s-12.03-3.12-12.03-8.79v-47.67h-18.17v49.75c0 11.22 6.83 22.33 30.2 22.33 23.49 0 30.32-11.11 30.32-22.33v-49.75h-18.17v47.67zm123.93 23.03h18.17v-70.7h-18.17v70.7zm80.53-34.95v19.9c-3.24.46-6.94.93-10.88.93-9.37 0-11.22-3.24-11.22-9.26v-24.41c0-6.48 3.12-8.68 10.88-8.68 7.52 0 15.74.81 24.41 2.08l1.62-15.27c-9.03-1.74-17.36-2.43-25.57-2.43-20.83 0-29.51 7.06-29.51 21.98v29.39c0 14.23 7.87 22.1 28.93 22.1 9.37 0 19.44-1.27 28.12-3.7V249.4h-16.78zM51.2 237.83c-6.13 0-11.11 4.98-11.11 11.11 0 6.25 4.98 11.22 11.11 11.22 6.13 0 11.11-4.98 11.11-11.22 0-6.13-4.98-11.11-11.11-11.11zm0-25.57c-6.13 0-11.11 4.98-11.11 11.11s4.98 11.11 11.11 11.11c6.13 0 11.11-4.98 11.11-11.11 0-6.13-4.98-11.11-11.11-11.11zm0 51.26c-6.13 0-11.11 4.98-11.11 11.11s4.98 11.11 11.11 11.11c6.13 0 11.11-4.98 11.11-11.11s-4.98-11.11-11.11-11.11zm55.65-49.87H86.37l-20.71 35.29 20.71 35.41h20.48l-21.41-35.41 21.41-35.29zm220.77 47.09l14.35 23.6h-20.48l-11.34-20.02h-14v20.02h-18.17v-70.7h33.44c19.09 0 25.22 7.41 25.22 20.36v9.95c.01 8-2.19 12.63-9.02 16.79zm-8.67-25.91c0-4.63-2.2-6.48-7.64-6.48h-15.16v21.64h14.69c5.9 0 8.1-2.2 8.1-6.94v-8.22h.01zm148.22-22.22c-2.55 0-4.63 2.08-4.63 4.63 0 2.66 2.08 4.74 4.63 4.74 2.66 0 4.74-2.08 4.74-4.74 0-2.55-2.08-4.63-4.74-4.63zm0 8.79c-2.2 0-4.05-1.85-4.05-4.17 0-2.2 1.85-4.05 4.05-4.05 2.31 0 4.17 1.85 4.17 4.05-.01 2.32-1.86 4.17-4.17 4.17zm.34-3.47h-1.16v1.5h-.58v-4.51h1.74c.93 0 1.27.46 1.27 1.16v.69c0 .46-.12.81-.58 1.04l1.16 1.62h-.69l-1.16-1.5zm0-2.43h-1.16v1.85h1.16c.46 0 .69-.23.69-.58v-.69c.01-.46-.22-.58-.69-.58z"/></svg>