<svg xmlns="http://www.w3.org/2000/svg" viewBox="0 0 500 500"><g fill-rule="evenodd" clip-rule="evenodd"><path d="M134.82 250.61h-2.33c-4.14 0-7.51 3.11-7.51 7.25 0 3.37 1.04 7.25 5.44 7.25 3.89 0 4.66-3.11 4.66-6.22v-7.77c0 .01.26-.51-.26-.51zm118.04 37.82h-8.16c-5.85-.7-10.93-2.94-10.93-8.29 0-3.89 4.4-6.73 8.03-7.25 0 0 1.04-.26 0-.26-1.3-.26-8.29-.78-10.62-.26 0 0-.52 0-.78-.52s-1.55-4.14-1.81-4.4c-.26-.52.26-.78.26-.78 5.18-.78 9.84-3.37 11.92-4.14 1.3-.26 0-.52 0-.52-7.25-1.3-14.51-6.22-14.51-14.76 0-12.18 10.1-17.61 19.69-17.61 4.4 0 6.99.78 9.32 1.04 0 0 .26.26.52-.26 0-.78.78-2.85.78-2.85 1.04-3.11 2.59-4.4 7.25-4.4 1.04 0 2.07 0 2.85.26 0 0 .52-.26.52.52-.26.26-1.81 6.48-1.81 6.73-.26.78-.52.26-.52.26-.78-.52-1.04-.78-2.85-.52-1.04 0-1.55.78-1.55 1.81 0 1.81 8.29 4.4 8.29 14.25 0 13.21-12.17 16.06-22.79 18.65 0 0-1.04.26 0 .26 6.99.78 21.5 2.59 21.5 11.66-.01 7.62-8.53 10.56-14.6 11.38zM151.4 267.45h2.07c.52 0 .52.52.52.52v4.14c0 .78-.78.52-.78.52h-16.58s-.26 0-.26-.52c-.26-1.04-.78-2.07-.78-2.85-.26-1.04-.78 0-.78 0-3.37 2.59-7.25 4.66-11.92 4.66-7.77 0-13.73-4.92-13.73-12.95 0-9.84 6.22-15.28 13.99-15.28l11.92-.52v-.52-1.3c0-3.37-1.81-4.92-5.7-4.92-4.92 0-7.25 1.81-9.58 4.66 0 0 0 .26-.52.26-.52-.26-4.66-1.81-4.66-1.81s-.52 0-.26-.52 5.44-12.95 5.44-12.95 0-.52.26-.26c.78.26 3.89 1.3 4.66 1.3.52.26.26.78.26.78l-.52 1.04c-.26 1.04.26.52.26.52 3.37-1.3 6.73-1.81 10.1-1.81 9.84 0 16.32 4.14 16.32 14.25v22.79c.01-.01.01.77.27.77zm1.04-34.71c6.73-1.81 12.43-6.22 15.28-12.43 0 0 0-.26.52-.26s3.89.78 4.4.78c.52.26.26.52.26.52-.26 2.07-.52 4.4-.52 6.22v3.11c0 .52.52.26.52.26h6.99c.52 0 .26.52.26.52s-1.04 5.18-1.04 5.7c-.26.52-.52.52-.52.52h-5.7c-.52 0-.52.26-.52.26v24.09c0 2.85 2.33 3.37 3.63 3.37 1.29 0 1.55 0 2.59-.52 0 0 .52-.52.52 0 .26.52 1.55 3.89 1.81 4.4.26.26-.26.52-.26.52-5.44 3.89-5.96 4.14-13.21 4.14-8.03 0-10.88-3.89-10.88-11.14v-24.87s0-.26-.52-.26h-3.63s-.26 0-.26-.52v-3.89c.02-.26.28-.52.28-.52zm118.12 18.91c0-13.47 10.62-22.02 24.61-22.02s24.87 8.55 24.87 22.02c0 13.99-10.88 22.28-24.87 22.28-13.99-.01-24.61-8.29-24.61-22.28zm16.06-5.96c0 6.22 2.59 21.76 11.4 21.76 4.66 0 5.96-4.92 5.96-9.58 0-6.22-2.59-21.76-11.66-21.76-5.7 0-5.7 6.47-5.7 9.58zm82.63 26.94h-21.76s-.26 0-.26-.26v-4.4c0-.52.52-.52.52-.52h2.59c.26 0 .26-.26.26-.26v-23.57c0-2.59-2.33-3.63-4.66-3.63-2.85 0-4.92 1.3-6.99 3.11 0 0-.26.26-.26.52v23.57s0 .26.26.26h2.85s.26 0 .26.52v4.4c0 .26-.26.26-.26.26h-21.76s-.26.26-.26-.52v-4.14c0-.52.26-.52.26-.52h2.33c.52 0 .26-.26.26-.26v-27.72s.26-.52-.26-.52c-.78.26-2.33.78-2.33.78s-.26.26-.26-.26v-4.4c0-.52.26-.26.26-.26l18.39-4.92s.52-.26.52.26v5.96c0 .78.26.26.26.26 4.4-3.37 8.81-6.73 14.76-6.73 11.14 0 12.69 7.51 12.69 12.17v25.39s-.26.26.26.26h2.33s.26 0 .26.52v4.14c0 .77-.26.51-.26.51zm22.02-42.74l-18.39 4.92s-.26 0-.26.52v4.14c0 .52.52.26.52.26s1.29-.26 2.33-.52c.52 0 .26.52.26.78v27.2s.26.26-.26.26h-2.59s-.52 0-.52.52v4.4c0 .52.52.26.52.26h21.5c.52 0 .26-.52.26-.52v-4.14c0-.52-.52-.52-.52-.52h-2.07c-.52 0-.26-.26-.26-.26v-37.04c-.01-.52-.52-.26-.52-.26zm-6.48-12.95c3.63 0 7.77 1.04 7.77 5.44 0 5.18-6.99 7.25-11.4 7.25-3.63 0-5.96-1.81-5.96-5.44.01-4.14 5.7-7.25 9.59-7.25zm-177.96 33.67h-2.07c-4.4 0-7.51 3.11-7.51 7.25 0 3.37 1.04 7.25 5.18 7.25s4.92-3.11 4.92-6.22v-7.77c0 .01 0-.51-.52-.51zm16.84 16.84h1.81c.78 0 .78.52.78.52v4.14c0 .78-.78.52-.78.52H208.9s-.26 0-.52-.52c-.26-1.04-.52-2.07-.52-2.85-.26-1.04-.78 0-.78 0-3.63 2.59-7.25 4.66-11.92 4.66-8.03 0-13.99-4.92-13.99-12.95 0-9.84 6.48-15.54 14.25-15.54l11.66-.26s.26 0 .26-.52v-1.3c0-3.37-1.81-4.92-5.7-4.92-4.92 0-7.25 1.81-9.58 4.66 0 0-.26.26-.52 0-.52 0-4.92-1.55-4.92-1.55s-.26 0 0-.52 5.18-12.95 5.18-12.95 0-.52.52-.26 3.89 1.3 4.4 1.3c.52.26.26.78.26.78s0 .52-.26 1.04c-.52 1.04.26.52.26.52 3.37-1.3 6.74-1.81 10.1-1.81 9.84 0 16.32 4.14 16.32 14.25v22.79c.01-.01-.25.77.27.77zm17.1-26.68c0 4.66 2.59 17.36 9.07 17.36 3.37 0 4.66-1.55 4.66-5.7 0-4.66-2.85-17.36-9.33-17.36-3.11 0-4.4 1.55-4.4 5.7zm6.73 33.93c-.78.78-1.29 3.63-1.29 5.44 0 2.07 1.04 4.4 3.63 4.4 2.07 0 3.37-1.04 3.37-3.11 0-3.89-2.33-5.18-5.18-6.99-.01 0-.27 0-.53.26zm172.78-24.09h-2.07c-4.4 0-7.51 3.11-7.51 7.25 0 3.37 1.04 7.25 5.18 7.25s4.92-3.11 4.92-6.22v-7.77c0 .01 0-.51-.52-.51zm16.83 16.84h2.07c.52 0 .52.52.52.52v4.14c0 .78-.78.52-.78.52h-16.58s-.26 0-.52-.52c-.26-1.04-.52-2.07-.52-2.85-.26-1.04-.78 0-.78 0-3.63 2.59-7.25 4.66-11.92 4.66-8.03 0-13.99-4.92-13.99-12.95 0-9.84 6.48-15.54 14.25-15.54l11.66-.26s.26 0 .26-.52v-1.3c0-3.37-1.81-4.92-5.7-4.92-4.92 0-7.25 1.81-9.58 4.66 0 0-.26.26-.52 0-.52 0-4.66-1.55-4.66-1.55s-.52 0-.26-.52 5.18-12.95 5.18-12.95 0-.52.52-.26 3.89 1.3 4.4 1.3c.52.26.52.78.52.78l-.52 1.04c-.52 1.04.26.52.26.52 3.37-1.3 6.73-1.81 10.1-1.81 9.84 0 16.32 4.14 16.32 14.25v22.79c.02-.01.02.77.27.77zM80.17 239.73v20.98c0 3.63 1.3 6.73 5.44 6.73 5.18 0 7.51-3.11 7.51-12.69 0-15.28-7.77-16.06-10.36-16.06l-2.07.26c0 .01-.52.26-.52.78zm.26-6.21c3.89-2.33 6.74-3.89 10.62-3.89 10.1 0 18.13 8.29 18.13 20.46 0 11.92-7.51 23.83-20.46 23.83-2.59 0-5.96-.26-8.29-1.55 0 0-.26 0-.26.26v7.51s0 .52.52.52h4.66s.52 0 .52.52v4.14c0 .26-.52.52-.52.52H61.78s-.78 0-.78-.52v-.04-.04-.04-.04-.05-.05-.05-.05-.06-.06-.06-.06-.06-.06-.07-.07-.07-.07-.07-.07-.07-.07-.08-.07-.08-.08-.08-.08-.08-.08-.08-.08-.08-.08-.08-.08-.08-.08-.08-.08-.08-.08-.07-.07-.07-.07-.07-.07-.07-.07-.07-.06-.06-.06-.06-.05-.06-.05-.05-.05-.05-.04-.04-.04c0-.52.52-.52.52-.52h2.07c.52 0 .52-.52.52-.52v-40.67c0-.52-.52-.26-.52-.26l-2.07.52s-.52 0-.52-.52v-.03-.03-.04-.04-.04-.04-.05-.05-.05-.05-.06-.06-.06-.06-.07-.07-.07-.07-.08-.07-.08-.08-.08-.08-.08-.08-.08-.08-.09-.08-.09-.08-.09-.09-.09-.08-.09-.08-.08-.08-.08-.08-.08-.08-.08-.07-.07-.07-.07-.07-.07-.06-.06-.06-.05-.05-.05-.05-.04-.04-.04-.03-.03-.02c0-.52.52-.52.52-.52l18.13-4.66s.52-.26.52.26v3.11c0 .55.26.3.26.3zM429.6 219.27c0-3.11 2.59-5.7 5.7-5.7 3.11 0 5.7 2.59 5.7 5.7 0 3.37-2.59 5.96-5.7 5.96-3.11 0-5.7-2.59-5.7-5.96zm10.62 0c0-2.59-2.07-4.92-4.92-4.92s-5.18 2.33-5.18 4.92c0 2.85 2.33 5.18 5.18 5.18s4.92-2.33 4.92-5.18zm-2.07 3.37h-1.04l-1.81-3.11h-1.29v3.11h-.78v-6.48h2.59c.52 0 1.3 0 1.55.26.52.26.78 1.04.78 1.55 0 1.04-.78 1.55-2.07 1.55l2.07 3.12zm-3.11-3.63c1.04 0 2.33.26 2.33-1.04 0-1.04-.78-1.29-1.55-1.29h-1.81v2.33h1.03z"/></g></svg>