<svg id="Layer_1" xmlns="http://www.w3.org/2000/svg" viewBox="0 0 500 500"><path d="M188.7 321.3v54.1m146.1-54.1v54.1" fill="none" stroke="#000" stroke-width=".482" stroke-miterlimit="2.6131"/><path class="st1" d="M343.6 157.8c-13.9-23.2-37.1-33.1-81.9-33.1-44.5 0-68 9.8-81.6 33.1-7.8 13.4-10.9 38.2-10.9 53.3 0 15.4 3 38.9 10.9 52.3 13.6 23.2 37.4 33.1 81.6 33.1 44.7 0 68-9.8 81.9-33.1 7.8-13.4 10.6-36.9 10.6-52.3 0-15.2-2.7-39.9-10.6-53.3zM240 259.1c-5.1 0-12.4-2.5-15.7-10.4l-22.2-53.8c-4.5-12.1 4.5-23.5 15.4-23.5 5 0 12.4 2.3 15.9 10.4l22.2 53.8c4.6 10.6-2.9 23.5-15.6 23.5zm44.8 0c-5.1 0-12.4-2.5-15.7-10.4l-22.2-53.8c-4.8-12.1 4.6-23.5 15.4-23.5 5 0 12.4 2.3 15.9 10.4l22 53.8c4.5 10.6-2.8 23.5-15.4 23.5zm27-40.7c-5.1 0-12.4-2.5-15.9-10.4l-4.8-13.1c-4.8-12.1 4.3-23.5 15.2-23.5 5.3 0 12.6 2.3 15.9 10.4l5 12.1c4.6 10.4-3 24.5-15.4 24.5zM40.1 337.9h2.8l5.8 19 5.6-19h3l5.3 19h.2l5.6-19h3l-7.3 22.2h-2.8l-5.6-18.7-5.6 18.7h-3l-7-22.2zm48.3 13.7c0 4.3-3.5 6.8-7.8 6.8-2.5 0-4.8-1.5-4.8-4.3 0-4.3 5.6-4.3 10.4-5 .8-.2 1.8-.5 2.3-1l-.1 3.5zm-11.9-6.8c.2-3.8 2.8-5.3 6.1-5.3s5.8 1 5.8 4.5c0 2.5-1.3 2.8-3.5 3-5.8.8-11.9 1-11.9 7.1 0 4.5 3.3 6.6 7.3 6.6 4.3 0 6.3-1.5 8.3-4.5 0 2.5.5 4 3 4 .8 0 1.3 0 1.8-.2v-2.3s-.5.2-.8.2c-1 0-1.5-.8-1.5-1.8v-11.9c0-5.8-4.3-7.1-8.3-7.1-5.1 0-8.6 2.3-8.8 7.6l2.5.1zm21.3-6.9h2.5v5c1.5-3.5 4.3-5.6 8.3-5.6v2.8c-4.8-.2-8.1 3.5-8.1 8.1v11.9h-2.8v-22.2zm14.6 0h2.8v3.8c1-2.8 4-4.5 7.1-4.5 6.3 0 8.1 3.3 8.1 8.6v14.4h-2.5v-13.9c0-3.8-1.3-6.8-5.8-6.8-4.3 0-6.8 3.3-6.8 7.6v13.1h-2.8l-.1-22.3zm24.8 9.6c.5-4.3 2.8-8.1 7.3-8.1 4.3 0 6.8 3.8 7.1 8.1h-14.4zm17.2 2.3c.2-6.3-2.8-12.6-9.9-12.6s-10.1 5.8-10.1 11.9c0 6.3 3 11.6 10.1 11.6 5.6 0 8.6-2.8 9.6-7.8h-2.5c-1 3.3-3 5.6-7.1 5.6-5.3 0-7.3-4.8-7.3-8.6h17.2zm4-11.9h2.5v5c1.5-3.5 4.6-5.6 8.3-5.6v2.8c-4.8-.2-8.1 3.5-8.1 8.1v11.9h-2.8v-22.2zm49.5 0h2.5v3.8c1.5-2.8 3.8-4.5 7.3-4.5 3 0 5.6 1.5 6.3 4.3 1.5-2.8 4.3-4.3 7.1-4.3 5.1 0 7.3 2.5 7.3 7.8v15.2H236V345c0-3.5-1.5-5.6-5.3-5.6-4.8 0-6.1 3.8-6.1 8.1v12.6h-2.8V345c0-3-1-5.6-4.6-5.6-4.8 0-6.6 3.5-6.6 8.3v12.4h-2.8v-22.2h.1zm53.9 22.3h-2.5v-4c-1.5 3-4.3 4.5-7.6 4.5-5.8 0-7.8-3.3-7.8-8.3V338h2.8v14.4c0 4 1.5 6.1 5.8 6.1 4.5 0 6.6-4.3 6.6-8.8v-11.6h2.8v22.1zm19.4-16c-.2-3.3-2.8-4.8-5.8-4.8-2.5 0-5.3 1-5.3 3.8 0 2.5 2.8 3.3 4.5 3.8l3.5.8c3.3.5 6.3 2.3 6.3 6.3 0 4.8-4.8 6.6-8.8 6.6-5 0-8.6-2.3-9.1-7.8h2.8c.2 3.8 2.8 5.6 6.6 5.6 2.5 0 6.1-1 6.1-4.3 0-2.5-2.5-3.3-5-4l-3.3-.8c-3.5-.8-6.3-2-6.3-5.8 0-4.5 4.5-6.3 8.3-6.3 4.5 0 8.1 2.3 8.1 7.1l-2.6-.2zm8.1-6.3h2.5v22.2h-2.5v-22.2zm0-8.6h2.5v4.3h-2.5v-4.3zm23.5 15.5c-.8-3.3-2.8-5.3-6.3-5.3-5 0-7.8 4.8-7.8 9.6 0 4.5 2.8 9.4 7.8 9.4 3.5 0 6.1-2.5 6.6-6.3h2.8c-.8 5.3-4.3 8.6-9.4 8.6-6.8 0-10.4-5.3-10.4-11.6 0-6.6 3.5-11.9 10.4-11.9 4.8 0 8.3 2.5 9.1 7.6l-2.8-.1zm51.6 12.8c-5 0-7.3-4.5-7.3-8.8 0-4.8 2.3-9.4 7.3-9.4s7.1 4.8 7.1 9.4c-.1 4.6-2.4 8.8-7.1 8.8zm9.8-19.7h-2.8v3.8c-1-2.5-3.8-4.5-7.1-4.5-6.3 0-10.1 5-10.1 11.1 0 6.6 3 11.6 10.1 11.6 3.3 0 5.8-2 7.1-4.5v3c0 5.3-2 8.3-7.1 8.3-3 0-5.8-1.3-6.6-4.5h-2.5c.2 4.8 4.8 6.8 9.1 6.8 7.3 0 9.9-4 9.9-10.6v-20.5zm5.3 0h2.5v5c1.3-3.5 4.3-5.6 8.3-5.6v2.8c-4.8-.2-8.3 3.5-8.3 8.1v11.9h-2.5v-22.2zm22 1.6c5.3 0 7.8 4.8 7.8 9.6 0 4.5-2.5 9.4-7.8 9.4-5 0-7.8-4.8-7.8-9.4 0-4.8 2.7-9.6 7.8-9.6zm0-2.3c-6.8 0-10.4 5.3-10.4 11.9 0 6.3 3.5 11.6 10.4 11.6 6.8 0 10.6-5.3 10.6-11.6 0-6.6-3.8-11.9-10.6-11.9zm32.6 23h-2.5v-4c-1.5 3-4.3 4.5-7.8 4.5-5.6 0-7.6-3.3-7.6-8.3V338h2.5v14.4c.2 4 1.8 6.1 6.1 6.1 4.5 0 6.6-4.3 6.6-8.8v-11.6h2.8l-.1 22.1zm23-11.2c0 4.5-2.3 9.4-7.3 9.4-5.8 0-7.8-4.8-7.8-9.4 0-5 1.8-9.6 7.8-9.6 5 0 7.3 4.8 7.3 9.6zm-18 19.3h2.8v-12.4c1.3 3.3 4.5 4.8 7.8 4.8 6.8 0 10.1-5.3 10.1-11.6s-3.3-11.9-10.1-11.9c-3.5 0-6.6 1.8-7.8 4.8h-.2v-4h-2.5v30.3h-.1z"/></svg>