<?xml version="1.0" encoding="utf-8"?>
<svg version="1.1" xmlns="http://www.w3.org/2000/svg" xmlns:xlink="http://www.w3.org/1999/xlink"
	 viewBox="0 0 216 90">
<g class="mp-logo">
	<g>
		<path d="M186.5,65.3c0-2,0.8-4,3.1-4c2.3,0,3.3,1.9,3.3,3.9c0,1.9-0.9,3.9-3.2,3.9C187.5,69.2,186.5,67.3,186.5,65.3 M184.7,65.2
			c0,2.9,1.6,5.4,4.8,5.4c1.4,0,2.7-0.5,3.3-1.6h0v1.4h1.7V56.1h-1.7v5.3h0c-0.8-1.2-2.3-1.6-3.3-1.6
			C186.2,59.8,184.7,62.3,184.7,65.2 M177.2,60.1h-1.6v10.3h1.7v-4.6c0-2.6,1-4.2,3.7-4.2v-1.8c-1.8-0.1-3,0.8-3.8,2.4h0V60.1z
			 M137.7,60.1H136v1.5h1.8v6.6c0,1.9,0.7,2.3,2.5,2.3h1.3v-1.5h-0.8c-1.1,0-1.3-0.1-1.3-0.9v-6.4h2.1v-1.5h-2.1V57h-1.7V60.1z
			 M124.4,67.2h-1.7c0.1,2.6,2.1,3.5,4.4,3.5c2.1,0,4.4-0.8,4.4-3.3c0-2-1.7-2.6-3.4-2.9c-1.6-0.4-3.4-0.6-3.4-1.8
			c0-1,1.2-1.3,2.2-1.3c1.1,0,2.3,0.4,2.4,1.7h1.7c-0.1-2.5-2-3.2-4.2-3.2c-1.8,0-3.9,0.9-3.9,2.9c0,2,1.7,2.5,3.4,2.9
			c1.7,0.4,3.4,0.6,3.4,1.9c0,1.3-1.4,1.5-2.5,1.5C125.7,69.2,124.4,68.7,124.4,67.2 M95.8,65.2c0-1.9,0.9-3.9,3.2-3.9
			c2.2,0,3.2,1.9,3.2,3.8c0,2-0.8,4-3.1,4C96.7,69.2,95.8,67.3,95.8,65.2 M95.9,60.1h-1.7v14.3h1.7V69h0c0.8,1.2,2.3,1.6,3.3,1.6
			c3.2,0,4.7-2.5,4.7-5.4c0-2.9-1.6-5.4-4.8-5.4c-1.4,0-2.7,0.5-3.3,1.6h0V60.1z M20,50.3h5.1V26.5H20V50.3z M31.9,50.3H37V26.5
			h-5.1V50.3z M43.9,50.3l5.1,0V26.5h-5.1V50.3z M75.6,38.3c0,4.3-3.7,8-7.9,8c-4.2,0-7.9-3.7-7.9-8c0-4.4,3.6-8.1,7.9-8.1
			C72,30.2,75.6,33.8,75.6,38.3 M80.6,38.3c0-7-5.7-12.5-12.9-12.5c-7.2,0-12.9,5.5-12.9,12.5c0,7.2,5.4,12.5,12.9,12.5
			C75.1,50.7,80.6,45.5,80.6,38.3 M106.6,38.3c0,4.3-3.7,8-7.9,8c-4.2,0-7.9-3.7-7.9-8c0-4.4,3.6-8.1,7.9-8.1
			C103,30.2,106.6,33.8,106.6,38.3 M107.3,50.3h4.7V15.6h-4.7v13.3c-2.3-2-5.3-3.1-8.6-3.1c-7.2,0-12.9,5.5-12.9,12.5
			c0,7.2,5.4,12.5,12.9,12.5c3.4,0,6.4-1.1,8.6-3V50.3z M116.2,65.3c0,2.5-1.4,3.9-3.2,3.9c-1.8,0-3.2-1.4-3.2-3.9
			c0-2.5,1.4-3.9,3.2-3.9C114.7,61.3,116.2,62.7,116.2,65.3 M118,65.3c0-3-1.7-5.4-5-5.4c-3.3,0-5,2.4-5,5.4c0,3,1.7,5.4,5,5.4
			C116.2,70.7,118,68.3,118,65.3 M119.2,31h23.9v-4.6h-23.9V31z M119.2,40.7h23.9v-4.6h-23.9V40.7z M119.2,50.3h23.9v-4.6h-0.3
			h-23.6V50.3z M151.4,59.8c-3.3,0-4.9,2.4-4.9,5.5c0,3.1,1.7,5.3,4.8,5.3c2.6,0,4.2-1.5,4.6-4h-1.7c-0.2,1.6-1.2,2.5-2.8,2.5
			c-2.2,0-3-1.9-3-3.8c0-2.1,0.8-4,3.2-4c1.4,0,2.3,0.8,2.6,2.1h1.8C155.6,60.9,153.8,59.8,151.4,59.8 M163.5,29.2L163.5,29.2
			l0.1-4.1h-0.1c-7.3,0-13.1,5.6-13.1,12.9v12.4h4.6V37.9C155.1,33.1,158.9,29.2,163.5,29.2 M167.6,66.8c0,0.9-0.9,2.3-3.2,2.3
			c-1,0-2-0.4-2-1.5c0-1.3,1-1.7,2.1-1.9c1.1-0.2,2.4-0.2,3.1-0.7V66.8z M169.3,62.7c0-2.4-2-2.8-3.9-2.8c-2.3,0-4.3,0.9-4.4,3.5
			h1.7c0.1-1.5,1.1-2,2.6-2c1.1,0,2.3,0.2,2.3,1.7c0,1.3-1.6,1.2-3.5,1.5c-1.8,0.3-3.5,0.8-3.5,3.2c0,2.1,1.5,2.9,3.4,2.9
			c1.4,0,2.7-0.5,3.6-1.6c0,1.1,0.6,1.6,1.4,1.6c0.5,0,0.9-0.1,1.2-0.3v-1.3c-0.2,0.1-0.4,0.1-0.5,0.1c-0.5,0-0.5-0.4-0.5-1.2V62.7z
			 M194.6,50.3V38.3c0-7-5.6-12.5-12.7-12.5c-7.1,0-12.7,5.5-12.7,12.5v12.1h4.9l0-12.1c0-4.4,3.5-8.1,7.8-8.1
			c4.3,0,7.8,3.6,7.8,8.1v12.1H194.6z"/>
	</g>
	<g>
		<path d="M193.1,18.7c1.6,0,2.9,1.2,2.9,2.8c0,1.6-1.3,2.9-2.9,2.9c-1.6,0-2.9-1.2-2.9-2.9C190.2,19.9,191.6,18.7,193.1,18.7z
			 M193.1,23.9c1.3,0,2.3-1.1,2.3-2.5c0-1.4-1-2.4-2.3-2.4c-1.3,0-2.4,1.1-2.4,2.4C190.8,22.9,191.8,23.9,193.1,23.9z M192,19.8h1.3
			c0.8,0,1.2,0.3,1.2,1c0,0.6-0.4,0.9-0.9,0.9l1,1.5H194l-0.9-1.4h-0.6v1.4H192V19.8z M192.5,21.3h0.5c0.5,0,0.9,0,0.9-0.5
			c0-0.4-0.4-0.5-0.7-0.5h-0.7V21.3z"/>
	</g>
</g>
</svg>
