<svg xmlns="http://www.w3.org/2000/svg" viewBox="0 0 300 300">
  <defs>
    <style>
      .cls-1,.cls-2{fill:#fff}.cls-1,.cls-10,.cls-12,.cls-16,.cls-17,.cls-18,.cls-19,.cls-21,.cls-4,.cls-6,.cls-7,.cls-8{fill-rule:evenodd}.cls-3{fill:#5199e4}.cls-4{fill:#edb98a}.cls-5{mask:url(#mask)}.cls-6{fill-opacity:.1}.cls-7{fill:#ff5c5c}.cls-8{fill:#f4f4f4}.cls-9{mask:url(#mask-2-2)}.cls-10{fill-opacity:.16}.cls-11{fill-opacity:.6}.cls-12{fill-opacity:.7}.cls-13{mask:url(#mask-3)}.cls-14{mask:url(#mask-4-2)}.cls-15{fill:#ff4f6d}.cls-16{fill-opacity:.16}.cls-17{fill-opacity:.6}.cls-18{opacity:.17}.cls-19{fill:#724133}.cls-20{mask:url(#mask-5)}.cls-21{fill-opacity:.24}.cls-22{fill:#d8c856}.cls-23{fill:#e2d559}.cls-24{mask:url(#mask-6-3)}.cls-25{opacity:.1}.cls-26{fill:#ff17c5}
    </style>
    <mask id="mask" width="205.72" height="236.63" x="20.14" y="21.92" maskUnits="userSpaceOnUse">
      <g id="mask-2">
        <path id="path-1" d="M98.31 161.84a57.69 57.69 0 0 1-32.21-43 12.34 12.34 0 0 1-11-12.27V94.39a12.33 12.33 0 0 1 10.3-12.17v-2.7a57.6 57.6 0 0 1 115.2 0v2.7a12.33 12.33 0 0 1 10.29 12.17v12.16a12.34 12.34 0 0 1-11 12.27 57.69 57.69 0 0 1-32.21 43V180a78.55 78.55 0 0 1 78.17 78.55H20.14A78.55 78.55 0 0 1 98.31 180z" class="cls-1"/>
      </g>
    </mask>
    <mask id="mask-2-2" width="205.72" height="94.34" x="20.14" y="164.21" maskUnits="userSpaceOnUse">
      <g id="mask-4">
        <path id="path-3" d="M98.31 164.55v16.94a24.69 24.69 0 0 0 49.38 0v-16.94c18.61 2 32.91 7.36 32.91 21.34v1.47a78.57 78.57 0 0 1 45.31 71.19H20.14a78.57 78.57 0 0 1 45.31-71.19v-1.47c-.05-13.98 14.25-19.38 32.86-21.34z" class="cls-1"/>
      </g>
    </mask>
    <mask id="mask-3" width="38.3" height="28.92" x="103.76" y="118.95" maskUnits="userSpaceOnUse">
      <g id="mask-6">
        <path id="path-5" d="M103.76 131.61c1.08 9.15 9.24 16.26 19.14 16.26s18.12-7.15 19.15-16.35a2 2 0 0 0-1.87-2h-34.42a2.11 2.11 0 0 0-2 2.09z" class="cls-1"/>
      </g>
    </mask>
    <mask id="mask-4-2" width="38.3" height="31.82" x="103.76" y="129.56" maskUnits="userSpaceOnUse">
      <g id="mask-6-2" data-name="mask-6">
        <path id="path-5-2" d="M103.76 131.61c1.08 9.15 9.24 16.26 19.14 16.26s18.12-7.15 19.15-16.35a2 2 0 0 0-1.87-2h-34.42a2.11 2.11 0 0 0-2 2.09z" class="cls-1" data-name="path-5"/>
      </g>
    </mask>
    <mask id="mask-5" width="220.49" height="254.84" x="13.15" y="2.71" maskUnits="userSpaceOnUse">
      <g id="mask-8">
        <path id="path-7" d="M179.91 71.81c-3.41-1.76-8-3.42-10.53-5.56s-5.29-1.73-6.44-4.35l-2.61.88c-1.78-.52-10.8-3.43-12.29-4l-.57-1.05-1.71.62-9.36-.35c-2.7 0-14.08.22-16.71.42a28.93 28.93 0 0 1-3-2.6L115.31 59s-12.23 1.73-14.44 1.89L99.78 59 97 61.87c-4 .87-14.19 2.74-18.77 3.89-4 1-7.89 2.11-11.79 3.28a57.8 57.8 0 0 0-.93 10.34v30.55a57.46 57.46 0 0 0 32.84 51.93V180h-4.14a78.24 78.24 0 0 0-16.82 1.81l-.08.13-.22.35A104.74 104.74 0 0 1 60 199.72a2.2 2.2 0 0 1 .2.23 5.33 5.33 0 0 0-1 1.25c-.9 1.7-.23 4.65.2 6.49a13.72 13.72 0 0 0 1.51 3.75c3.28 5.71 11.43 8.39 20 7.1-2.59 2.06-7.74 3.71-11.24 3.83-4.74.16-10.55-1.58-14.63-3.48.62 3.49 2.76 5.45 4.75 8.34-4.9-.24-8.77-5.37-10.42-7.42a16.74 16.74 0 0 1-2.6-4.27c-2.25 4.37-3.52 16.14-2.4 19.43a62.29 62.29 0 0 1-6.2-3c-17.38-9.58-19.05-25.85-18.74-31.57.33-6 2.53-11.26 5.15-16.89 1.69-3.64 3.64-7.31 4.58-11.13.48-1.94.14-2.32-1.13-3.9-2.1-2.6-4.52-5-6.69-7.6a38.41 38.41 0 0 1-6.06-9.34 26.6 26.6 0 0 1-.67-18.92c3.25-9.78 16.13-19.56 21.78-26.28-5.85-17.32 2.82-36 11.4-45.83 7.86-9.07 18.4-57.51 76.78-57.8s63.31 45.44 66.73 53.37c4 9.22 13.86 24.88 16.31 34.58a36 36 0 0 1 1.2 13.29c-.13 1-1.11 4.1-.49 4.71.88.87 3.79 1.76 5 2.44 2.28 1.25 4.59 2.47 6.79 3.81 5.71 3.5 9.37 9 11.68 14.4a22.36 22.36 0 0 1-1.09 19.85 29.83 29.83 0 0 1-10 11c-1.34.86-1.12.52-1.28 1.82a23 23 0 0 0 0 2.49c0 1.31-.1 2.62-.22 3.92a73.58 73.58 0 0 1-4.2 18.88c-1.45 3.83-3.25 7.68-6.7 10.64a29 29 0 0 1-11.14 5.36c-1.39.37-1.37.76-1.45 1.14a20.6 20.6 0 0 0 .14 3.63 62.64 62.64 0 0 0 2.16 7.46c2 6.48 5 12.87 6.32 19.51a22.57 22.57 0 0 1-.22 9.71 24.47 24.47 0 0 1-3.3 7.38c-1.72 2.64-6.76 6.82-11 5 5.66-2.56 5.91-8 4-9.54s-4.69-1.65-7.33-1.64a54.59 54.59 0 0 0-6.51.42c-4.74.56-10.19 2-14.93.92a40.72 40.72 0 0 1-7.67-2.86 22.76 22.76 0 0 1-3.21-1.83C136.1 229 140 206.66 155.3 180.13c-1.54-.09-2.06-.13-3.63-.13h-4.1v-18.14a57.47 57.47 0 0 0 32.83-51.93V79.38a58.93 58.93 0 0 0-.49-7.57z" class="cls-1"/>
      </g>
    </mask>
    <mask id="mask-6-3" width="113.14" height="198.44" x="149.09" y="98.01" maskUnits="userSpaceOnUse">
      <path d="M229.38 296.44h-45.27c-18.14 0-32.85-32.68-32.85-50.83v-18.9a32.86 32.86 0 0 1 32.85-32.86h45.27a32.86 32.86 0 0 1 32.85 32.86v18.9c0 18.15-14.71 50.83-32.85 50.83z" class="cls-2"/>
    </mask>
  </defs>
  <g id="Layer_3" data-name="Layer 3">
    <ellipse id="circle" cx="150" cy="150" class="cls-3" rx="142.7" ry="134.6"/>
    <g id="ali">
      <g id="Body">
        <path id="Outline" d="M98.31 161.84a57.69 57.69 0 0 1-32.21-43 12.34 12.34 0 0 1-11-12.27V94.39a12.33 12.33 0 0 1 10.3-12.17v-2.7a57.6 57.6 0 0 1 115.2 0v2.7a12.33 12.33 0 0 1 10.29 12.17v12.16a12.34 12.34 0 0 1-11 12.27 57.69 57.69 0 0 1-32.21 43V180a78.55 78.55 0 0 1 78.17 78.55H20.14A78.55 78.55 0 0 1 98.31 180z" class="cls-4"/>
        <g class="cls-5">
          <path id="Neck-Shadow" d="M180.6 87.28v30.27a57.6 57.6 0 0 1-115.2 0v-7.76a57.6 57.6 0 0 0 115.2 0z" class="cls-6"/>
        </g>
      </g>
      <g id="Hoodie">
        <path id="path-3-2" d="M98.31 165.69v16.94a24.69 24.69 0 0 0 49.38 0v-16.94c18.61 2 32.91 7.36 32.91 21.34v1.47a78.57 78.57 0 0 1 45.31 71.19s-7.33 38.1-99.86 38.1-105.86-38.1-105.86-38.1a78.57 78.57 0 0 1 45.26-71.19v-1.47c-.05-13.98 14.25-19.38 32.86-21.34z" class="cls-7" data-name="path-3"/>
        <path id="Straps" d="M92.14 211.77v46.74a3.19 3.19 0 0 1-3.49 2.91 3.39 3.39 0 0 1-3.65-2.87v-50.23a68.18 68.18 0 0 0 7.13 3.45s.01-.02.01 0zm68.92-3.45V247a3.76 3.76 0 0 1-3.44 3.83 3.6 3.6 0 0 1-3.76-3.6v-35.46a68.18 68.18 0 0 0 7.13-3.45h.07z" class="cls-8"/>
        <g class="cls-9">
          <path id="Shadow" d="M123 217.82c-34.42 0-68.39-15.5-68.39-34.62 0-10.73 10.71-16.23 26.19-19-9.35 3.25-15.39 8.71-15.39 17.8C65.4 201.78 94 217.81 123 217.82zm42.22-53.61c15.48 2.76 26.19 8.26 26.19 19 0 19.12-34 34.61-68.39 34.62 29 0 57.59-16 57.59-35.81-.01-9.1-6.05-14.56-15.4-17.81z" class="cls-10"/>
        </g>
      </g>
      <g id="Face-Resting">
        <path id="Mouth" d="M108.51 132.58c0 5.24 6.32 8.78 14.36 8.78s14.37-3.54 14.37-8.78a2 2 0 0 0-2.05-2 2 2 0 0 0-2.05 2c-1.28 2.86-4.43 4.6-10.27 4.88-5.83-.28-9-2-10.26-4.88a2 2 0 0 0-2-2 2 2 0 0 0-2.1 2z" class="cls-11"/>
        <path id="Nose" d="M110.82 113.17c0 4.34 5.59 7.85 12.47 7.85 6.89 0 12.47-3.51 12.47-7.85" class="cls-10"/>
        <ellipse id="Eye" cx="96.2" cy="95.76" class="cls-11" rx="6.16" ry="5.86"/>
        <ellipse cx="149.59" cy="95.76" class="cls-11" rx="6.16" ry="5.86"/>
        <g id="I-Browse">
          <path id="Eyebrow" d="M81.45 83.37c4-5.41 15-8.44 24.53-6.21a2.06 2.06 0 0 0 2.48-1.44 2 2 0 0 0-1.5-2.38c-11-2.58-23.79.93-28.86 7.75a1.91 1.91 0 0 0 .48 2.74 2.12 2.12 0 0 0 2.87-.46z" class="cls-11"/>
          <path d="M164.34 83.37c-4-5.41-15-8.44-24.53-6.21a2.06 2.06 0 0 1-2.48-1.44 2 2 0 0 1 1.5-2.38c11-2.58 23.79.93 28.86 7.75a1.91 1.91 0 0 1-.48 2.74 2.12 2.12 0 0 1-2.87-.46z" class="cls-11"/>
        </g>
      </g>
      <g id="Face-Smile">
        <path id="Mouth-2" d="M103.76 131.61c1.08 9.15 9.24 16.26 19.14 16.26s18.12-7.15 19.15-16.35a2 2 0 0 0-1.87-2h-34.42a2.11 2.11 0 0 0-2 2.09z" class="cls-12" data-name="Mouth"/>
        <g class="cls-13">
          <path id="Teeth" d="M114.54 119h17.74a6.84 6.84 0 0 1 6.84 6.84v1.75a6.84 6.84 0 0 1-6.84 6.84h-17.74a6.84 6.84 0 0 1-6.84-6.84v-1.75a6.84 6.84 0 0 1 6.84-6.84z" class="cls-1"/>
        </g>
        <g class="cls-14">
          <g id="Tongue">
            <ellipse cx="117.84" cy="150.77" class="cls-15" rx="11.15" ry="10.61"/>
            <ellipse cx="127.97" cy="150.77" class="cls-15" rx="11.15" ry="10.61"/>
          </g>
        </g>
        <path id="Nose-2" d="M111 113.28c0 4.29 5.52 7.76 12.32 7.76 6.8 0 12.31-3.47 12.31-7.76" class="cls-16" data-name="Nose"/>
        <path id="Squint" d="M82.52 96.52a12.82 12.82 0 0 1 22 0c.56 1.08-.23 2-1 1.31a16.62 16.62 0 0 0-19.62-.19c-.98.67-1.9-.05-1.38-1.12z" class="cls-17"/>
        <path d="M141.34 96.52a12.82 12.82 0 0 1 22 0c.56 1.08-.24 2-1 1.31a16.62 16.62 0 0 0-19.62-.19c-.99.67-1.93-.05-1.38-1.12z" class="cls-17"/>
        <path id="Eye-Browse-Reddit" d="M89.22 68.74l.93-.39c5.31-2 13.37-1.17 18.3 1.09.57.27.18 1.12-.41 1.08-15.13-1.12-25.32 7.89-28.78 14-.1.18-.41.2-.48 0-2.34-5.13 4.51-13.52 10.44-15.78z" class="cls-17"/>
        <path d="M156.63 68.74l-.93-.39c-5.31-2-13.37-1.17-18.3 1.09-.57.27-.18 1.12.41 1.08 15.13-1.12 25.31 7.89 28.77 14 .11.18.42.2.49 0 2.34-5.13-4.51-13.52-10.44-15.78z" class="cls-17"/>
      </g>
      <g id="Head">
        <path id="Shadow-2" d="M68.19 48l29-19.16 35.5-8.12 33.91 13.4 17.07 31s-2 11.21-2.09 10.68c-15.14-3.25-30.42-7.69-36.73-31.32-7.49 15.6-81.07 28.74-81.07 28.74z" class="cls-18" data-name="Shadow"/>
        <path id="Hair" d="M179.91 71.81c-15.15-3.25-27.75-9.78-34-33.41-10.17 15.08-43.48 22.51-79.5 30.6a57.8 57.8 0 0 0-.93 10.34v30.55a57.46 57.46 0 0 0 32.84 51.93V180h-4.11a78.24 78.24 0 0 0-16.82 1.81l-.08.13-.22.35A104.74 104.74 0 0 1 60 199.72a2.2 2.2 0 0 1 .2.23 5.33 5.33 0 0 0-1 1.25c-.9 1.7-.23 4.65.2 6.49a13.72 13.72 0 0 0 1.51 3.75c3.28 5.71 11.43 8.39 20 7.1-2.59 2.06-7.74 3.71-11.24 3.83-4.74.16-10.55-1.58-14.63-3.48.62 3.49 2.76 5.45 4.75 8.34-4.9-.24-8.77-5.37-10.42-7.42a16.74 16.74 0 0 1-2.6-4.27c-2.25 4.37-3.52 16.14-2.4 19.43a62.29 62.29 0 0 1-6.2-3c-17.38-9.58-19.05-25.85-18.74-31.57.33-6 2.53-11.26 5.15-16.89 1.69-3.64 3.64-7.31 4.58-11.13.48-1.94.14-2.32-1.13-3.9-2.1-2.6-4.52-5-6.69-7.6a38.41 38.41 0 0 1-6.06-9.34 26.6 26.6 0 0 1-.67-18.92c3.25-9.78 16.13-19.56 21.78-26.28-5.85-17.32 2.82-36 11.4-45.83 7.86-9.07 18.4-57.51 76.78-57.8s63.31 45.44 66.73 53.37c4 9.22 13.86 24.88 16.31 34.58a36 36 0 0 1 1.2 13.29c-.13 1-1.11 4.1-.49 4.71.88.87 3.79 1.76 5 2.44 2.28 1.25 4.59 2.47 6.79 3.81 5.71 3.5 9.37 9 11.68 14.4a22.36 22.36 0 0 1-1.09 19.85 29.83 29.83 0 0 1-10 11c-1.34.86-1.12.52-1.28 1.82a23 23 0 0 0 0 2.49c0 1.31-.1 2.62-.22 3.92a73.58 73.58 0 0 1-4.2 18.88c-1.45 3.83-3.25 7.68-6.7 10.64a29 29 0 0 1-11.14 5.36c-1.39.37-1.37.76-1.45 1.14a20.6 20.6 0 0 0 .14 3.63 62.64 62.64 0 0 0 2.16 7.46c2 6.48 5 12.87 6.32 19.51a22.57 22.57 0 0 1-.22 9.71 24.47 24.47 0 0 1-3.3 7.38c-1.72 2.64-6.76 6.82-11 5 5.66-2.56 5.91-8 4-9.54s-4.69-1.65-7.33-1.64a54.59 54.59 0 0 0-6.51.42c-4.74.56-10.19 2-14.93.92a40.72 40.72 0 0 1-7.67-2.86 22.76 22.76 0 0 1-3.21-1.83C136.1 229 140 206.66 155.3 180.13c-1.54-.09-2.06-.13-3.63-.13h-4.1v-18.14a57.47 57.47 0 0 0 32.83-51.93V79.38a58.93 58.93 0 0 0-.49-7.57z" class="cls-19"/>
        <g class="cls-20">
          <path id="Hair_Shadow" d="M77.47 181.41c7.26-9.41-.55-35.56-6.73-45.25q25.92-11.16 102.35 4.12-7.38 12.89-6 23a88.65 88.65 0 0 0-11.54 16.86l-35.78 8.35q-33.93 3.85-42.3-7.08z" class="cls-21" data-name="Hair Shadow"/>
        </g>
        <path id="Lights" d="M67.58 152a1.88 1.88 0 0 0-.42-.64zm-23.22-48.26a81.26 81.26 0 0 0 4.57 17.46 75.75 75.75 0 0 0 8 16.19c3.25 4.73 7.11 9.14 10.22 13.93-.82-.92-2.54-2-3.2-2.7-1.08-1.08-2.09-2.19-3.06-3.35-2-2.37-3.73-4.85-5.43-7.35a83.39 83.39 0 0 1-8-15.6c-4.25-10.48-8.52-23.19-4.78-34.26-.29.71.47 2.41.59 3.2.21 1.37.39 2.75.49 4.13.24 2.79.24 5.61.6 8.35zm12.77 43.32c-1.4-1.68-4-3-5.59-4.62a24.92 24.92 0 0 1-3.6-4.79 29.38 29.38 0 0 1-4.32-12 9.25 9.25 0 0 0 1.2 1.8c.63 1 1.25 2 1.84 3 1.12 2 2.06 4 3.2 6a120.31 120.31 0 0 0 7.27 10.61zM61.92 165a24.82 24.82 0 0 1 2.7 5.92c.31 1.09.57 2.2.79 3.31a18.74 18.74 0 0 0 .26 2.2c-2.27-4.16-4-8.57-6.71-12.55a68.2 68.2 0 0 0-9.69-10.94c-3.79-3.58-7.61-7-9.64-11.49a23.58 23.58 0 0 1-2-12.18c0 1.86 1.8 4.49 2.42 6.28a45.76 45.76 0 0 0 2.81 7.28c2.18 4 6.12 7 9.4 10.36A65 65 0 0 1 61.92 165zm-14.67-9a22.08 22.08 0 0 1 2.88 3.18 20.61 20.61 0 0 1 2.2 3.93c.52 1.18.75 3.38 1.57 4.36-2.65-3-5.37-5.93-7.2-9.4-.62-1.18-1.59-2.93-2.3-4.36.24.5 2.31 1.73 2.85 2.21zm-10.6 6.16c2.91 4.12 6.72 7.84 9.21 12.15a34.88 34.88 0 0 1 4.44 16 42 42 0 0 1-.26 7.92 35.32 35.32 0 0 1-.89 4.18 27.05 27.05 0 0 0-1 2.69c-.3-10.22 1.49-20.44-4.14-30-2.66-4.51-6.75-8.35-9.93-12.62a106.42 106.42 0 0 1-7.91-11.71c1.39 1.66 3.9 3 5.45 4.62a58.28 58.28 0 0 1 5.03 6.69zm11.5 43a.88.88 0 0 0 0 .49v-.59zm-9.8-21.68c0 .48.84 1.48 1.07 2a15.51 15.51 0 0 1 1.19 3.52 13.46 13.46 0 0 1-1.1 7.34 40.69 40.69 0 0 1-8.83 12.9c1.37-1.7 1.91-4.45 2.87-6.35s2.06-3.85 2.93-5.83c1.97-4.46 1.79-9.06 1.87-13.68zm-8.86 18.15c.41-.54.19-3.09.41-3.76a12.82 12.82 0 0 1 1.9-3.52c-.43.67.2 2.39 0 3.27a9.12 9.12 0 0 1-2.31 3.91zM88.68 28.46a1.07 1.07 0 0 0-.25.29zM73.53 49.39c1.46-1.21 2.24-4.06 3.24-5.6 1.16-1.77 2.48-3.47 3.74-5.2a84.63 84.63 0 0 1 7.92-9.88c-.63.91-1.2 3.66-1.55 4.38a33.14 33.14 0 0 1-3.31 5.43 61.85 61.85 0 0 1-10.04 10.87zm-.53-9.9a11.44 11.44 0 0 1 3.27-3.31c-.59.49-.86 2.5-1.26 3.18a15.24 15.24 0 0 1-3.3 3.64c.68-.55.79-2.7 1.29-3.51zm122.3 95v.3c0-1.48-.7-3.1-.78-4.63a13.2 13.2 0 0 1 1.11-6.19c1.79-4 5.14-7 9.41-9.35-1.18.65-2.33 3.11-3.08 4.14-1.13 1.54-2.34 3.09-3.3 4.7-2.05 3.41-2.66 7.44-3.38 11.08zm-1.54-21a22.26 22.26 0 0 1-1 3.51 23.2 23.2 0 0 1-1.83 3.62c-.44.73-2 2.25-2 3.06-.08-4.75 1.78-9 5.31-12.86a9.56 9.56 0 0 0-.5 2.73zm-.82 34.17a12.14 12.14 0 0 1 9.66 3.44 15.16 15.16 0 0 1 3.15 4c.56 1.1.56 2.9 1.31 3.8a49.5 49.5 0 0 0-6.49-6.27c-1.57-1.34-4.83-4.95-7.65-4.91zm-.8 10.06c-.2-.06-2-.54-2.4-.31a8 8 0 0 1 2-.65c4.39-.56 9.74 3 10.33 6.51-.49-1.19-3.11-2.17-4.29-2.76a49.86 49.86 0 0 0-5.66-2.73zm1.85 7.58c.77.18 2.38 1.14 3.13 1.13a34.89 34.89 0 0 1-8.61-.89 16.38 16.38 0 0 0 1.86-.45 10 10 0 0 1 3.63.27zm-11.66 13.5c1.06 0 2.81-1 3.94-1.25 8.53-1.62 16.85 1.63 20.69 7.89-1-1.17-3.55-2.25-5-3a23.55 23.55 0 0 0-5.84-2.23 51.22 51.22 0 0 0-13.79-1.41zm-1 12.06a32.4 32.4 0 0 1 8.8-2 25.19 25.19 0 0 1 8.63 1.14c-.9-.24-3.07.32-4 .42-1.33.14-2.66.29-4 .4-1.63.15-3.28.22-4.92.22-1.17.03-3.41-.49-4.49-.18zm-10.74 16.69c.26 3.85 2.62 7.21 6.09 9.77 3.67 2.72 8.59 4 11.26 7.6a9.2 9.2 0 0 1 1.89 5.91 14.34 14.34 0 0 1-.66 3.2 12.7 12.7 0 0 0-.92 2.48c0-3.77.08-8.16-2.71-11.32s-7.68-4.3-11.11-6.9-5.91-5.91-6.49-9.69c-.46-3-.23-8.36 3.11-10.43-.68.38-.54 2.3-.56 2.84-.04 2.16-.02 4.38.12 6.54zm-2.52 14.8c.41.5 2.64 1.12 3.3 1.46a20 20 0 0 1 4.12 2.79 12.26 12.26 0 0 1 4 8.24c0-.7-1.69-2.38-2.16-3a36.15 36.15 0 0 0-2.59-2.83c-2.17-2.22-4.46-4.4-6.65-6.66zm53.53-86.2a11.24 11.24 0 0 1 2.74 3.6 11.64 11.64 0 0 1 .6 9.7c.21-.69-.41-2.12-.58-2.81a29.86 29.86 0 0 0-1.6-4.41c-1.22-2.83-2.19-5.48-4.3-7.95.54.64 2.41 1.26 3.16 1.87zM162.45 27.72c0 .32 1 1.25 1.16 1.6a7.53 7.53 0 0 1 1.09 2.77 7.18 7.18 0 0 1-.39 3.27c-.21.64-1.22 1.87-1.22 2.45-.16-3.39-.95-6.65-.64-10.09zm7.84 6.61a5.31 5.31 0 0 1-1 3.63 16.72 16.72 0 0 0-.48-2.67 28.45 28.45 0 0 1 .15-3.45c.04.62 1.22 1.71 1.33 2.49zm-62.35 1.53a35.33 35.33 0 0 1-4.26 4.14c-1.05.86-3.06 1.83-3.86 2.82a90.77 90.77 0 0 1 12.62-15.16c-.73.9-.93 2.83-1.46 3.88a23 23 0 0 1-3.04 4.32zm6 2.4c.58-.33 1.13-1.93 1.58-2.47a16.82 16.82 0 0 1 2.64-2.55c-.21.21-.62 2-.84 2.33a8.74 8.74 0 0 1-3.32 2.69z" class="cls-21"/>
      </g>
    </g>
    <g id="tink">
      <path id="body-2" d="M229.38 296.44h-45.27c-18.14 0-32.85-32.68-32.85-50.83v-18.9a32.86 32.86 0 0 1 32.85-32.86h45.27a32.86 32.86 0 0 1 32.85 32.86v18.9c0 18.15-14.71 50.83-32.85 50.83z" class="cls-22" data-name="body"/>
      <g id="head-2" data-name="head">
        <g id="ears">
          <g id="right-ear">
            <path d="M211.09 120.52c-6.75 20.09 29.14 32.16 35.9 12.06s-.37-41-5.72-42.42-23.43 10.26-30.18 30.36z" class="cls-23"/>
            <path d="M218.16 119c-4.54 13.5 19.58 21.6 24.11 8.1s-.24-27.53-3.84-28.5-15.74 6.89-20.27 20.4z" class="cls-22"/>
          </g>
          <g id="left-ear">
            <path d="M204.29 118.23c6.75 20.1-29.15 32.16-35.9 12.06s.36-41 5.72-42.42 23.42 10.26 30.18 30.36z" class="cls-23"/>
            <path d="M195.79 116.4c4.09 12.17-17.65 19.48-21.74 7.31s.23-24.82 3.47-25.69 14.18 6.21 18.27 18.38z" class="cls-22"/>
          </g>
        </g>
        <g class="cls-24">
          <path id="shadow-3" d="M218.16 218c1.41.45 1.33 2.67 1.33 2.67s5.13-.85 11.44-6.09c2.43.51 1.63 3.57 1.63 3.57s5.21-3.94 7.72-8.91c2.7-.17 3.56 3.71 3.56 3.71s4-4.52 5.94-13.66a4.81 4.81 0 0 1 3.86 1.93 39.77 39.77 0 0 0 1-11.58 15.49 15.49 0 0 1 6.09 1.78s-.31-8.32-4.45-14.11c1.49-2.55 4.9-3.41 4.9-3.41a29 29 0 0 0-7.1-10.52c2.17-1.69 4-5.62 4-5.62a7.09 7.09 0 0 1-3.87-1.15c5.4-8.63 5-11.75 5-11.75s-9.62-.66-10.95-5.11c4.78-1.87 12.17-2.08 12.17-2.08s-5.87-9.57-17.67-11c3.47-2.43 8.76-3.27 8.76-3.27a30.84 30.84 0 0 0-15.14-5.79 35.76 35.76 0 0 1 4.6-6.53s-7.5-3.67-18.86-1.63c.78-4.45 3.12-6.24 3.12-6.24a42.29 42.29 0 0 0-14.24 1.72 28.64 28.64 0 0 0-5.8-6.93c.1 1.95 1.23 3.28-2.17 7-5-4-8.86-3.75-8.86-3.75a12.66 12.66 0 0 1-1.08 7.26 41.21 41.21 0 0 0-11.88-4.12s3.53 3.53 4.32 7.46a30.29 30.29 0 0 0-11.39-1.85s3.24 3.93 3.16 7.58c-9.93 1.06-14.44 4-14.44 4a27.48 27.48 0 0 1 8.06 5.06 52.22 52.22 0 0 0-17.67 11s7.81-.55 12.17 2.08c-1.52 4.35-8.79 3.64-8.79 3.64s-.7 2.3 3 7.08c-8.33 3.9-10.56 8.43-10.56 8.43s6-1 10.54 2.38c-6.54 6.72-7.13 12.62-7.13 12.62s2.54-1.12 4.9 3.41a34 34 0 0 0-4.38 14.11 13.76 13.76 0 0 1 6.09-1.78 27.92 27.92 0 0 0 1 11.58s1.3-2.66 3.86-1.93a25.34 25.34 0 0 0 5.94 13.66 6.12 6.12 0 0 1 3.56-3.71 23.86 23.86 0 0 0 7.72 8.91 6 6 0 0 1 1.63-3.57 24.29 24.29 0 0 0 11.44 6.09 9.79 9.79 0 0 1 1.33-2.67c2.84.2 10.77.57 9.8 6.13 4.29-.59 5.92-5.48 12.79-6.1z" class="cls-25" data-name="shadow"/>
        </g>
        <path id="head-3" d="M217.5 215.09c1.34.43 1.27 2.54 1.27 2.54s4.87-.81 10.85-5.78c2.31.48 1.55 3.38 1.55 3.38s5-3.74 7.33-8.46c2.57-.15 3.39 3.53 3.39 3.53s3.82-4.29 5.64-13a4.57 4.57 0 0 1 3.66 1.83 37.94 37.94 0 0 0 1-11 14.86 14.86 0 0 1 5.78 1.7s-.3-7.9-4.23-13.4c1.42-2.42 4.65-3.24 4.65-3.24a27.54 27.54 0 0 0-6.73-10c2-1.6 3.8-5.33 3.8-5.33a6.67 6.67 0 0 1-3.68-1.1c5.13-8.18 4.75-11.15 4.75-11.15s-9.14-.62-10.4-4.85c4.54-1.77 11.56-2 11.56-2s-5.58-9.08-16.78-10.43c3.29-2.3 8.32-3.1 8.32-3.1a29.25 29.25 0 0 0-14.38-5.5 33.77 33.77 0 0 1 4.37-6.2s-7.13-3.49-17.91-1.55c.74-4.22 3-5.92 3-5.92a40.31 40.31 0 0 0-13.59 1.65 27.08 27.08 0 0 0-5.47-6.58c.1 1.86 1.17 3.12-2.06 6.67-4.79-3.74-8.42-3.56-8.42-3.56a12 12 0 0 1-1 6.9 39.32 39.32 0 0 0-11.28-3.92s3.36 3.36 4.1 7.09a28.55 28.55 0 0 0-10.81-1.77s3.08 3.72 3 7.19c-9.43 1-13.71 3.8-13.71 3.8a25.83 25.83 0 0 1 7.65 4.8 49.53 49.53 0 0 0-16.78 10.43s7.42-.52 11.56 2c-1.45 4.13-8.34 3.45-8.34 3.45s-.67 2.19 2.86 6.73c-7.9 3.7-10 8-10 8s5.7-.93 10 2.26c-6.2 6.38-6.76 12-6.76 12s2.41-1.06 4.65 3.24a32.27 32.27 0 0 0-4.23 13.4 13.18 13.18 0 0 1 5.78-1.7 26.57 26.57 0 0 0 1 11s1.23-2.53 3.66-1.83a24.11 24.11 0 0 0 5.64 13 5.84 5.84 0 0 1 3.38-3.53 22.64 22.64 0 0 0 7.33 8.46 5.74 5.74 0 0 1 1.56-3.38 23.08 23.08 0 0 0 10.85 5.78 9.13 9.13 0 0 1 1.27-2.54c2.69.19 10.22.55 9.3 5.82 3.98-.57 5.55-5.21 12.05-5.83z" class="cls-23" data-name="head"/>
        <g id="eyes">
          <circle cx="185.27" cy="156.15" r="5.47"/>
          <circle cx="228.01" cy="156.15" r="5.47"/>
        </g>
        <path id="nose-3" d="M196 176a11.19 11.19 0 0 0 22.37 0" data-name="nose"/>
        <g id="mouth-3" data-name="mouth">
          <rect id="inside" width="29.32" height="6.81" x="191.73" y="198.62" rx="2.5"/>
          <path id="tongue-2" d="M197.79 203a8.28 8.28 0 0 0-.1 1.23v1.88a9.07 9.07 0 0 0 9.07 9.07 9.07 9.07 0 0 0 9.07-9.07v-1.88a9.89 9.89 0 0 0-.09-1.23s-1.14-2-4.57-2-4.47 2-4.47 2-.64-1.92-4.47-1.92-4.44 1.92-4.44 1.92z" class="cls-26" data-name="tongue"/>
          <path id="teeth-2" d="M196.33 198.62c.24 1.51.63 2.35 1 2.38.6 0 2.56-1.47 2.56-1.47H213s2 1.51 2.56 1.47c.37 0 .76-.87 1-2.38z" class="cls-2" data-name="teeth"/>
        </g>
      </g>
      <path id="tail" d="M252 206.74c11.09-12 12.77-31.52 6-57.32 9.92 3.52 14.37 9.67 14.37 9.67a2.43 2.43 0 0 0-.91 0 24.88 24.88 0 0 1 3.55 5.39l-1.08-.1a20.86 20.86 0 0 1 4 7.4 4.78 4.78 0 0 0-1.2-.31 47.34 47.34 0 0 1 2.5 10.4 2.27 2.27 0 0 0-1.74-1 94.66 94.66 0 0 1 2.05 15.28s-2.23-3.26-3.76-4c1.49 7.93 2 13 2 13s-2.27-5.57-4.85-6.31c.15 9-.29 14.07-.29 14.07s-3.79-6.92-5.07-7.93c-.44 4.42-1.36 8.9-1.36 8.9s-2.13-4.69-3.15-5.72a6.69 6.69 0 0 1-.67 3.08L261 209c-1.79.48-6 1.31-6 1.31a10.33 10.33 0 0 1-3-3.57z" class="cls-22"/>
    </g>
  </g>
</svg>
