<svg class="svg-hawaii" xmlns="http://www.w3.org/2000/svg" viewBox="0 0 300 300">
    <!-- <ellipse id="circle" cx="152.9" cy="152.4" class="st0" rx="142.7" ry="134.6" /> -->
    <g id="big-island">
        <path id="shadow"
            d="M271.6 136.9s2.1 12.7 1 15.5c-1.1 2.8-26.6 24.5-26.6 24.5l-3.9 1.1-3.2 3.9-9.1 1.1-6.3 7h-8.1l-4.2 3.9-12.6-2.8-9.8 3.2-13.7 12.3-6.3-.4-2.5 6-8.8 1.4-2.1 5.6-4.2 2.1-.7 3.2-2.8 1.1-.7 7.7-3.2 2.8-4.9 9.5-3.2.3-.4 2.8-8.4 6-1.8-4.2-20.7-11.9s-7.7-.3-8.8-2.4c-1.1-2.1-4.9-7-4.9-7s-6.3-1.9-6.5-19.3l187.4-73z"
            class="st1" />
        <path id="island"
            d="M99.4 60.8L99 48.5s-10.2-11.9-9.8-14.7c.4-2.8-2.1-6.7-2.1-6.7S85.4 10 90.6 9.3c5.3-.7 9.5-2.8 15.8 1.8 6.3 4.6 8.4 6 8.1 8.8 2.5 1.1 6.3.7 6.3.7s13 5.3 14.7 9.8c3.2 2.8 7.7.4 7.7.4l15.1 6.7 19.3 7.7 17.9 6.7 28.4 24.9s3.5 14.4 1.4 18.6c-.4 4.6-.4 5.6-.4 5.6s1.4 6.7 3.2.7c3.5-4.9 10.9-4.6 11.9-2.5 1.1 2.1 5.6 7 4.6 18.9 2.1 1.4 4.6 1.4 4.6 1.4l.7 3.9 3.5 2.8 1.1 2.1 17.5 8.8s.7 5.3-.4 8.1-26.6 24.5-26.6 24.5l-3.9 1.1-3.2 3.9-9.1 1.1-6.3 7h-8.1l-4.2 3.9-12.6-2.8-9.8 3.2-13.8 11.8-6.3-.4-2.5 6-8.8 1.4-2.1 5.6-4.2 2.1-.7 3.2-2.8 1.1-.7 7.7-3.2 2.8-4.9 9.5-3.2.3-.4 2.8-8.4 6-1.8-4.2-20.7-11.9s-7.7-.3-8.8-2.4c-1.1-2.1-4.9-7-4.9-7s-7.4-1-4.6-18.2c2.8-17.2 4.9-21.4 4.9-21.4s.4-13.3-2.8-16.1c-3.2-2.8-5.3-18.6-5.3-18.6L78 146s2.1-23.8-11.2-29.1c-1.4-4.2-4.2-8.8-4.2-8.8v-13S71 86.7 71 83.9c0-2.8 11.2-2.5 11.2-2.5l6.3-13.3c0 .1 8.1-10.4 10.9-7.3z"
            class="st2" />
        <g id="mauna-kea">
            <path
                d="M200.6 117.3l-6.7 4-4.6 5.3-8.4-2.1-1.4 7.8-8.9-2.2-3.9 5.7-13.5-4.1-4.1 5.9-11.3-6-11.5 4-8.3 10.7-.6 12.5 5.5 5.3-3.2 4.6 2.7 2.8-6.4 4.8 2.4 5.7-9.3 5.7 7.8 4.7-1.6 9.5-3.9 5.1-4.9 2.8-6.5 12.4 17.2-13.9 64.4-66.1z"
                class="st3" />
            <path
                d="M200.8 117l-20 25.4-13.5.8-22.1 7.8-1.4 24.3-27.3 34.2-13.6 9.7-3.7 3.4 7.3-.7 5.5-3.8.4 6 7.9-5.2 5.4-7.4 7.3 5.2 2.8-10.5 6.6-1.1 7.5-6.1 1-3.6 6.5-2.5.8-9.2 6.7 2.7.7-3.7 2.6-5 7.5-.7 1.6-6.8 9.7-.4 1.3-6.9 8.5-1 3.8-7.6 8.2-3.9-2.9-7.7 2.7-3.8-6.4-3.3 8.8-3.6-1.7-3.9-2.1-5.9h-4.7z"
                class="st4" />
            <path
                d="M133.6 145.5l4.9 2.7-21.8 12 22.6-11.3 4.9 2.8-.9 8.4-18.1 4.6 17.9-3.3-.7 11.8-3.3 4.5-23.7-1.2L138 179l-8.3 11.5-21.8-2.7 21.4 3.8-12.6 16.3-13.8 11.3 12.5-8.3-2.5 13.3 5.1-15 6.2-8.8 8.8 16.3-7.4-18 2.4-3.3 6.3-7.6 5.6 4.6 3.2 11.7-2.5-11.3 8.7 5.1-8.4-6.1-5.6-5.8 8.5-10.7 7.4 8.8-6.9-10.1.5-5.7 13 3.8 3.2 9.2-2.2-8.7 6.6.9-20.5-6.5 1.3-15.2 5-1.8 3.4 2.1 11.3 14.7-9.4-13.7 15.1 8.4-18.8-12 10.5-3.8 13 7.9 1.8 11.6-.6-11 14.6 2.9-14.7-4.2-12.1-7.9 2.8-1 13.5-.6 25.9 7-24.6-8.7 8.4-11.9 16.2 2.2-15.6-3 6.4-9-10.5 12.8-7-8.5 6.2 9.5-6.3 7.6-4.1.2-6.4-12.1 5 12.2-7.5.3-7.2 2.5-7-12.2 5.6 12.7-14.8 5.2-5.1-2.7-1.4-16 .2 15.4-3.9-2-6.3-9.3 5.1 9.4-11.8 1.8z"
                class="st5" />
        </g>
        <g id="mauna-loa">
            <path
                d="M169 54.5l-3.8 1-4-.5-7.8 1.8.1 2.9-6.3-1.9-4 2.1 2.7 7.4s-4.6 3.3-4.8 3.4-8.9 4.2-8.9 4.2l3.7 4.7-2.2 2.9-1 6.5-1.2 1.8 5.3 3.8 8-.3 3.7 5.6s10.6-19.2 10.9-19.2 16.3-5.7 16.4-6.2c.1-.5-2.2-16.6-2.2-16.6l-4.6-3.4z"
                class="st3" />
            <path
                d="M172.7 55.3l1.9 3.3 6.7 4.4 2.3-1.8 8.2 4.4 6.4-.4 7.1 5.3-4.4 4.1-5.7 2.4 6.4 8.1-7.4 2-7.8-2.4s1.9 7.7 1.6 8.2c-.3.5-2.4 1.9-2.4 1.9l-8.9-2.8-5.2 4.4-4.1 4.5s.4 6 0 6.2c-.4.3-5.4 2-6.1 1.2-.7-.8-8.5-2.6-9-3.2-.5-.5-4.4-5-4.4-5l4-4 5.1-15.7 11.4-2.5 5.6-5.2-1.3-17.4z"
                class="st4" />
            <path
                d="M167.4 79.5l2.1-1.9 16.7 12.2L170.3 77l4.1-3.5 3.7-.9 17.7 10.7-16.5-11 15.2-3.7-19.7 3.4-2.1-16.7.9 16.9-6.7 5.7-3.9-7.5-1.9-15.5.8 15.2L145.6 59l16.3 12.1 3.8 7.2-7.8.7-9-2 7.2 2.9-25.4 13 25.9-12.1-4.8 16.1 6.2-16 8.1-1.2-.1 8.6-8.1 15.9 9.2-15.6 3.1 4-3.1-5z"
                class="st6" />
        </g>
        <g id="kohala">
            <path
                d="M98.5 10.4l-.9 7.6 4.2 5.8 8 4.4 3.9 6.1 2.9-5.2-1.8 5.4 3 2.5 7.8 2 2.8 4 13.1-.1-12.6.6-1.6 7.6s.8-7.4.2-8c-.6-.6-2.8-3.4-2.8-3.4L121 39l-6.5 3.8 5-4.1-3.4-.6-5.1-5.7-1.8-3.1-8.1-4.9-4-6c-.2-.3-8.7-1.8-8.7-1.8l8.7.7 1.4-6.9z"
                class="st6" />
            <path d="M142.9 30.9l-4.1 3.7-4.5.9-2 3.3-2.8 2.6s2-4.2 2.6-4.9c.5-.7 5.9-4.8 5.9-4.8l4.9-.8z"
                class="st3" />
            <path d="M135.4 30.5l-2.9 3.6-.7 3.8 6.6-6.4z" class="st4" />
            <path d="M120.6 20.4l-1 3.7-1.7 1.1-5.8 1.7 2.6-2.9 3-3.7z" class="st3" />
            <path d="M114.2 19.5l.1 2.8-2.6 4.6 6-6.6zM128.9 24.6l-1.1 4.4.7 5.2v4.9l1.3-10.4 1.5-2.7z"
                class="st4" />
            <path d="M132.2 26.8l-2 3.5.1 4.7s-1.4 5.1-1.4 4.8c0-.3.4-5.2.5-5.7.1-.5-.4-4.6-.4-4.6l1.6-3.9 1.6 1.2z"
                class="st3" />
        </g>
        <g id="hualalai">
            <path d="M107.8 97.7h-8.4l-6.5-4-.6 6.7-6.3 1.7-2.3 6.6-5.3 2.1 3.8 1.5 6.9-1.6 6.6-1.8.9-6.8z"
                class="st3" />
            <path
                d="M107.8 97.8l-4.4 5.2 2.8 1.5-.1 4.6 3.7 5.8-7.3-1.4-3 3.7-5.2-.8-4.5 4.5-4.5 1.2v-7.9l-3.3-2 13.3-3.2 1.4-7z"
                class="st4" />
            <path
                d="M95.3 98.5l.5 4.1-1 5.9-13.1 3.8 7.1-1.2-4.4 13.4s6-13.4 6.4-13.5 5.3-1.4 5.3-1.4l.5-7 11.2-4.9-11.2 3.7-1.3-2.9z"
                class="st6" />
        </g>
    </g>
    <path id="pin-shadow"
        d="M257.1 148.6c-3.1 0-5.8 1.5-7.5 3.7l-29-15.4s-.7.1-1.1.8-.1 1.3-.1 1.3l29 15.4c-.5 1.1-.7 2.4-.7 3.7 0 5.2 4.2 9.4 9.4 9.4s9.4-4.2 9.4-9.4-4.1-9.5-9.4-9.5z"
        class="st7 pin-shadow" />
    <g id="pin" class="pin">
        <path id="pin-shaft" d="M235.8 84.4l-3.7-.9-12.8 55s0 .8 1.5 1.2c1.5.4 2.2-.3 2.2-.3l12.8-55z"
            class="st8" />
        <radialGradient id="pin-head-grad" cx="240.0771" cy="82.4175" r="14.4336"
            gradientTransform="matrix(1 0 0 .9806 0 1.5959)" gradientUnits="userSpaceOnUse">
            <stop offset="0" stop-color="#e80000" />
            <stop offset=".9989" stop-color="#8c0000" />
        </radialGradient>
        <circle id="pin-head" cx="234.6" cy="79.4" r="12.5" class="st9" />
    </g>
    <g id="waves">
        <path id="wave-8" d="M76.4 203.3l-.9 19.5 3.5 6.5 8.3 7.8 13.4 8.7-15.6-6.9-7.8-8.3-4.8-5.2z"
            class="st10" />
        <path id="wave-7" d="M65.8 221.7l-.4 5.6 6.3 6.3s-8-3.9-8.3-5 2.4-6.9 2.4-6.9z" class="st10" />
        <path id="wave-6"
            d="M193.5 200l-6.1 3.3-1.7 5-8.5 3.3-8.7 3.7-5.6 8s6.7-7.8 8.7-7.8c2 0 6.5-2.2 7.6-2.4s9.1-3.5 9.3-4.1c.2-.7 1.1-4.3 1.1-4.3l3.9-4.7z"
            class="st10" />
        <path id="wave-5" d="M197.2 209.1l-2 4.8-6.9 1.3-5 1.7 8.7-.8 5 .2z" class="st10" />
        <path id="wave-4" d="M60.6 87.3l-3 5.9s.9 6.7.9 7.6-.7 8-.7 8l5 8.7L55 109l1.3-8.3-1.5-7 1.3-4.6 4.5-1.8z"
            class="st10" />
        <path id="wave-3" d="M49.9 93.1l1.1 4.4-.6 7.8-1.6-7.6z" class="st10" />
        <path id="wave-2" d="M189.4 43l10.8 3.9 16.1 14.7L202 43.8z" class="st10" />
        <path id="wave-1" d="M200.6 34.7l7 5.2-.4-5.2z" class="st10" />
    </g>
</svg>