<svg xmlns="http://www.w3.org/2000/svg" id="icon" enable-background="new 0 0 300 300" viewBox="0 0 300 300">
  <style>
    .st0{fill-rule:evenodd;clip-rule:evenodd;fill:#5199e4}.st1{filter:url(#Adobe_OpacityMaskFilter)}.st2{fill-rule:evenodd;clip-rule:evenodd;fill:#fff}.st3{mask:url(#mask-4_1_)}.st4{fill-rule:evenodd;clip-rule:evenodd;fill:#edb98a}.st5{filter:url(#Adobe_OpacityMaskFilter_1_)}.st6,.st7{fill-rule:evenodd;clip-rule:evenodd}.st6{mask:url(#mask-6_2_);fill-opacity:.1}.st7{fill:#41e587}.st8{fill-opacity:.7}.st10,.st8,.st9{fill-rule:evenodd;clip-rule:evenodd}.st9{fill:#ff4f6d}.st10{fill-opacity:.16}.st11{fill-opacity:.6}.st12{fill-rule:evenodd;clip-rule:evenodd;fill:#4c332f}.st13{filter:url(#Adobe_OpacityMaskFilter_2_)}.st14{fill:#fff}.st15,.st16{fill-rule:evenodd;clip-rule:evenodd}.st15{mask:url(#glasses-lenses_1_);fill:url(#glasses-lenses_2_)}.st16{fill:#252c2f}
  </style>
  <ellipse id="circle" cx="150" cy="152.9" class="st0" rx="142.7" ry="134.6"/>
  <defs>
    <filter id="Adobe_OpacityMaskFilter" width="237.9" height="274.8" x="31.1" y="12.7" filterUnits="userSpaceOnUse">
      <feColorMatrix values="1 0 0 0 0 0 1 0 0 0 0 0 1 0 0 0 0 0 1 0"/>
    </filter>
  </defs>
  <mask id="mask-4_1_" width="237.9" height="274.8" x="31.1" y="12.7" maskUnits="userSpaceOnUse">
    <g class="st1">
      <path id="path-3_1_" d="M7.3 152.9H-7V-26.5h314v179.4h-14.3c0 74.3-63.9 134.6-142.7 134.6S7.3 227.3 7.3 152.9z" class="st2"/>
    </g>
  </mask>
  <g id="avatar" class="st3">
    <g id="body" transform="translate(38.060606 40.371429)">
      <path id="body_2_" d="M140.5 135.3v21h18.4c39.8 0 72 32.2 72 72v18.8H-7v-18.8c0-39.8 32.2-72 72-72h18.4v-21c-19.5-9.3-33.8-27.7-37.2-49.7-7.1-.8-12.7-6.8-12.7-14.2V57.3c0-7.1 5.1-12.9 11.9-14.1v-3.1c0-36.8 29.8-66.6 66.6-66.6s66.6 29.8 66.6 66.6v3.1c6.8 1.1 11.9 7 11.9 14.1v14.1c0 7.4-5.6 13.4-12.7 14.2-3.5 22-17.8 40.4-37.3 49.7z" class="st4"/>
      <defs>
        <filter id="Adobe_OpacityMaskFilter_1_" width="133.2" height="101.6" x="45.3" y="49.1" filterUnits="userSpaceOnUse">
          <feColorMatrix values="1 0 0 0 0 0 1 0 0 0 0 0 1 0 0 0 0 0 1 0"/>
        </filter>
      </defs>
      <mask id="mask-6_2_" width="133.2" height="101.6" x="45.3" y="49.1" maskUnits="userSpaceOnUse">
        <g class="st5">
          <path id="path-5_2_" d="M140.5 135.3v21h18.4c39.8 0 72 32.2 72 72v18.8H-7v-18.8c0-39.8 32.2-72 72-72h18.4v-21c-19.5-9.3-33.8-27.7-37.2-49.7-7.1-.8-12.7-6.8-12.7-14.2V57.3c0-7.1 5.1-12.9 11.9-14.1v-3.1c0-36.8 29.8-66.6 66.6-66.6s66.6 29.8 66.6 66.6v3.1c6.8 1.1 11.9 7 11.9 14.1v14.1c0 7.4-5.6 13.4-12.7 14.2-3.5 22-17.8 40.4-37.3 49.7z" class="st2"/>
        </g>
      </mask>
      <path id="shadow" d="M178.5 49.1v35c0 36.8-29.8 66.6-66.6 66.6s-66.6-29.8-66.6-66.6v-22 13c0 36.8 29.8 66.6 66.6 66.6s66.6-29.8 66.6-66.6v-26z" class="st6"/>
    </g>
    <g id="clothes">
      <path id="shirt" d="M111.3 197c-.3 1.3-.5 2.5-.5 3.9 0 13.3 17.8 24 39.8 24s39.8-10.8 39.8-24c0-1.3-.2-2.6-.5-3.9h7c39.8 0 72 32.2 72 72v18.5H31.1V269c0-39.8 32.2-72 72-72h8.2z" class="st7"/>
    </g>
    <g id="Face" transform="translate(90.393939 91.957143)">
      <path id="mouth" d="M37 48.7c1.3 10.6 10.8 18.8 22.4 18.8 11.6 0 21.2-8.3 22.4-18.9.1-.9-.9-2.3-2.2-2.3H39.4c-1.3 0-2.5 1.3-2.4 2.4z" class="st8"/>
      <path id="tongue" d="M74.4 62c-2.4-2.2-5.6-3.5-9.1-3.5-2.1 0-4.1.5-5.9 1.3-1.8-.9-3.8-1.3-5.9-1.3-3.5 0-6.8 1.3-9.1 3.5 4 3.4 9.3 5.4 15 5.4 5.8.1 11-2 15-5.4z" class="st9"/>
      <path id="teeth" d="M78.3 46.9v-.6H41.6v.6c0 2.8 2.2 5 5 5h26.7c2.8 0 5-2.3 5-5z" class="st2"/>
      <path id="nose" d="M45.4 27.4c0 5 6.4 9 14.4 9 7.9 0 14.4-4 14.4-9" class="st10"/>
      <path id="left-eyebrow" d="M11.6-7.2c4.6-6.2 17.4-9.7 28.4-7.1 1.3.3 2.6-.4 2.9-1.6.3-1.2-.5-2.4-1.7-2.7-12.7-3-27.5 1.1-33.4 8.9-.8 1-.5 2.4.6 3.1.9.7 2.4.4 3.2-.6z" class="st11"/>
      <path id="right-eyebrow" d="M107.4-7.2c-4.6-6.2-17.4-9.7-28.4-7.1-1.3.3-2.6-.4-2.9-1.6-.3-1.2.5-2.4 1.7-2.7 12.7-3 27.5 1.1 33.4 8.9.8 1 .5 2.4-.6 3.1-.9.7-2.4.4-3.2-.6z" class="st11"/>
    </g>
    <g id="Top">
      <path id="beard" d="M171 164c-3 2.6-6.2 3.7-10.2 2.9-.7-.1-3.5-5.1-10.5-5.1s-9.8 4.9-10.5 5.1c-4 .8-7.2-.3-10.2-2.9-5.6-4.8-10.3-11.5-7.5-18.7 1.5-3.8 3.8-7.9 8.2-9.1 4.6-1.3 11.1 0 15.8-.9 1.5-.3 3.2-.8 4.3-1.6 1.1.8 2.8 1.3 4.3 1.6 4.7.9 11.2-.4 15.8.9 4.3 1.2 6.7 5.4 8.2 9.1 2.6 7.3-2.1 13.9-7.7 18.7m46-80.7c-4.1 9.4-2.5 21.1-3.2 31-.6 8-2.4 20-10 25.2-3.9 2.6-10.9 7.1-16 5.9-3.5-.9-3.9-10.2-8.4-13.8-5.2-4-11.7-5.7-18.2-5.5-2.8.1-8.5.1-10.9 2.1-2.4-2-8.1-2-10.9-2.1-6.5-.3-13 1.5-18.2 5.5-4.6 3.5-5 12.9-8.4 13.8-5.1 1.2-12.1-3.2-16-5.9-7.6-5.2-9.4-17.2-10-25.2-.8-9.9.8-21.6-3.2-31-2 0-.7 18-.7 18v22.8c0 17.1 11.4 42.7 36.6 52.5 6.2 2.4 20.1 6.3 30.8 6.3s24.7-3.5 30.8-5.9c25.2-9.8 36.6-35.7 36.6-52.8v-22.8c-.1 0 1.2-18.1-.7-18.1" class="st12"/>
      <path id="hair" d="M82.3 83.4c.4 1.7 2 1.4 2.4 0-.5-1.7 3.9-32.2 15.4-40.4 3.4-2.2 18.6-12.3 36.1-13 4.6-.2 9.4 7.7 14.1 7.7 4 0 8-7.9 11.9-7.8 18.2.7 34.1 10.8 37.6 13.1 11.5 8.1 16 38.6 15.4 40.4.4 1.4 2 1.7 2.4 0 .9-11.5 0-71.5-67.7-70.7S81.4 71.9 82.3 83.4z" class="st12"/>
      <defs>
        <filter id="Adobe_OpacityMaskFilter_2_" width="120.8" height="37.3" x="89.5" y="79.9" filterUnits="userSpaceOnUse">
          <feColorMatrix values="1 0 0 0 0 0 1 0 0 0 0 0 1 0 0 0 0 0 1 0"/>
        </filter>
      </defs>
      <mask id="glasses-lenses_1_" width="120.8" height="37.3" x="89.5" y="79.9" maskUnits="userSpaceOnUse">
        <g class="st13">
          <path d="M169.1 84.9c-3 0-4.4.5-4.9 3.5-.5 3.1 0 6.5.6 9.5.9 4.6 2.4 9.1 5.9 12.4 1.9 1.8 4.1 3.2 6.5 4.1 1.3.5 2.6.9 4 1.2.4.1 3.8.5 1.7.3 4.8.5 10 .5 14-2.4 4.5-3.3 7.5-8.5 8.8-13.6.8-3 2.4-10.3-.6-12.7-3.4-2.7-36-2.3-36-2.3zM131.1 84.9c3 0 4.4.5 4.9 3.5.5 3.1 0 6.5-.6 9.5-.9 4.6-2.4 9.1-5.9 12.4-1.9 1.8-4.1 3.2-6.5 4.1-1.3.5-2.6.9-4 1.2-.4.1-3.8.5-1.7.3-4.8.5-10 .5-14-2.4-4.5-3.3-7.5-8.5-8.8-13.6-.8-3-2.4-10.3.6-12.7 3.4-2.7 36-2.3 36-2.3z" class="st14"/>
        </g>
      </mask>
      <radialGradient id="glasses-lenses_2_" cx="149.9285" cy="98.5471" r="70.731" fx="150.4352" fy="80.7493" gradientUnits="userSpaceOnUse">
        <stop offset=".01782608" stop-color="#c22aff"/>
        <stop offset=".1065" stop-color="#b635ff"/>
        <stop offset=".2663" stop-color="#9754ff"/>
        <stop offset=".4772" stop-color="#6485ff"/>
        <stop offset=".6722" stop-color="#2fb8ff"/>
      </radialGradient>
      <path id="glasses-lenses" d="M89.5 79.9h120.8v37.3H89.5z" class="st15"/>
      <path id="glasses-frames" d="M221.9 85.4c-3.3-1.4-7.1-1.7-10.7-1.8-3-4.1-7-4.9-12.5-5.1L171 78c-6.2-.2-11.6 0-13.1 5.2-2.6-.9-5.5-1.4-7.7-1.4s-5.1.5-7.6 1.4c-1.6-5.2-6.9-5.4-13.1-5.2l-27.7.5c-5.5.2-9.5 1-12.5 5.1-3.6.2-7.4.4-10.7 1.8-4 1.8-4.7 5.8.4 6.3 2.3.2 4.6-.2 6.8-.5.1 0 .3 0 .4-.1-1.3 10.7 7.4 23.6 16.9 27.5 13.1 5.4 27.7-.6 34.6-11.3 3.1-4.9 4.9-11.9 5.3-17.9 1-.4 1.9-1 2.8-1.5 2.6-1.2 6.5-1.1 8.9 0 .9.4 1.8 1 2.8 1.5.4 6 2.2 13 5.3 17.9 6.9 10.8 21.5 16.7 34.6 11.3 9.5-3.9 18.2-16.8 16.9-27.5.1 0 .3 0 .4.1 2.3.4 4.5.8 6.8.5 5-.6 4.4-4.6.4-6.3zm-87.6 12.7c-.9 4.3-2.3 8.4-5.6 11.5-1.7 1.6-3.9 2.9-6.1 3.8-1.2.5-2.5.8-3.7 1.1-.3.1-2.7.4-2.1.3.2 0 .4 0 .5-.1-.3 0-.5 0-.5.1-4.4.4-9.1.3-12.7-2.3-4.2-3-7.1-7.9-8.3-12.6-.7-2.8-2.3-9.5.5-11.8 3.3-2.6 34.1-2.1 34.1-2.1 2.8 0 4.2.5 4.6 3.3.3 2.9-.1 6.1-.7 8.8zm70.3 1.8c-1.3 4.8-4.1 9.6-8.3 12.6-3.6 2.6-8.3 2.8-12.7 2.3-.1 0-.3 0-.5-.1.2 0 .4 0 .5.1.5 0-1.8-.3-2.1-.3-1.3-.3-2.5-.6-3.7-1.1-2.3-.9-4.4-2.2-6.1-3.8-3.3-3.1-4.7-7.3-5.6-11.5-.6-2.8-1-6-.5-8.8.5-2.8 1.8-3.2 4.6-3.3 0 0 30.8-.5 34.1 2.1 2.6 2.3 1.1 9 .3 11.8z" class="st16"/>
    </g>
  </g>
</svg>
