<svg xmlns="http://www.w3.org/2000/svg" enable-background="new 0 0 300 300" viewBox="0 0 300 300">
  <style>
    .st8{fill:#a3a3a3}.st11{display:none;fill-rule:evenodd;clip-rule:evenodd;fill:#5199e4}.st12{filter:url(#Adobe_OpacityMaskFilter)}.st13{fill:#fff}.st14{mask:url(#SVGID_1_)}.st15{fill:#efefef}.st16{fill:#725700}.st17{fill:url(#left-color_1_)}.st18{fill:url(#right-color_1_)}.st19{fill:#443b39}.st20{fill:#707}.st21{fill:#93008c}.st22{fill:#b900a9}.st23{fill-rule:evenodd;clip-rule:evenodd}.st24{opacity:.1}.st25{opacity:9.000000e-02}.st29{mask:url(#mask-2_4_)}.st30{fill-rule:evenodd;clip-rule:evenodd;fill:#edb98a}.st35{mask:url(#mask-4_6_)}.st36{fill-rule:evenodd;clip-rule:evenodd;fill:#ff5c5c}
  </style>
  <g id="Layer_2">
    <ellipse id="circle_4_" cx="149.9" cy="150.4" class="st11" rx="142.7" ry="134.6"/>
    <defs>
      <filter id="Adobe_OpacityMaskFilter" width="240.1" height="360.5" x="15.3" y="8.2" filterUnits="userSpaceOnUse">
        <feColorMatrix values="1 0 0 0 0 0 1 0 0 0 0 0 1 0 0 0 0 0 1 0"/>
      </filter>
    </defs>
    <mask id="SVGID_1_" width="240.1" height="360.5" x="15.3" y="8.2" maskUnits="userSpaceOnUse">
      <g class="st12">
        <path id="circle_2_" d="M196.6-18.1L296 30.1s-9.3 164.4-20.1 183.3c-24 42.3-71.4 71.1-125.9 71.1C71.2 284.6 7.3 224.3 7.3 150c0-34.1 13.4-65.1 35.5-88.9 26.2-28 153.8-79.2 153.8-79.2z" class="st13"/>
      </g>
    </mask>
    <g class="st14">
      <path id="board-outline_2_" d="M227.6 21.9c21.9 12.6 26.1 15.4 27.6 20.8s-8.3 46.9-17.4 73.4c-9.8 28.3-34.6 78.1-52.9 109.9-54.5 94.9-123.8 157.4-154.8 139.7-31-17.8-11.9-109.2 42.7-204.1 18.2-31.7 48.7-78.3 68.3-101 18.3-21.2 49.2-50.6 54.6-52s10 .7 31.9 13.3z" class="st13"/>
      <path id="shadow_1_" d="M149.9 274.1c-44.3 0-83.5-20.7-107.2-52.5-1.7 4.1-3.4 8.1-5 12 25.4 30.4 64.5 50.3 108.5 51.4 2.7-3.6 5.4-7.2 8-11-1.5.1-2.9.1-4.3.1z" class="st15"/>
      <path id="stringer" d="M64.7 305.2c-.2-.1-.3-.4-.2-.7l162-282c.1-.2.4-.3.7-.2.2.1.3.4.2.7l-162 282c-.1.3-.4.3-.7.2z" class="st16"/>
    </g>
    <linearGradient id="left-color_1_" x1="80.9173" x2="106.0629" y1="223.2276" y2="65.1" gradientTransform="rotate(29.877 150.0016049 207.76748988)" gradientUnits="userSpaceOnUse">
      <stop offset="0" stop-color="#fdfdfd"/>
      <stop offset=".9988" stop-color="#d5ffff"/>
    </linearGradient>
    <path id="left-color" d="M223.3 24.8c-7.9 13.7-17.7 30.8-61.2 106.6S34.1 241 50.9 208.6s43.1-81.2 71.9-119 65.9-74.1 71.8-75.2c5.9-1.2 15.2 1.6 28.7 10.4z" class="st17"/>
    <linearGradient id="right-color_1_" x1="135.9737" x2="161.1193" y1="223.2275" y2="65.0999" gradientTransform="scale(-1 1) rotate(-29.875 2.10819736 778.0047051)" gradientUnits="userSpaceOnUse">
      <stop offset="0" stop-color="#fdfdfd"/>
      <stop offset=".9988" stop-color="#a2ffba"/>
    </linearGradient>
    <path id="right-color" d="M227 26.9c-7.9 13.7-17.7 30.8-61.2 106.6s-30.1 165.8-10.6 135 48.4-78.2 66.6-122 30.8-94.2 28.8-99.9c-2-5.8-9.2-12.4-23.6-19.7z" class="st18"/>
    <g id="leash-hang">
      <path d="M251.4 160.3h-5.8c-.8 0-1.4-.9-1.4-1.9l.1-2.1-.1-3.8-.2-5.1.2-9.7c0-1.1.6-1.9 1.4-1.9h5.8c.8 0 1.4.9 1.4 1.9l-.2 11.4.3 4.9-.1 4.5c0 1-.7 1.8-1.4 1.8z"/>
      <path d="M252.7 145.6H244c-.5 0-.9-.6-.9-1.2l.1-4.7-.1-2.2v-3.8c0-.7.4-1.2.9-1.2l3.4-.3 2.2-.2 3.1.5c.5 0 .9.6.9 1.2l-.1 2.3.1 2.7v5.7c0 .7-.4 1.2-.9 1.2z" class="st19"/>
      <ellipse cx="248.4" cy="134.1" class="st20" rx="1.6" ry="1.1"/>
      <ellipse cx="248.4" cy="134" class="st21" rx="1.3" ry=".9"/>
      <path d="M248.9 134s-.1.3-.5.3-.5-.3-.5-.3V85.2h1V134z" class="st22"/>
    </g>
    <g id="fins">
      <g id="fin-boxes">
        <path d="M183.1 40c-.1 0-.1-.1-.2-.1-1.1-.8-1.4-2.3-.6-3.5l13.2-18.9c.8-1.1 2.4-1.4 3.5-.6 1.1.8 1.4 2.3.6 3.5l-13.2 18.9c-.8 1-2.2 1.3-3.3.7zM158.6 56.2c-.1 0-.1-.1-.2-.1-1.1-.8-1.4-2.3-.6-3.5L171 33.7c.8-1.1 2.3-1.4 3.5-.6 1.1.8 1.4 2.3.6 3.5l-13.2 18.9c-.8 1-2.2 1.3-3.3.7zM234 69.2c.1 0 .1.1.2.1 1.3.6 2.7 0 3.3-1.2l9.7-20.9c.6-1.3 0-2.7-1.2-3.3-1.3-.6-2.7 0-3.3 1.2L232.9 66c-.5 1.2 0 2.6 1.1 3.2zM232.3 98.5c.1 0 .1.1.2.1 1.3.6 2.7 0 3.3-1.2l9.7-20.9c.6-1.3 0-2.7-1.2-3.3-1.3-.6-2.7 0-3.3 1.2l-9.7 20.9c-.6 1.2-.1 2.6 1 3.2z" class="st8"/>
      </g>
      <g id="fin-blades">
        <path d="M174 35.3s-2-4.7-.8-8.4-3.7-6.6-6.8-3.9-10.1 13.7-7.9 31.2c1.6.9 2.3 0 2.3 0L174 35.3zM197.3 18.6s-.6-3.7.8-7.1-1.4-5-4-2.3c-2.5 2.8-8.9 13.3-10.2 27.9.9.5 1.5-.4 1.5-.4l11.9-18.1zM242.6 74.7s5.1-.7 7.7-3.5c2.6-2.9 7.6-.1 6.8 3.9-.7 4.1-6.7 15.7-23 22.5-1.6-.9-1.2-2-1.2-2l9.7-20.9zM244.6 46.5s3.5-1.4 5.7-4.2c2.2-2.9 5.1-1.3 4 2.3-1.1 3.6-7 14.4-18.9 22.8-.9-.5-.5-1.5-.5-1.5l9.7-19.4z" class="st23"/>
      </g>
    </g>
    <path id="leash-shadow-2" d="M177.5 35.3c2.2 3.9 12.9 17.2 28.2 25.1 14.2 7.3 28.9 12.1 37.2 14 .5-.1 1.1-.3 1.7-.5-.4-.2-.8-.3-1.3-.4-8.3-1.9-23-6.6-37.2-14-16.4-8.4-26.5-22.3-27.8-24.7-.3-.5-.7-1.2-1.2-1.9-1.2-1.8-2.9-4.6-3.3-6.5-.3.3-.6.5-.8.8.6 2 2.1 4.4 3.3 6.3.6.7 1 1.3 1.2 1.8z" class="st24"/>
    <path id="leash-path-2" d="M244.4 73.5c-8.3-1.9-23-6.6-37.2-14-16.4-8.4-26.5-22.3-27.8-24.7-.3-.5-.7-1.2-1.2-1.9-1.4-2.2-3.6-5.6-3.3-7.4 0-.2.1-.5.2-.6.2-.3.6-.5 1.1-.6.4-.4.8-.7 1.2-1.1-1.6 0-2.6.3-3.1 1.2-.4.6-.4 1.3-.3 2.1.3 2.1 2.1 4.9 3.5 7.1.5.7.9 1.4 1.1 1.8 2.2 3.9 12.9 17.2 28.2 25.1 14.2 7.3 28.9 12.1 37.2 14 .5-.1 1.1-.3 1.7-.5-.4-.3-.8-.4-1.3-.5z" class="st22"/>
    <path id="leash-shadow-1" d="M242.1 100.4c-2 .5-5.1.4-8.9-.4-20.5-4.2-66.4-36.9-76.8-45.3-2.8-2.3-4.3-4.4-4.4-6.2l-.9.9c.4 1.6 1.6 3.6 4.6 6.1 10.5 8.4 56.5 41.3 77.3 45.5 2.4.5 4.4.7 6.1.7 1 0 1.9-.1 2.7-.2.3-.1.5-.1.8-.2l.3-1.2c-.3.1-.6.2-.8.3z" class="st25"/>
    <path id="leash-path-1_1_" d="M245.3 91.5c.9 2.3 1.3 4.6.4 6.1-.5.9-1.4 1.5-2.7 1.8-2 .5-5.1.4-8.9-.4-20.5-4.2-66.4-36.9-76.8-45.3-2.8-2.3-4.3-4.4-4.4-6.3 0-.3 0-.6.1-.9.4-1.6 2.1-2.7 3.8-3.2.3-.4.9-.9 1.2-1.3h-.2c-2.2.3-5.1 1.6-5.8 4.2-.2.6-.2 1.3 0 2.2.3 1.6 1.6 3.7 4.6 6.1 10.5 8.4 56.5 41.3 77.3 45.5 2.4.5 4.4.7 6.1.7 1 0 1.9-.1 2.7-.2 1.8-.4 3.2-1.2 3.9-2.4 1.2-2 .6-4.8-.6-7.6-.2.2-.4.3-.6.5 0 .2 0 .3-.1.5z" class="st22"/>
  </g>
  <g id="Layer_3">
    <g id="ali">
      <g id="Body" transform="translate(23.757576 25.2)">
        <defs>
          <filter id="Adobe_OpacityMaskFilter_1_" width="271.5" height="236.9" x="269.5" y="14.7" filterUnits="userSpaceOnUse">
            <feColorMatrix values="1 0 0 0 0 0 1 0 0 0 0 0 1 0 0 0 0 0 1 0"/>
          </filter>
        </defs>
        <g class="st29">
          <path id="Color" d="M293.2 14.7h271.5v236.9H293.2z" class="st30" transform="translate(-23.757576)"/>
        </g>
      </g>
      <g transform="translate(0 119)">
        <defs>
          <filter id="Adobe_OpacityMaskFilter_2_" width="271.5" height="106.7" x="293.2" y="50.9" filterUnits="userSpaceOnUse">
            <feColorMatrix values="1 0 0 0 0 0 1 0 0 0 0 0 1 0 0 0 0 0 1 0"/>
          </filter>
        </defs>
        <g class="st35">
          <path d="M293.2 50.9h271.5v106.7H293.2z" class="st36"/>
        </g>
      </g>
    </g>
  </g>
</svg>