<svg width="581px" height="307px" viewBox="0 0 581 307" version="1.1" xmlns="http://www.w3.org/2000/svg" xmlns:xlink="http://www.w3.org/1999/xlink">
    <g id="Symbols" stroke="none" stroke-width="1" fill="none" fill-rule="evenodd">
        <g id="data-icon" fill="#5893D7">
            <g id="Page-1">
                <polygon id="Fill-1" points="31.2957 0.0003 9.7977 9.6453 8.9327 9.2443 8.6167 13.8103 6.6207 19.4873 7.4447 28.3313 5.5557 35.0183 -0.0003 111.8043 3.7327 164.2953 2.7217 168.4233 7.1607 220.3163 8.2737 233.1103 9.0967 234.9593 9.4217 236.4843 9.5017 236.6813 9.5287 236.8063 9.5097 249.9913 8.5537 254.1723 9.1957 257.3863 9.1517 265.0063 10.3227 274.3263 9.0717 275.5663 8.7707 306.4083 134.1427 303.7553 147.6067 303.7783 148.9887 302.5123 151.4107 303.1993 197.5097 300.3623 197.0257 299.2973 205.9737 299.3713 214.7267 297.6653 219.4897 298.4653 219.5077 299.2693 226.8197 299.4623 243.5017 299.2363 246.7027 300.4693 268.8957 300.3443 266.1867 300.2083 335.4107 298.1743 334.4947 299.3653 451.5107 303.2923 466.2747 305.4693 470.6327 303.9023 483.2917 302.4013 525.0217 304.1583 560.1317 304.1513 580.1777 269.0183 577.5387 268.7073 577.0037 269.9313 569.0737 268.9963 568.6217 267.9013 563.8677 266.0533 550.7797 266.2833 550.8607 266.1073 525.0907 265.6993 526.1377 265.3963 509.9037 264.3963 509.4557 265.4423 492.4397 264.0463 487.4587 264.8673 341.0747 261.0673 342.0447 260.9413 167.6227 258.7133 167.1977 259.7893 55.7357 263.7123 50.6507 263.3923 51.0087 260.6733 50.3287 259.1583 50.2187 258.2363 49.7427 236.5523 50.0837 237.6833 43.7787 132.3603 40.2597 120.4063 40.6227 120.5203 39.4587 112.5863 39.0587 94.5123 39.9267 94.8763 44.0937 19.0613 47.1967 8.3993 47.0307 6.8093"></polygon>
                <polygon id="Fill-2" points="177.3444 210.5763 177.0164 208.7533 175.0814 206.1093 176.9924 205.5153 175.7954 204.4453 175.9554 203.6743 177.9624 186.9253 178.7304 185.0043 177.7774 184.4603 177.1084 181.0583 174.5764 177.8803 172.4194 177.9493 173.0504 176.6733 173.4594 174.7413 173.3284 173.7003 172.5064 174.1973 171.6934 171.3263 173.0314 170.0663 172.0284 168.0963 163.0534 158.2493 165.4974 158.3773 165.0564 141.7223 162.9054 140.1083 163.1484 138.9483 161.0254 137.2063 161.5814 131.2653 159.0814 126.2743 87.4414 123.5993 85.5174 123.6473 86.0254 125.2433 82.6694 125.9253 84.0554 127.7783 83.6974 127.7673 84.7044 131.4213 83.7144 136.0553 88.4664 157.5203 88.1484 157.3843 91.7334 179.1923 91.8134 182.1733 94.0064 185.0983 92.0834 203.1453 94.6154 208.0063 93.9334 207.8573 93.3764 220.2533 91.4374 222.6573 96.0564 224.3723 98.0784 228.2123 99.3794 232.1343 97.9014 239.0833 92.8454 240.6313 93.3474 240.8573 169.1744 240.2363 171.7704 239.6523 172.6974 238.7813 171.5774 239.0083 170.1064 237.5443 173.1654 236.5943 176.1884 222.4353 177.2264 222.5953 175.9464 218.5453 178.5654 217.9713"></polygon>
                <polygon id="Fill-3" points="429.3444 119.6603 429.0164 122.1173 427.0814 125.6793 428.9924 126.4793 427.7954 127.9213 427.9554 128.9613 429.9624 151.5303 430.7304 154.1193 429.7774 154.8503 429.1084 159.4333 426.5764 163.7183 424.4194 163.6243 425.0504 165.3453 425.4594 167.9463 425.3284 169.3483 424.5064 168.6793 423.6934 172.5493 425.0314 174.2453 424.0284 176.9013 415.0534 190.1693 417.4974 189.9973 417.0564 212.4393 414.9054 214.6133 421.5814 236.5283 419.0814 243.2533 347.4414 246.8573 345.5174 246.7943 346.0254 244.6433 342.6694 243.7243 344.0554 241.2263 343.6974 241.2413 344.7044 236.3183 343.7144 230.0753 348.4664 201.1503 348.1484 201.3363 343.7334 161.9493 343.8134 157.9323 346.0064 153.9913 344.0834 129.6733 346.6154 123.1233 345.9334 123.3233 345.3764 106.6223 343.4374 103.3823 348.0564 101.0713 350.0784 95.8973 351.3794 90.6123 349.9014 81.2483 421.1744 79.6943 423.7704 80.4803 424.6974 81.6543 423.5774 81.3493 422.1064 83.3223 425.1654 84.6023 428.1884 103.6813 429.2264 103.4663 427.9464 108.9233 430.5654 109.6963"></polygon>
                <path d="M225.5012,68.2511 C227.0112,72.0431 227.4902,112.1541 224.6082,114.5721 L224.5292,113.8951 C222.9932,115.7931 222.8042,117.1661 222.7302,119.4431 L223.3222,124.4161 L223.1932,126.2441 L223.5972,129.6351 L222.0882,131.7561 C222.0882,131.7561 219.9592,134.5911 219.5862,137.3401 C220.1582,142.0881 221.4532,137.9551 218.9252,143.3131 L217.9822,144.2671 L218.7412,147.6421 L220.7252,177.0591 C220.7252,177.0591 221.5592,178.1541 220.8832,178.4131 C220.2642,179.1281 219.7002,180.2931 219.7002,180.2931 L219.6772,185.9781 L219.3522,189.1801 C219.7322,189.3891 219.5992,202.5491 218.1462,202.1671 C218.8732,202.3571 219.9522,202.5331 220.7352,203.1761 C219.9522,205.4891 220.2252,207.7481 219.4692,210.2891 C219.7952,210.0461 219.7702,209.8171 220.4962,210.0091 C220.1002,218.4431 222.1302,226.5301 223.4832,234.8751 C223.6742,236.4581 223.9472,238.7181 223.9472,238.7181 L224.8632,240.2481 L227.4292,241.2721 L229.1792,241.1851 C242.0352,246.7401 298.9822,242.8571 298.9822,242.8571 L297.8942,239.2481 C300.2112,235.0411 297.1582,230.1891 296.4322,227.0431 C296.6162,225.6671 295.8342,222.0671 297.7182,220.1531 L295.9632,220.2431 C296.3942,217.9481 299.1782,214.8001 299.7182,213.4101 L299.0172,213.4451 C299.2592,212.5231 300.1842,208.5611 301.9582,205.7401 L301.1432,184.6671 C302.9492,182.0761 300.7882,178.7741 303.6452,176.1301 C301.9932,171.2061 299.9412,149.9801 301.7442,144.4341 C302.5722,139.6171 305.9292,135.5591 303.9922,134.0611 C306.7052,124.3731 306.5522,105.1311 307.5362,95.7581 L307.2212,95.9991 C307.5362,89.8471 304.3352,65.6561 303.9512,59.5321 C303.9512,59.5321 305.6212,55.8131 304.3532,54.0541 C304.5932,53.1341 304.9402,50.1601 304.9402,50.1601 C302.8882,47.7621 305.5822,43.7631 305.5822,43.7631 C304.3932,42.6831 303.5132,39.2721 301.5032,39.1881 C301.6692,37.5901 299.3482,38.8441 300.2102,37.2061 C300.2102,37.2061 235.2642,40.9301 231.4082,41.1221 L227.9822,51.8571 L228.9822,53.8571 L225.5012,68.2511 Z" id="Fill-4"></path>
                <path d="M478.5016,71.2511 C480.0116,75.0431 480.4906,115.1541 477.6076,117.5721 L477.5286,116.8951 C475.9926,118.7931 475.8036,120.1661 475.7296,122.4431 L476.3216,127.4161 L476.1926,129.2441 L476.5976,132.6351 L475.0886,134.7561 C475.0886,134.7561 472.9596,137.5911 472.5856,140.3401 C473.1586,145.0881 474.4536,140.9551 471.9246,146.3131 L470.9816,147.2671 L471.7406,150.6421 L473.7256,180.0591 C473.7256,180.0591 474.5586,181.1541 473.8836,181.4131 C473.2636,182.1281 472.6996,183.2931 472.6996,183.2931 L472.6776,188.9781 L472.3526,192.1801 C472.7316,192.3891 472.5986,205.5491 471.1466,205.1671 C471.8726,205.3571 472.9516,205.5331 473.7346,206.1761 C472.9516,208.4891 473.2256,210.7481 472.4696,213.2891 C472.7956,213.0461 472.7696,212.8171 473.4956,213.0091 C473.1006,221.4431 475.1296,229.5301 476.4836,237.8751 C476.6736,239.4581 476.9466,241.7181 476.9466,241.7181 L477.8626,243.2481 L480.4296,244.2721 L482.1796,244.1851 C495.0356,249.7401 551.9816,245.8571 551.9816,245.8571 L550.8946,242.2481 C553.2106,238.0411 550.1576,233.1891 549.4326,230.0431 C549.6166,228.6671 548.8336,225.0671 550.7176,223.1531 L548.9636,223.2431 C549.3936,220.9481 552.1786,217.8001 552.7176,216.4101 L552.0166,216.4451 C552.2596,215.5231 553.1846,211.5611 554.9586,208.7401 L554.1426,187.6671 C555.9486,185.0761 553.7876,181.7741 556.6456,179.1301 C554.9926,174.2061 552.9416,152.9801 554.7436,147.4341 C555.5726,142.6171 558.9296,138.5591 556.9916,137.0611 C559.7046,127.3731 559.5526,108.1311 560.5356,98.7581 L560.2216,98.9991 C560.5356,92.8471 557.3346,68.6561 556.9506,62.5321 C556.9506,62.5321 558.6206,58.8131 557.3536,57.0541 C557.5926,56.1341 557.9396,53.1601 557.9396,53.1601 C555.8876,50.7621 558.5826,46.7631 558.5826,46.7631 C557.3936,45.6831 556.5136,42.2721 554.5036,42.1881 C554.6696,40.5901 552.3486,41.8441 553.2106,40.2061 C553.2106,40.2061 488.2636,43.9301 484.4076,44.1221 L480.9816,54.8571 L481.9816,56.8571 L478.5016,71.2511 Z" id="Fill-6"></path>
            </g>
        </g>
    </g>
</svg>