<svg width="761px" height="271px" viewBox="0 0 761 271" version="1.1" xmlns="http://www.w3.org/2000/svg" xmlns:xlink="http://www.w3.org/1999/xlink">
    <g id="Symbols" stroke="none" stroke-width="1" fill="none" fill-rule="evenodd">
        <g id="php-icon" fill="#5893D7">
            <g>
                <path d="M134.7072,193.3244 L133.7652,194.1474 C132.0722,193.1944 133.9352,193.3034 132.5122,192.1204 C133.1242,191.3034 134.5282,192.2874 135.7012,193.2234 C134.7832,192.2284 134.2902,190.7754 133.1342,191.2284 C132.4822,190.0614 134.0752,190.4054 133.2402,189.0544 C132.2342,188.5444 130.5082,188.3174 129.9902,187.0314 L130.1272,186.9134 C128.5892,184.0924 125.6542,184.9234 124.3022,182.2874 L124.7522,182.2364 C124.4232,181.1414 122.4642,180.4254 121.5792,178.7694 C121.8132,179.2614 121.6422,180.1004 120.7742,179.4734 C119.7022,177.6294 118.2452,177.1684 117.6792,175.5804 L115.9532,175.3554 C110.8492,170.4404 89.2162,152.6404 83.8492,147.9654 L84.1632,148.0354 C79.9882,144.5684 73.8022,139.0734 67.5082,133.6274 C66.7212,132.9484 65.9322,132.2684 65.1472,131.5924 L64.5582,131.0864 L64.2642,130.8344 L64.2092,130.8014 L64.0082,130.6884 C63.7372,130.5364 63.4482,130.3854 63.1392,130.2344 C62.5212,129.9324 61.8172,129.6324 61.0042,129.3564 C61.9842,128.9234 61.4502,128.7484 61.6212,128.5324 C61.1582,128.6634 60.1652,128.7004 60.1032,128.5894 C60.0992,128.5844 60.0942,128.5774 60.0942,128.5774 C60.5062,128.2044 60.2872,128.1904 59.9882,128.1684 C59.6912,128.1434 59.2942,128.1324 59.4742,127.6294 C59.4442,127.3254 59.7892,126.7954 60.3312,126.1794 C60.6012,125.8734 60.9182,125.5474 61.2592,125.2234 C61.4312,125.0654 61.6062,124.9044 61.7822,124.7424 L62.0512,124.5084 L62.1862,124.3924 L62.2542,124.3364 L62.4852,124.1014 C67.8522,118.6424 73.3182,113.3974 75.5542,111.5854 C76.5632,108.3564 79.9542,106.2874 81.3112,103.4644 L81.3572,103.9174 C83.1372,101.1814 96.4632,88.6854 98.6182,85.5834 L98.1252,85.8134 C99.6742,82.8064 100.5372,84.2034 102.6402,82.6464 C101.2182,81.7974 102.4352,79.1174 103.0672,78.2504 L103.3002,78.5204 C104.1882,77.1534 105.6192,73.5204 107.2572,71.4204 L107.8392,72.0974 C108.6382,69.8234 111.7492,67.0294 112.7582,65.7954 C115.4942,63.3664 120.4312,60.2844 122.8652,55.9114 L126.8532,55.3114 L126.9802,54.8024 C126.9802,54.8024 107.9532,30.4004 98.8162,30.7234 L98.2352,30.0494 L97.4582,31.0614 C96.1052,31.8874 96.3822,33.1014 95.8022,32.4264 L97.2962,30.9634 C96.0712,31.9164 96.4502,30.8114 96.4772,30.0424 C95.9812,30.4544 95.4822,30.8394 94.9382,31.0304 C94.9842,31.4824 95.3582,31.1154 95.6612,31.0704 C95.3322,31.8874 95.1672,33.2954 94.1872,33.7574 C93.0642,34.8544 93.0652,32.8594 91.7552,34.1404 C84.7132,40.7774 77.6232,46.9624 71.1622,54.2744 C70.7412,54.1894 70.9302,54.0034 70.9992,53.6844 C69.2902,56.1054 67.4182,57.9334 65.8972,60.1704 C65.1022,60.4494 64.5632,60.2284 64.1442,60.1414 C64.9832,60.3144 54.7222,71.5574 54.4172,71.6054 L55.4672,72.8244 C53.5242,74.9694 53.5512,72.2054 52.0292,74.4414 C52.9842,76.7424 48.8462,77.5524 49.1042,79.0464 C48.9862,78.9084 48.0482,79.8264 47.5842,79.2864 C48.2152,80.4124 46.8812,80.4704 46.5522,81.2904 C46.6002,81.7424 46.9712,81.3784 47.3942,81.4644 L46.4322,83.1504 C45.6402,83.4274 44.9852,83.0714 45.4312,82.3894 C43.5942,84.0594 38.4372,89.0634 33.3462,94.1914 C32.6852,94.8624 32.0232,95.5334 31.3682,96.1984 C30.1432,97.4894 28.9302,98.7674 27.7412,100.0204 C25.3692,102.5464 23.0922,104.9714 21.0092,107.1894 C16.8612,111.6484 13.5472,115.3084 11.9342,117.2874 C13.9012,116.5194 15.4032,113.9634 17.7752,113.5394 C16.8482,115.7544 14.7742,116.3784 14.9402,117.4654 C13.3602,117.5794 12.1882,118.6614 10.9252,119.8364 C9.6582,121.0154 8.3092,122.2794 6.2072,122.9404 L7.2172,123.6574 L5.3242,124.6024 C2.7522,128.1274 2.0652,129.1754 1.6692,129.6784 C1.2792,130.1744 1.2102,130.0904 0.0002,131.2114 C0.4602,131.7334 1.3802,132.6854 3.0922,134.3344 C5.5342,136.4314 7.8362,137.8884 9.7072,139.0924 C11.5842,140.3004 13.0392,141.2614 13.9272,142.4964 C13.5622,142.1464 13.4662,141.0404 14.9692,141.9864 C14.4452,142.2384 15.4362,142.8794 16.4542,143.5474 C17.4742,144.2164 18.5172,144.9084 18.2132,145.3694 C19.4852,146.3444 22.9602,149.6994 23.2002,147.9214 C23.0502,148.7804 26.0012,151.8784 23.4742,150.4404 C24.5282,151.4604 25.4062,152.5534 26.4862,153.0964 L25.4542,151.5994 C27.3842,153.2134 28.5972,154.6334 29.7902,155.8444 C30.9772,157.0504 32.1392,158.0444 33.8182,158.6724 L32.9222,157.0624 C34.0322,158.0114 35.0492,158.8684 35.7722,159.7204 C36.1342,160.1474 36.4222,160.5734 36.6162,161.0114 C36.7282,161.3754 36.6472,161.6624 36.5322,162.0514 C36.1892,161.9404 35.1252,161.1734 34.2982,160.6224 C34.7652,161.0384 35.2082,161.4344 35.6332,161.8144 C35.7812,161.9434 35.9262,162.0684 36.0672,162.1924 C36.1782,162.2844 36.2862,162.3754 36.3922,162.4644 C36.8192,162.8174 37.2262,163.1344 37.6382,163.4244 C38.4622,164.0064 39.3082,164.4814 40.3812,164.9334 L39.8292,164.3764 C42.8772,165.1824 54.5012,174.1474 57.6362,174.5334 L57.5212,172.8964 L59.8022,173.6844 C59.6342,173.5144 57.0662,175.3074 56.6762,175.3094 C60.3772,178.5314 79.0612,194.3864 81.7762,197.8874 C82.6612,199.5434 80.8002,199.4304 80.6642,199.5504 C82.5402,200.6884 82.1602,199.2884 83.4482,200.5934 C83.6792,201.0814 82.7732,201.1794 82.4562,201.1094 C83.1402,201.5514 83.4252,202.3434 83.8272,201.9924 C83.3622,201.0124 84.6222,200.2614 84.9232,199.3014 L86.5822,200.9764 L85.9072,201.5614 C86.2772,201.9354 88.5252,200.6664 89.9142,202.5774 C92.5402,205.4894 95.8822,208.1144 98.6442,210.9104 C98.2412,211.2624 97.4202,210.9394 96.6002,210.6134 C96.9702,210.9884 97.6552,211.4284 97.7552,212.0374 C97.6882,210.7034 99.3942,212.6834 99.1132,211.8914 C102.6992,212.2244 104.1132,216.1934 106.9802,216.8154 C108.4572,215.5234 133.5612,195.7144 135.1242,193.9994 C135.6782,194.5614 136.2282,195.1204 136.2782,195.4244 C136.4952,194.8844 135.5262,193.6484 134.7072,193.3244" id="Fill-1"></path>
                <path d="M234.6022,213.4669 L234.6652,213.4759 C235.0662,212.4439 234.1712,211.8629 234.5662,210.9199 C234.5662,210.9199 234.5402,209.7369 234.5092,209.3689 C234.7562,208.6779 234.5452,208.1939 234.8392,207.6909 L234.5042,207.1899 C234.5312,206.7299 234.5462,206.0129 234.5522,205.1459 C234.5702,203.6059 234.5932,201.7999 234.6162,199.9189 C234.6432,195.9469 234.6712,191.6609 234.6912,188.6799 C231.0302,188.6239 229.0792,188.5949 227.9412,188.5779 L227.5052,188.4489 C225.7412,188.4239 224.1652,188.4709 221.7042,188.4349 C220.6032,188.4159 219.4502,188.3959 218.2692,188.3739 C217.5712,188.3699 216.8572,188.3649 216.1422,188.3609 C213.8832,188.3429 211.6182,188.3259 209.5362,188.3109 C207.1282,188.3049 204.9762,188.3279 203.3192,188.3979 C201.9842,188.0119 200.0622,188.3259 199.5642,188.2969 C199.5452,188.2959 199.5262,188.2949 199.5192,188.2949 C199.3822,191.5949 199.7452,188.7549 199.7852,192.2529 C199.8812,194.3299 199.7292,198.9139 199.5002,203.5299 C199.4142,204.9089 199.3122,206.1659 199.2072,207.2799 C199.1382,208.2089 199.0742,209.0519 199.0212,209.7669 C198.9602,210.5279 198.9032,211.1569 198.8522,211.6079 C199.0802,212.4909 199.0792,213.5129 199.0552,214.5529 C199.0312,215.5869 198.9822,216.6419 199.1192,217.4429 L199.0022,217.3359 C199.0532,218.0199 198.9712,220.0079 198.8532,222.3839 C202.6752,222.5759 207.5552,222.8689 209.0362,222.7999 L208.7552,222.7189 C210.8312,222.4659 210.3822,223.0099 211.9692,223.2319 C211.9082,222.9449 212.3202,222.7339 212.8052,222.5899 C213.2832,222.4469 213.9192,222.3749 214.0132,222.3559 L213.9952,222.4809 C214.5512,222.4019 215.8172,221.9439 216.7322,221.8959 L216.6862,222.2059 C217.4572,221.8949 218.8842,222.0779 219.4322,222.0619 C220.6782,222.2299 222.5902,222.8319 224.2752,222.4709 L225.3282,223.3939 L225.4892,223.3109 L232.8042,222.4359 C232.8042,222.4359 233.4532,216.3509 233.9172,216.3649 C233.8942,216.6359 233.5662,216.0429 233.5662,216.0429 C233.4332,215.3879 233.8302,215.8989 233.8202,215.2629 C234.1792,215.2399 234.3772,213.8899 234.6022,213.4669" id="Fill-3"></path>
                <path d="M297.7868,67.9044 C296.4888,60.8454 293.9488,54.8434 291.4118,50.4464 C290.9058,47.1724 288.4508,43.4924 286.7248,40.7134 C287.4758,42.4164 286.5298,42.3024 285.7308,41.1594 C282.8418,37.1644 282.4668,37.2864 282.2048,37.2744 C282.0568,37.2844 281.8938,37.3024 281.3448,36.8804 C281.0698,36.6694 280.6978,36.3484 280.1818,35.8664 C279.9268,35.6224 279.6328,35.3414 279.2918,35.0154 C278.9408,34.7064 278.5418,34.3554 278.0878,33.9574 C277.5578,33.5084 276.9348,32.9814 276.2308,32.3854 C275.8808,32.0884 275.5198,31.7584 275.1258,31.4374 C274.7258,31.1264 274.3068,30.8004 273.8698,30.4604 C272.9968,29.7804 272.0538,29.0454 271.0518,28.2644 C270.0158,27.5534 268.9178,26.8014 267.7718,26.0154 C263.1508,22.9674 257.4838,19.9624 251.6698,17.7644 C245.8578,15.6144 239.9768,14.1044 235.0378,13.2234 C233.7958,12.9464 232.6318,12.8284 231.5278,12.6584 C230.4238,12.4994 229.3918,12.3504 228.4448,12.2144 C226.5518,11.9474 225.0268,11.8594 223.9318,11.7034 C222.7678,12.0474 221.4628,12.1694 220.2798,12.3244 C219.0788,12.4654 217.8478,12.5214 216.6178,12.5634 C216.0018,12.5854 215.3868,12.6074 214.7768,12.6284 C214.1598,12.6754 213.5468,12.7264 212.9458,12.7924 C211.7428,12.9224 210.5828,13.1064 209.5138,13.4124 L209.9238,13.0414 C209.3478,13.1364 208.4118,13.2784 207.2128,13.4374 C206.0118,13.6034 204.5598,13.7344 202.9088,13.9624 C201.2468,14.2264 199.4168,14.4594 197.4728,14.8094 C196.4958,15.0034 195.4958,15.2024 194.4838,15.4034 C193.9778,15.5054 193.4688,15.6084 192.9568,15.7124 L191.4088,16.1024 C190.3748,16.3694 189.3398,16.6364 188.3138,16.9024 C187.2868,17.1944 186.2658,17.5384 185.2688,17.8554 C183.2728,18.4554 181.3658,19.2564 179.6358,19.9434 C177.9078,20.6544 176.3728,21.4504 175.0958,22.0784 C173.8268,22.7494 172.8358,23.3804 172.1848,23.8124 L173.0188,23.5794 C170.8618,25.2754 169.8208,25.8204 168.7498,26.0894 C167.6848,26.3624 166.6328,26.4164 164.7148,27.5474 C165.4308,28.0314 164.9568,29.1544 164.1868,30.3094 C163.4398,31.5004 162.3828,32.7244 161.7488,33.3414 L161.5658,33.0314 C161.1108,33.5264 160.5658,34.2324 159.9488,35.0454 C159.3208,35.8494 158.6688,36.7974 158.0138,37.7964 C157.3378,38.7824 156.6598,39.8144 156.0258,40.8294 C155.3688,41.8324 154.7248,42.7964 154.1368,43.6594 L153.5418,42.9794 C152.8058,44.6574 151.4358,46.7514 150.1788,48.7174 C148.9008,50.6804 147.7498,52.5064 147.1898,53.5564 C145.6738,55.8094 143.6948,58.5894 141.9808,61.5254 C140.2658,64.4504 138.8208,67.5004 138.2458,70.0304 C137.6408,70.2904 137.0308,70.5874 136.4508,70.7914 L135.6068,71.0234 C135.3268,71.1034 135.0498,71.1784 134.8088,71.1554 L134.9088,71.4764 C134.9088,71.4764 136.4788,72.6314 138.8488,74.3724 C141.2448,76.1034 144.3628,78.6794 147.6038,81.4174 C149.2148,82.7894 150.9038,84.1404 152.6098,85.3764 C154.3288,86.5914 156.0018,87.7884 157.7648,88.5574 C159.5158,89.3444 161.3028,89.8024 163.0928,89.7414 C163.9468,89.7474 164.7718,89.6554 165.5858,89.4244 C165.9918,89.3104 166.3938,89.1604 166.7848,88.9834 C167.1488,88.8344 167.5038,88.6554 167.8488,88.4444 L168.5398,89.0264 C168.8498,88.3654 169.2128,87.6324 169.4518,87.0494 C169.8178,86.5624 170.0648,86.1044 170.2418,85.7014 C170.4148,85.3014 170.4858,85.0034 170.5578,84.7484 C170.6928,84.2514 170.7518,84.0414 171.1198,84.2974 L170.4268,85.6304 L169.6438,87.0804 C170.9508,85.0334 170.6238,86.7434 170.6498,87.8104 C171.1818,86.9394 171.7378,86.0684 172.2758,85.5514 C172.1558,85.0104 171.8068,85.6834 171.4858,85.9104 C171.6008,85.3054 171.6468,84.5404 171.7868,83.7884 C171.8988,83.0804 172.0978,82.3954 172.5618,81.8764 C173.4528,80.1364 173.9218,82.3484 174.9468,80.3484 C180.2378,70.3124 184.8178,65.5834 190.1958,61.4074 C190.5358,61.6124 190.3788,61.7134 190.3198,61.9624 C191.7548,60.4494 193.4098,59.5844 195.0918,58.3834 C195.7698,58.4934 196.1198,58.9164 196.4208,59.1864 C196.1298,58.9394 198.5588,57.5874 201.6158,56.6444 C203.0948,56.1284 204.7858,55.8094 206.0218,55.5154 C207.3338,55.3104 208.2408,55.1894 208.3018,55.2264 L208.2228,53.6184 C210.9308,53.1824 209.2628,55.3174 211.7268,54.6094 C211.9128,54.0174 212.2768,53.7034 212.7258,53.5444 C213.1878,53.4044 213.7458,53.4374 214.2948,53.4944 C215.3978,53.6144 216.4698,53.8494 216.9088,53.2294 C216.8958,53.4094 218.2368,53.4504 218.1738,54.1584 C218.5438,52.9234 219.5368,53.8424 220.3698,53.5064 C220.6718,53.1564 220.1418,53.1454 219.9068,52.7804 C220.5518,52.6204 221.2198,52.4454 221.7818,52.3394 C222.4688,52.7584 222.6138,53.4854 221.8788,53.5934 C222.4428,53.6694 223.2728,53.7624 224.3008,53.8584 C224.8218,53.8874 225.3698,53.9724 225.9478,54.0814 C226.5288,54.1744 227.1498,54.2724 227.8038,54.3754 C228.4698,54.4474 229.1198,54.6124 229.7928,54.7714 C230.4688,54.9174 231.1678,55.0674 231.8818,55.2214 C232.5578,55.4344 233.2468,55.6404 233.9458,55.8374 C234.2898,55.9434 234.6578,56.0154 234.9888,56.1414 L235.9818,56.5174 C236.6298,56.7834 237.3468,56.9464 237.9398,57.2574 C238.5518,57.5414 239.1618,57.8074 239.7648,58.0554 C240.3458,58.3294 240.8638,58.6494 241.4028,58.9094 C241.6648,59.0464 241.9368,59.1654 242.1838,59.3014 C242.4188,59.4494 242.6478,59.5944 242.8728,59.7364 C243.3208,60.0164 243.7718,60.2544 244.1738,60.4944 C244.5438,60.7654 244.8968,61.0054 245.2288,61.2154 C245.9248,61.6064 246.3938,61.9964 246.7828,62.2074 C246.9028,61.7074 246.6498,61.3994 246.4448,61.0334 C246.2088,60.6934 245.9958,60.3154 246.2328,59.5884 C247.5818,59.4774 247.2478,60.6834 248.1148,60.2844 C247.5808,61.2544 247.9108,61.6754 248.2648,62.1294 C248.5598,62.6244 248.9028,63.1404 248.3718,64.1414 L249.4358,63.4514 C249.3778,63.7244 249.2938,64.0094 249.1998,64.2944 C250.0368,64.8144 250.6158,65.0564 250.8758,65.2484 C251.1458,65.4344 251.2278,65.4944 251.2608,65.5734 C251.2938,65.6524 251.2788,65.7504 251.3698,66.0054 C251.4598,66.2604 251.6928,66.6554 252.0288,67.4044 C252.6618,68.1284 253.3288,68.5354 253.9628,68.9024 C254.1178,68.9934 254.2698,69.0824 254.4038,69.1764 C254.5178,69.2774 254.6198,69.3804 254.7028,69.4894 C254.8698,69.7084 254.9598,69.9554 254.9228,70.2594 C254.8728,70.1154 255.3928,69.4164 255.8888,69.7764 C255.3968,70.0234 255.7438,70.2524 256.0388,70.5324 C256.3188,70.8134 256.6208,71.1294 256.1408,71.4114 C256.4938,71.8294 256.6618,73.4444 257.9888,72.5714 C257.6628,72.7984 257.5148,73.2844 257.3508,73.6114 C257.1518,73.9454 256.9328,74.1194 256.5638,73.7674 C256.5818,74.2444 256.4188,74.7164 256.8018,75.0054 L257.1178,74.3454 C257.2238,74.7384 257.2588,75.0984 257.2568,75.4254 C257.2058,75.7554 257.1378,76.0504 257.1088,76.3224 C257.0788,76.5954 257.0958,76.8464 257.1988,77.0954 C257.2648,77.3434 257.4308,77.5884 257.7568,77.8594 L258.3698,77.2574 C258.3868,77.7554 258.4298,78.2184 258.2888,78.5924 C258.1518,78.9674 257.7258,79.2354 256.9928,79.3414 C256.8768,79.0094 256.8088,78.6894 256.6318,78.3654 C256.6748,78.7484 256.5768,79.0794 256.5828,79.3994 C256.5698,79.7164 256.5908,80.0164 256.6248,80.3144 C256.5918,80.8934 256.7448,81.4774 256.9618,82.2154 C257.0368,82.0714 257.0658,81.9174 257.1058,81.7654 C257.2688,82.0194 257.3308,82.3704 257.3718,82.8164 C257.3898,83.0414 257.4098,83.2894 257.4308,83.5564 C257.4378,83.6924 257.4468,83.8324 257.4548,83.9774 C257.4408,84.1174 257.4258,84.2614 257.4118,84.4094 C257.3228,85.6084 257.0678,87.0774 256.5708,88.5424 C255.6468,91.4834 253.8768,94.4934 253.6408,95.8504 L255.1558,95.9824 L254.4128,98.0014 C254.5898,97.8474 252.9378,95.1994 252.9168,94.8544 C252.5738,95.1804 252.1458,95.7204 251.4178,96.2784 C251.0638,96.5854 250.6738,96.9234 250.2528,97.2874 C249.8518,97.6714 249.2958,97.9854 248.7848,98.3794 C248.5218,98.5724 248.2528,98.7694 247.9778,98.9714 L247.5408,99.2934 C247.3128,99.4464 247.0828,99.6024 246.8498,99.7584 C245.9208,100.3834 244.9598,101.0294 243.9778,101.6914 C242.0148,103.0194 239.9578,104.3484 237.9358,105.8664 C236.9208,106.6024 235.9078,107.3384 234.9048,108.0654 C233.9008,108.7814 232.9108,109.5044 231.9548,110.2814 C230.0398,111.8064 228.1998,113.1964 226.5498,114.5504 C223.2158,117.3554 220.5938,119.5604 219.3738,120.5854 C217.0568,121.9794 217.7738,119.6364 217.6778,119.4794 C215.6588,122.0624 217.5248,121.2964 215.5128,123.1774 C214.8468,123.6234 214.9698,122.4254 215.1618,122.0344 C214.4048,123.0044 213.3458,123.6464 213.6698,124.0634 C215.0178,123.1754 215.6028,124.6274 216.7018,124.7684 L214.2288,127.3554 L213.6668,126.6524 C213.1138,127.2764 214.1198,129.6514 211.5988,132.2434 C207.6058,136.8004 204.1728,142.9784 201.7588,149.3534 C201.2948,149.0804 201.5168,147.6444 201.7758,146.1854 C201.4008,147.0294 201.0128,148.3754 200.3458,149.0404 C201.1018,148.4324 200.9458,149.1324 200.8118,149.9024 C200.6678,150.6694 200.4538,151.4554 200.8308,150.8914 C200.9838,152.2644 200.8778,153.6154 200.6558,154.9664 C200.5158,156.3414 200.2498,157.7174 199.9788,159.0784 C199.6888,160.4374 199.5868,161.7844 199.4948,163.0674 C199.4668,163.7074 199.4458,164.3364 199.5078,164.9294 C199.5848,165.5184 199.7038,166.0834 199.8798,166.6124 C200.3658,166.7134 202.6938,167.3914 205.9538,168.1494 C209.1908,168.9164 213.4358,169.7024 217.6998,170.2374 C221.9588,170.7894 226.1878,171.0684 229.5288,171.1704 C232.8898,171.2894 235.3118,171.2464 235.8878,171.1814 C235.9288,171.8004 235.9568,172.4204 235.7888,172.6404 C236.3118,172.3884 236.4288,171.1674 236.0228,170.5644 L234.7698,170.5764 C234.2598,169.2274 235.4968,170.1884 235.3228,168.8834 C235.8278,168.8304 236.1608,169.0964 236.3788,169.4924 C236.5968,169.8884 236.6798,170.4064 236.8328,170.9964 C236.8328,170.7414 236.8478,170.4634 236.9028,170.2334 C236.9638,170.0094 237.0228,169.7964 237.0428,169.6024 C237.0818,169.2164 236.9648,168.9124 236.3918,168.7454 C236.5588,168.3004 236.9078,168.3514 237.2088,168.3364 C237.5188,168.3334 237.8388,168.3044 238.0698,167.8794 C237.9288,167.5764 237.6058,167.2144 237.3818,166.8254 C237.2258,166.4794 237.1698,166.1104 237.4928,165.8194 L237.6698,165.8514 C237.8228,165.6744 237.8808,165.4934 237.9508,165.3374 C238.0238,165.1824 238.0478,165.0294 238.0398,164.8764 C238.0238,164.5694 237.8788,164.2554 237.7248,163.9284 C237.6288,163.6124 237.5388,163.2884 237.5458,162.9694 C237.5788,162.6524 237.6038,162.3394 238.0478,162.0744 L238.2988,162.3404 C239.1148,162.0724 238.6228,160.8024 239.7878,160.1054 C239.4658,160.2754 238.6748,160.1994 238.8798,159.5494 C239.1688,159.3384 239.3668,159.1144 239.5198,158.8864 C239.6928,158.6564 239.8878,158.4164 240.0388,158.1914 C240.3588,157.7404 240.6618,157.3284 241.2538,157.1114 C241.1318,156.6404 241.1538,156.1504 241.1008,155.6554 C241.3278,155.3844 241.5868,155.0574 241.8718,154.6784 C242.1668,154.2994 242.4308,153.8664 242.8878,153.3894 C243.3028,152.9054 243.7518,152.3804 244.2298,151.8214 C244.4658,151.5374 244.7098,151.2444 244.9598,150.9444 C245.2538,150.6434 245.5548,150.3354 245.8618,150.0204 C246.4698,149.3814 247.1038,148.7144 247.7588,148.0264 C248.4348,147.3354 249.2468,146.6384 250.0068,145.9124 C250.3938,145.5484 250.7848,145.1814 251.1778,144.8124 L251.7688,144.2524 L252.4258,143.7054 C253.3028,142.9694 254.1878,142.2264 255.0738,141.4834 C258.6718,138.5154 262.6128,135.6264 266.1068,133.2384 C267.0988,132.5454 268.0478,131.8824 268.9428,131.2574 C270.1368,130.4084 271.2598,129.6114 272.2948,128.8764 C274.3288,127.3164 275.9628,125.8804 277.1718,124.8834 L276.8938,125.3174 C280.4598,122.0354 284.8578,117.5794 288.7408,111.6594 C292.6358,105.7844 295.8908,98.4614 297.4908,90.7154 C299.1378,82.9814 299.1178,74.9364 297.7868,67.9044" id="Fill-5"></path>
                <path d="M423.489,124.9855 C423.524,125.3445 423.6,125.7565 423.623,126.3065 C423.652,126.8985 423.687,127.5815 423.726,128.3425 C423.745,129.1275 423.721,130.0325 423.728,130.9865 L423.728,131.3455 L423.713,131.5165 C423.707,131.6315 423.702,131.7495 423.697,131.8685 C423.711,132.0965 423.616,132.4255 423.6,132.7155 C423.409,133.9645 422.921,135.6805 422.046,137.5715 C421.18,139.4635 419.969,141.5185 418.516,143.5225 C415.625,147.5585 411.713,151.2805 408.181,153.9845 C404.628,156.6945 401.46,158.4385 399.911,159.0855 C397.246,159.8765 398.58,157.9475 398.489,157.7945 C397.208,158.7015 397.037,159.0805 396.904,159.4015 C396.766,159.7145 396.657,159.9705 395.383,160.5045 C394.611,160.6595 395.113,159.7305 395.41,159.4295 C394.395,160.0365 393.233,160.1995 393.373,160.6445 C394.918,160.3675 394.972,161.7395 395.982,162.1975 C394.878,162.7045 393.719,163.1095 392.589,163.5605 L392.372,162.7715 C392.002,162.9275 391.768,163.5925 391.169,164.3535 C390.869,164.7325 390.479,165.1395 389.933,165.4975 C389.378,165.8345 388.668,166.1295 387.759,166.3185 C384.743,167.0775 381.607,167.8485 378.405,168.4485 C375.197,169.0115 371.93,169.4005 368.76,169.5115 C368.828,169.0265 370.121,168.6395 371.396,168.2675 C370.548,168.3015 369.331,168.5235 368.481,168.2395 C369.321,168.6045 368.678,168.7975 367.798,168.9195 C366.957,169.0455 366.062,169.1115 366.791,169.2505 C361.354,171.4955 354.074,170.0635 349.364,171.5315 C349.193,172.3435 347.303,178.8835 345.014,185.8555 C344.963,184.3995 344.894,182.9535 344.772,181.4965 C345.168,180.1895 345.714,179.8325 346.081,179.4455 C345.714,179.8345 345.513,173.3355 345.428,166.6865 C345.386,163.3625 345.373,160.0005 345.382,157.4435 C345.391,154.8855 345.423,153.1325 345.471,153.0265 L343.873,152.7005 C343.849,147.6105 345.701,151.2185 345.307,146.5125 C343.046,144.6725 345.541,138.6955 344.34,137.0695 C344.519,137.1065 344.588,134.8015 345.295,134.9475 C344.068,134.2425 345.01,132.5775 344.697,131.1245 C344.355,130.5985 344.329,131.5115 343.959,131.9045 L343.526,128.5765 C343.921,127.2745 344.643,126.9535 344.777,128.3685 C344.886,126.1935 345.043,121.9515 345.205,116.6665 C345.244,115.3445 345.285,113.9585 345.327,112.5225 C345.338,112.1635 345.348,111.8015 345.358,111.4365 L345.373,110.9335 L345.388,110.9155 L345.449,110.8505 C345.529,110.7695 345.605,110.7145 345.673,110.6855 C345.774,110.5945 346.004,110.7365 346.056,110.7465 C346.091,110.7565 346.109,110.7535 346.127,110.7285 C346.162,110.7185 346.054,110.7365 346.165,110.7035 C346.657,110.6535 347.121,110.6055 347.556,110.5605 C348.425,110.4695 349.176,110.3825 349.794,110.2995 C349.116,109.9355 348.024,109.9535 346.938,109.9105 C346.667,109.9015 346.396,109.8885 346.132,109.8655 C345.94,109.8575 346.044,109.8285 346.007,109.8035 L345.983,109.7105 C345.952,109.5615 345.885,109.3545 345.795,109.0345 C345.827,108.8425 345.861,108.7835 345.899,108.7445 C345.881,108.7415 345.945,108.7345 346.012,108.7275 L346.193,108.7105 C346.311,108.7035 346.426,108.6955 346.537,108.6885 C346.76,108.6775 346.97,108.6775 347.168,108.6765 C347.96,108.6745 348.566,108.6815 349.11,108.2525 C350.304,110.1045 354.938,108.2945 357.071,110.1405 L357.736,108.9965 L359.082,109.5945 C364.77,108.7035 365.406,108.5685 365.898,108.5765 C366.386,108.5965 366.743,108.7695 371.748,108.7575 C377.405,108.4635 380.115,106.9945 383.162,107.5405 C382.643,107.4205 381.748,106.8245 383.077,106.5905 C383.313,107.5465 386.95,105.9885 387.598,106.9975 C388.302,106.9575 389.735,107.0465 390.842,106.9485 C391.922,106.8705 392.656,106.6315 391.985,105.9145 C392.321,106.2745 393.459,106.5835 394.182,106.8705 C394.892,107.1655 395.232,107.4125 394.114,107.5885 C395.331,107.7575 396.532,108.0465 397.374,107.8805 C396.905,107.6915 396.423,107.5045 395.898,107.3365 C400.056,107.5955 401.62,109.0025 403.586,108.2645 C403.316,108.0215 403.114,107.7545 402.769,107.5045 C403.595,107.6775 404.4,107.8185 404.645,108.0715 C404.73,108.1335 404.805,108.2025 404.868,108.2785 C404.908,108.3215 404.912,108.3485 404.971,108.4105 C405.04,108.4785 405.105,108.5485 405.164,108.6215 C405.401,108.9115 405.557,109.2395 405.612,109.6225 L404.471,109.3715 C404.286,109.3955 404.11,109.4135 403.94,109.4235 C404.028,109.4535 404.115,109.4795 404.203,109.5015 L404.333,109.5325 L404.398,109.5465 L404.545,109.6055 C404.938,109.7575 405.313,109.9025 405.676,110.0435 C406.388,110.3225 407.129,110.5415 407.738,110.7755 C408.947,111.2425 410.227,111.5695 411.5,111.9265 L410.711,111.4395 C411.163,111.5055 411.812,111.6835 412.629,111.9355 C413.012,112.0685 413.366,112.2375 413.791,112.4105 C414.186,112.5905 414.711,112.7625 415.067,112.9905 C416.841,113.8325 418.313,114.9085 419.603,116.1595 C420.879,117.4025 421.947,119.0595 422.779,120.8425 C423.64,122.5765 424.207,124.3425 424.729,125.1425 L425.722,123.5085 C426.097,124.4615 426.568,125.3755 426.905,126.4165 C426.932,126.0315 423.784,125.3165 423.489,124.9855 L423.489,124.9855 Z M344.448,204.2825 C344.48,204.0025 344.512,203.7205 344.544,203.4405 C344.879,203.4655 345.309,203.4755 345.905,203.4545 C345.999,203.8305 345.426,204.0965 344.448,204.2825 L344.448,204.2825 Z M462.292,126.7365 C462.253,125.9675 462.212,125.1725 462.17,124.3545 C462.105,123.5165 462,122.6255 461.907,121.7275 C461.76,119.9595 461.379,117.9475 461.007,115.9025 C460.102,111.7275 458.646,106.9895 456.046,102.1275 C453.495,97.2565 449.633,92.4875 445.236,88.6015 C440.83,84.6935 435.96,81.5965 431.178,79.1485 C429.986,78.5535 428.803,78.0205 427.611,77.4635 C427.017,77.1935 426.417,76.9035 425.828,76.6565 L424.074,75.9545 L422.322,75.2615 L421.447,74.9185 C421.134,74.7995 420.924,74.7025 420.481,74.5585 L418.11,73.7755 L416.93,73.4085 L415.85,73.1255 C410.028,71.6105 405.208,71.0445 400.712,70.6285 C396.232,70.2305 392.199,70.1225 388.487,70.0995 C384.772,70.0705 381.442,70.1925 378.48,70.3415 C374.821,69.4695 369.82,69.7735 366.077,69.6715 C368.178,69.9685 367.488,70.6165 365.864,70.6335 C360.188,70.8115 360.021,71.0005 359.824,71.2155 C359.635,71.4445 359.415,71.6995 353.761,72.2285 C352.141,72.4375 349.944,72.6535 347.326,72.9015 C343.919,73.2155 339.957,73.5815 335.631,73.9815 C330.027,74.5115 323.978,75.1585 317.783,75.9195 C314.673,76.2895 311.506,76.6655 308.313,77.0445 L305.902,77.3305 L304.689,77.4745 L304.537,77.4925 C304.482,77.4955 304.426,77.4975 304.445,77.5575 L304.435,77.8265 L304.417,78.3645 L304.263,82.6745 C304.068,88.4355 303.774,94.1295 303.752,99.8405 C303.706,102.6785 303.661,105.4565 303.617,108.1455 C303.593,109.3195 303.569,110.4745 303.546,111.6075 C303.52,112.3425 303.495,113.0635 303.471,113.7675 C303.271,119.3995 303.05,123.9765 302.841,126.4805 C304.285,131.8605 303.193,138.5755 304.106,143.8465 L303.765,143.3155 C304.309,148.9765 302.97,181.0185 303.487,187.5975 L303.694,186.7145 C304.591,192.4505 303.01,191.6695 302.517,196.1895 C302.996,196.0135 303.414,196.3195 303.768,196.8865 C303.946,197.1705 304.107,197.5185 304.252,197.9055 C304.325,198.1655 304.39,198.1375 304.456,198.2095 C304.522,198.2655 304.578,198.3245 304.637,198.3855 C304.704,198.4695 304.766,198.5575 304.818,198.6455 C304.85,198.6425 304.856,198.8545 304.868,198.9905 C304.878,199.1375 304.886,199.2845 304.896,199.4255 C304.925,199.9955 304.928,200.5085 304.911,200.8925 L304.566,200.7915 C304.532,203.6285 305.241,210.1255 304.952,214.7915 L304.089,214.5325 C304.616,218.4905 303.43,225.7425 303.22,228.5365 C302.163,234.8745 299.558,244.5625 299.799,253.1815 L296.685,258.4645 L296.847,259.2925 C296.847,259.2925 326.267,270.8145 333.961,260.1315 L334.822,260.3875 L334.95,258.1535 C335.674,255.5235 334.786,254.1995 335.646,254.4585 L335.141,258.1045 C335.688,255.4455 335.951,257.3585 336.339,258.4255 C336.546,257.3135 336.77,256.2365 337.137,255.3695 C336.855,254.8105 336.729,255.7245 336.492,256.1265 C336.339,254.6565 335.729,252.5755 336.326,250.8545 C336.707,248.1165 337.772,250.8045 338.216,247.6095 C339.406,239.8135 340.58,232.1285 341.755,224.4315 C342.328,220.5825 342.881,216.7275 343.396,212.8505 C343.643,210.9115 343.89,208.9665 344.138,207.0165 C344.215,206.3375 344.293,205.6515 344.37,204.9695 C345.177,204.9255 345.82,204.7755 346.234,204.4175 C348.972,204.7375 345.977,205.5445 349.241,205.8505 C351.531,205.5185 354.406,204.5165 356.962,204.9475 L356.926,205.1095 C360.026,205.4475 362.334,204.9885 364.568,204.5285 C365.684,204.2975 366.781,204.0665 367.947,203.9325 C368.531,203.8655 369.132,203.8225 369.76,203.8155 C370.412,203.8055 370.965,203.8505 371.9,203.8945 L371.184,204.2525 C372.416,204.4285 374.222,204.2535 376.262,204.0445 C378.302,203.7495 380.583,203.5195 382.814,203.4195 C381.53,203.4325 380.352,202.9475 382.931,202.4325 C388.042,202.2425 391.249,200.8645 395.043,200.6615 C396.095,200.0735 397.125,199.4515 398.15,198.8475 C402.33,197.6405 409.574,195.2365 417.567,190.9755 C425.593,186.7865 434.285,180.7435 441.662,173.3505 C449.052,165.9615 455.165,157.2785 458.767,148.2195 C460.554,143.6725 461.708,138.9985 462.058,134.4665 C462.096,133.9005 462.135,133.3455 462.172,132.8035 C462.176,132.4215 462.179,132.0475 462.183,131.6825 C462.189,130.9575 462.194,130.2675 462.199,129.6175 C462.23,128.3415 462.144,127.1065 462.114,126.1075 L462.292,126.7365 Z" id="Fill-7"></path>
                <path d="M759.8659,146.3297 C759.8879,144.8587 759.9099,143.4517 759.9289,142.1247 C759.9329,140.6117 759.9359,139.1897 759.9389,137.8777 C759.8969,136.4887 759.8579,135.2167 759.8239,134.0797 C759.7439,132.8817 759.6729,131.8277 759.6129,130.9357 L759.8039,131.4877 C759.7769,131.1477 759.7499,130.8027 759.7209,130.4527 C759.6759,130.0817 759.6299,129.7057 759.5829,129.3237 C759.4839,128.5597 759.3829,127.7737 759.2779,126.9667 C759.1749,126.1637 758.9709,125.2527 758.8069,124.3697 C758.6229,123.4697 758.4789,122.5867 758.1819,121.5837 C757.9049,120.6057 757.6219,119.6087 757.3339,118.5937 C756.9709,117.5487 756.5499,116.4677 756.1259,115.3877 C755.7419,114.3167 755.1329,113.1787 754.5619,112.0537 C754.2649,111.4907 753.9679,110.9247 753.6669,110.3557 C753.3429,109.7887 752.9539,109.2217 752.5879,108.6537 C751.1629,106.3557 749.3119,104.1557 747.3349,102.0187 C746.2939,101.0087 745.2189,100.0047 744.1149,99.0147 C743.0059,98.0447 741.8219,97.2177 740.6399,96.3307 C739.4539,95.4147 738.2419,94.6997 737.0129,93.9607 C735.7889,93.2397 734.5289,92.4437 733.3039,91.8837 C732.0689,91.2757 730.8219,90.6757 729.5679,90.0867 C728.3319,89.5467 727.1169,89.0977 725.8829,88.6097 L724.0339,87.9007 C723.7599,87.7887 723.3499,87.6577 722.9549,87.5317 L721.7749,87.1607 C721.0019,86.9277 720.1629,86.6537 719.4379,86.4757 L717.2629,85.9517 C714.3799,85.2887 711.7669,84.8867 709.2599,84.5677 C704.2709,83.9567 699.7909,83.7577 695.6009,83.6867 C687.2589,83.5767 680.1509,84.0647 674.4899,84.6317 C670.9199,83.9757 666.1279,84.4857 662.5149,84.5587 C664.5559,84.7447 663.9319,85.3887 662.3709,85.4787 C656.9069,85.8927 656.7549,86.0767 656.5809,86.2897 C656.4119,86.5167 656.2179,86.7657 650.7899,87.5117 C650.4019,87.5757 649.9789,87.6437 649.5239,87.7187 C649.2969,87.7537 649.0599,87.7897 648.8169,87.8267 C648.4549,87.8757 648.0819,87.9257 647.6979,87.9777 C645.9509,88.2117 644.0029,88.4737 641.8819,88.7587 C637.6599,89.3437 632.7549,90.0087 627.4889,90.8337 C622.2279,91.6597 616.5239,92.5557 610.6069,93.4847 L610.0469,93.5727 C609.9739,93.6007 609.8109,93.5697 609.8129,93.6477 L609.8239,93.8857 L609.8699,94.8407 C609.8999,95.4787 609.9299,96.1197 609.9609,96.7627 C610.0199,98.0477 610.0799,99.3417 610.1389,100.6407 C610.2539,103.2437 610.3689,105.8667 610.4839,108.4857 C610.8069,113.7997 611.2519,119.2087 611.5969,124.3797 C611.6389,125.0007 611.6819,125.6187 611.7239,126.2317 C611.7449,126.5957 611.7639,126.9557 611.7849,127.3147 C611.8229,128.0327 611.8609,128.7407 611.8989,129.4367 C611.9689,130.8297 612.0359,132.1767 612.0999,133.4637 C612.3449,138.6127 612.4849,142.7997 612.4739,145.0957 C614.3389,149.9117 613.7789,156.1037 615.1049,160.8527 L614.7229,160.3907 C615.7129,165.5177 616.9029,194.8197 617.9369,200.7877 L618.0739,199.9677 C618.7479,202.5557 618.6749,203.6967 618.4169,204.7077 C618.2879,205.2147 618.1119,205.6887 617.9609,206.2957 C617.8849,206.5997 617.8149,206.9367 617.7609,207.3277 L617.7399,207.4767 C617.7299,207.4977 617.7189,207.4997 617.7089,207.5137 L617.6519,207.5777 C617.6179,207.6207 617.5929,207.6647 617.5639,207.7127 C618.0099,207.6787 618.4079,207.7117 618.7569,207.8267 C618.9699,207.8957 619.1629,207.9967 619.3169,208.1177 C619.3929,208.1957 619.4759,208.2027 619.5369,208.3527 C619.5839,208.5947 619.6249,208.8427 619.6589,209.0907 C619.7949,210.0827 619.8309,211.0757 619.8039,211.6977 L619.4589,211.6037 C619.4349,214.1987 620.1679,220.1427 619.8969,224.4097 L619.0329,224.1697 C619.5749,227.7917 618.4169,234.4217 618.2179,236.9767 C617.1829,242.7707 614.6169,251.6237 614.8889,259.5087 L611.7969,264.3307 L611.9619,265.0877 C611.9619,265.0877 641.4149,275.7107 649.0659,265.9627 L649.9279,266.1997 L650.0479,264.1577 C650.7619,261.7527 649.8689,260.5397 650.7289,260.7787 L650.2389,264.1127 C650.7749,261.6817 651.0459,263.4327 651.4369,264.4097 C651.6389,263.3927 651.8589,262.4087 652.2229,261.6157 C651.9399,261.1047 651.8169,261.9407 651.5819,262.3057 C651.4229,260.9617 650.8049,259.0567 651.3949,257.4847 C651.7659,254.9817 652.8409,257.4437 653.2719,254.5217 C654.4899,247.0397 655.6879,239.6697 656.8889,232.2837 C657.4709,228.5887 658.0289,224.8877 658.5419,221.1627 C658.7849,219.2977 659.0289,217.4287 659.2739,215.5527 C659.5529,213.1267 659.8329,210.6927 660.1139,208.2457 C660.0399,207.4287 659.9649,206.5927 659.8889,205.7547 C660.1949,205.0437 660.2579,205.8707 660.4919,206.7567 C660.4199,206.1777 660.3489,205.6027 660.2789,205.0327 C660.2309,204.7077 660.1839,204.3867 660.1369,204.0677 C660.0589,203.4957 659.9819,202.9297 659.9059,202.3707 C659.7719,201.2497 659.6399,200.1527 659.5119,199.0677 C659.3809,197.9407 659.1009,195.7197 659.1009,195.7197 C659.1009,195.7197 659.0189,195.2057 658.9829,194.9517 C659.0679,194.9937 659.1599,195.0377 659.2449,195.0797 C659.0159,194.1937 658.7199,193.1477 658.6299,192.6487 C658.9219,191.4317 659.4379,191.0727 659.7739,190.6977 C659.4379,191.0747 658.7259,185.1607 658.1169,179.1027 C657.8129,176.0747 657.5349,173.0097 657.3429,170.6777 C657.1489,168.3447 657.0429,166.7447 657.0829,166.6447 L655.4629,166.4467 C655.0389,161.8067 657.1699,164.9807 656.4049,160.7147 C654.0049,159.1777 656.0229,153.5727 654.6959,152.1637 C654.8789,152.1867 654.7639,150.0807 655.4819,150.1697 C654.2019,149.6027 655.0109,148.0267 654.5839,146.7207 C654.2019,146.2627 654.2479,147.0967 653.9099,147.4787 L653.2149,144.4707 C653.5059,143.2587 654.2009,142.9207 654.4459,144.2027 C654.3849,142.2127 654.2049,138.3347 653.9509,133.5057 C653.8169,131.0907 653.6709,128.4377 653.5169,125.6637 C653.4759,124.9697 653.4359,124.2687 653.3939,123.5617 C653.4049,123.4567 653.4279,123.4987 653.4429,123.4627 C653.4779,123.4277 653.5119,123.3987 653.5449,123.3767 C653.6879,123.2937 653.7389,123.2707 653.8539,123.3117 C653.9309,123.3287 653.9259,123.2927 653.9179,123.1627 C653.7539,122.7837 653.6779,122.7277 653.5689,122.6197 C653.4569,122.5117 653.3049,122.3517 652.8449,121.7817 C652.7399,121.4417 652.8989,121.4837 653.0019,121.5277 C653.1109,121.5707 653.1799,121.6157 653.0939,121.2567 C653.5339,122.1357 653.6459,122.2337 653.7659,122.3347 C653.7959,122.3597 653.8239,122.3857 653.8519,122.4247 C653.8659,122.4427 653.9009,122.4657 653.9239,122.4907 C654.1009,122.5057 654.2769,122.5207 654.4489,122.5357 C655.1799,122.6177 655.8589,122.8067 656.3989,123.2207 L656.9659,122.1107 L658.2979,122.6177 C663.7119,121.5307 664.3179,121.3757 664.7929,121.3597 C665.2639,121.3567 665.6159,121.5077 670.4419,121.2737 C675.8839,120.7417 678.4159,119.2227 681.4149,119.5827 C680.8999,119.4947 679.9979,118.9797 681.2739,118.6897 C681.5639,119.5827 685.0029,117.9287 685.7129,118.8397 C686.3869,118.7787 687.8209,118.7657 688.8979,118.6167 C689.9549,118.4867 690.6759,118.2087 689.9499,117.5747 C690.3119,117.8947 691.4679,118.1157 692.2109,118.3457 C692.9519,118.5797 693.3169,118.7897 692.2009,119.0287 C693.4479,119.1097 694.6799,119.3067 695.5499,119.0897 C695.0449,118.9417 694.5229,118.8027 693.9829,118.6757 C698.2299,118.6507 700.1379,119.8327 702.6119,118.9877 C702.2529,118.7527 701.7849,118.5557 701.3639,118.3367 C702.5239,118.4007 703.3919,118.5277 704.1599,118.7467 C704.8449,118.9927 705.2779,119.3817 705.4419,120.0387 L704.5309,120.0637 C704.2369,120.0687 703.9389,120.0717 703.5729,120.0927 C704.0029,120.1387 704.3029,120.2087 704.6189,120.2617 C704.9319,120.3157 705.2349,120.3617 705.5269,120.4007 C705.7489,120.4527 705.9649,120.4937 706.1789,120.5257 C706.3679,120.5597 706.6679,120.5787 706.7499,120.6007 C706.8749,120.6207 707.0049,120.6287 707.1419,120.6257 C707.2199,120.6297 707.2619,120.6067 707.3749,120.6247 L707.7959,120.7237 C708.3659,120.8477 708.9699,120.9477 709.6499,121.0257 L708.8259,120.6667 C709.7779,120.6667 711.4069,121.0527 713.0199,121.6267 C713.3989,121.7757 713.8059,121.9267 714.2449,122.0777 C714.5679,122.2557 714.9189,122.4297 715.3009,122.5977 L715.5879,122.7237 L715.8049,122.8707 C715.9539,122.9677 716.1109,123.0617 716.2759,123.1527 C716.6509,123.3167 716.8679,123.5557 717.1659,123.7607 C718.2939,124.5857 719.3119,125.8167 720.1809,127.3037 C720.3769,127.6927 720.5799,128.0627 720.7859,128.4097 C720.9879,128.7617 721.1289,129.1667 721.3029,129.4917 C721.4699,129.8267 721.6369,130.1257 721.7989,130.3837 C721.9389,130.6677 722.0739,130.9097 722.2089,131.0927 L722.6979,130.3207 L723.1349,129.5947 L723.4889,130.1927 L723.7999,130.8537 L724.4279,132.2017 C724.4009,131.8787 721.2829,131.2867 720.9729,130.9787 C721.1829,132.3447 721.4909,135.2877 721.4559,139.6717 C721.4679,140.7517 721.4159,142.0067 721.3909,143.2517 C721.3739,143.9857 721.3559,144.7317 721.3379,145.4877 C721.3329,146.2537 721.3289,147.0307 721.3239,147.8157 C721.3339,150.8567 721.4269,153.7647 721.3749,156.2667 C721.3309,158.7707 721.1389,160.9227 720.7769,162.4067 C720.7039,162.8077 720.5889,163.1077 720.5039,163.4297 C720.4649,163.6157 720.4089,163.6637 720.3709,163.7887 C720.3249,163.8907 720.3089,164.0157 720.2559,164.1007 C720.1459,164.2747 720.1089,164.4717 719.9819,164.6287 C719.9299,164.7127 719.8859,164.7977 719.8449,164.8837 L719.6689,165.1127 C719.2289,165.7257 718.6749,166.1777 718.1719,166.4747 C717.9379,166.6457 717.6739,166.7297 717.4709,166.8277 C717.2949,166.9297 716.9709,166.9887 716.8099,167.0427 C716.5009,167.0677 716.1759,166.9997 715.9999,166.8827 C715.8199,166.7657 715.7399,166.5997 715.7069,166.4287 C715.6479,166.0837 715.7599,165.7297 715.6889,165.6597 C715.0519,166.1107 714.9909,166.4517 714.9159,166.6847 C714.8329,166.9277 714.7509,167.0967 713.8839,167.3667 C713.2769,167.3457 713.7119,166.6287 713.8629,166.4047 C713.5619,166.5937 713.0939,166.6367 712.7959,166.7127 C712.4859,166.7857 712.2909,166.8747 712.3359,167.0997 C713.5119,167.1297 713.5159,168.3917 714.2979,168.9917 L712.9209,169.3257 L711.4129,169.6137 L711.3229,168.8527 C711.0009,168.9187 710.7419,169.5187 710.0719,170.1027 C709.7469,170.3997 709.3329,170.7017 708.7889,170.9437 C708.2169,171.1647 707.4969,171.3127 706.6189,171.3347 C705.9019,171.4117 705.0919,171.4237 704.3259,171.4877 C703.5539,171.5477 702.7659,171.6047 701.9409,171.6367 C700.1209,171.7447 698.2809,171.8527 696.4399,171.9617 C692.4469,172.1787 688.3979,172.5317 684.4899,172.7677 C684.5579,172.3007 686.1599,171.9087 687.7769,171.5117 C686.7229,171.5757 685.1489,171.8067 684.1329,171.5777 C686.1419,172.1807 680.8839,172.4407 682.4209,172.6247 C681.0349,173.2337 679.5369,173.6117 677.9549,173.9177 C676.3629,174.2377 674.7129,174.4467 673.0789,174.6357 C671.4179,174.8627 669.7619,175.0857 668.2199,175.3697 C666.6429,175.6967 665.1599,176.1117 663.9049,176.6657 C663.8979,177.5427 662.7919,185.0737 663.2509,192.5157 C663.3069,193.7257 662.7179,195.3117 662.5269,196.6757 C662.9559,196.8837 663.3839,197.0917 663.8109,197.2997 C663.8469,197.5057 663.8819,197.7177 663.9199,197.9197 C664.0819,198.7747 664.2629,199.5967 664.4569,200.3737 C664.6849,201.1527 664.9549,201.8807 665.2159,202.5537 C665.4799,203.2267 665.7479,203.8427 666.0059,204.3947 C666.1239,204.6377 666.2329,204.8647 666.3389,205.0827 C665.9099,204.3227 665.6399,203.9037 665.6399,203.9037 C665.5849,203.8147 665.5189,203.7297 665.4629,203.6407 C665.5829,203.8297 665.7109,204.0167 665.8249,204.2047 C665.8719,204.2827 665.9119,204.3597 665.9579,204.4367 C665.7599,204.1037 665.5439,203.7757 665.3319,203.4457 C665.3739,203.5117 665.4209,203.5757 665.4629,203.6407 C665.2879,203.3647 665.1169,203.0867 664.9299,202.8127 C664.9229,202.8007 664.9169,202.7887 664.9089,202.7787 C664.8999,202.7647 664.8899,202.7517 664.8809,202.7397 C664.8399,202.6777 664.7939,202.6207 664.7519,202.5587 C664.6459,202.4057 664.5339,202.2547 664.4249,202.1027 C664.4509,202.1397 664.4739,202.1787 664.5009,202.2157 C664.4529,202.1487 664.4029,202.0827 664.3549,202.0157 C664.4069,202.0877 664.4609,202.1607 664.5119,202.2327 C664.7839,202.6157 665.0439,203.0037 665.2979,203.3967 C665.5219,203.7437 665.7499,204.0867 665.9609,204.4417 C666.1139,204.7007 666.2599,204.9567 666.4019,205.2127 C666.4569,205.3207 666.5109,205.4257 666.5609,205.5267 L666.6689,205.6877 C666.7029,205.7427 666.6559,205.6597 666.6449,205.6387 L666.6409,205.6307 C666.6499,205.6487 666.6619,205.6667 666.6719,205.6857 L666.8389,205.9927 L666.9499,206.1687 C667.0199,206.2817 667.0899,206.3937 667.1619,206.5057 C667.1019,206.4127 667.0409,206.3167 666.9859,206.2257 L667.1539,206.4927 L667.1869,206.5467 C667.3059,206.7327 667.4229,206.9167 667.5239,207.0927 C667.6429,207.2917 667.7619,207.4877 667.8779,207.6797 L667.8829,207.6607 L667.8869,207.6117 L667.4059,206.6357 C667.4289,206.6007 667.4259,206.5737 667.4689,206.5437 C667.5339,206.5127 667.5919,206.4867 667.6439,206.4667 C667.7499,206.4267 667.8319,206.4097 667.8989,206.4097 C668.0339,206.4097 668.1089,206.4777 668.1859,206.5557 C668.2619,206.6347 668.3419,206.7227 668.4789,206.7567 C668.6609,206.7897 668.9559,206.7697 669.4299,206.6227 C669.6459,207.0207 669.2749,207.3887 668.8009,207.6907 C668.6389,207.8387 668.4379,207.9657 668.2149,208.0707 C668.1739,208.1127 668.1879,208.1367 668.1669,208.1567 L668.1609,208.1637 C668.1569,208.1597 668.1649,208.1757 668.1519,208.1567 L668.2009,208.2417 L668.2069,208.2447 L668.2919,208.2977 C668.4129,208.3167 668.7169,208.2987 668.8779,208.2667 C669.0229,208.2327 669.3029,208.1597 669.5019,208.0327 C669.6979,207.9067 669.8339,207.7237 669.8909,207.4597 C670.5689,207.4537 670.7119,207.7227 670.7629,207.9777 C670.8439,208.2327 670.9709,208.4847 671.9499,208.4577 C672.2719,208.3257 672.5559,208.1387 672.9579,207.9567 C673.3569,207.7757 673.7759,207.5827 674.2089,207.4107 C674.6469,207.2407 675.0799,207.0827 675.5579,206.9917 C676.0549,206.9047 676.5609,206.8717 677.0659,206.9247 L677.0639,207.0807 C679.4179,207.1427 681.3119,206.6237 683.0669,206.0567 C684.8859,205.5267 686.7069,205.0137 689.1149,205.2247 C688.9559,205.3347 688.7909,205.4407 688.6369,205.5557 C690.4009,205.9307 693.6189,204.9497 696.8019,205.3007 C695.8959,205.1807 695.0599,204.6037 696.9319,204.3877 C698.7559,204.5507 700.2659,204.4587 701.6579,204.3897 C702.0699,204.3707 702.4709,204.3507 702.8679,204.3317 C703.3039,204.3147 703.7339,204.3017 704.1619,204.2987 C705.0179,204.2937 705.8659,204.3287 706.7399,204.4367 L709.9959,203.2627 C711.0199,203.1827 712.3009,203.0127 713.7479,202.8107 C714.4759,202.7047 715.2199,202.6177 716.0539,202.4697 C716.8869,202.3177 717.7619,202.1587 718.6759,201.9917 C722.3639,201.2467 726.8099,200.2337 732.0669,198.1607 C737.1719,196.1697 743.9799,192.4697 748.7819,187.4607 C751.2589,184.9757 753.3809,182.1537 755.0249,179.1107 C756.6909,176.0917 757.9029,172.7317 758.5709,170.0137 C759.9239,164.4207 760.0249,159.7097 760.0309,155.8487 C760.0159,151.9437 759.8579,148.8267 759.8659,146.3297" id="Fill-9"></path>
                <path d="M606.6257,125.0465 C606.4217,122.1235 605.9347,118.7215 605.0547,115.0525 C604.1857,111.3915 602.7527,107.3245 600.5837,103.3075 C598.4127,99.2975 595.5377,95.3255 592.0457,92.0815 C591.2077,91.2125 590.2877,90.5245 589.3927,89.7635 L588.0287,88.6675 C587.5717,88.3115 587.1047,88.0145 586.6407,87.6915 C585.7087,87.0625 584.7677,86.4365 583.8257,85.8545 C582.8907,85.3335 581.9507,84.8275 581.0107,84.3375 C580.5407,84.0955 580.0667,83.8425 579.6017,83.6215 L578.2227,83.0305 C577.3007,82.6535 576.3847,82.2795 575.4757,81.9075 C573.6987,81.2945 571.9427,80.7465 570.2467,80.2765 C563.4967,78.5275 557.9107,78.2815 553.5547,78.3095 C552.2667,77.7595 550.6527,77.4575 549.0857,77.3335 C547.5337,77.2305 545.9657,77.2225 544.6107,77.0905 C546.1207,77.4945 545.6077,78.1915 544.4467,78.1555 C540.4407,78.2305 540.3437,78.4505 540.2027,78.6795 C540.1377,78.8015 540.0687,78.9395 539.5217,79.0985 C538.9787,79.2635 537.9287,79.4105 536.0147,79.7115 C534.9087,79.9265 533.4097,80.1495 531.6167,80.3775 C529.5917,80.6775 527.0827,81.0595 524.4057,81.6465 C519.0237,82.7685 512.6917,84.9165 506.8147,87.9825 C506.4477,88.1755 506.0887,88.3825 505.7267,88.5835 C505.8757,86.6295 506.0647,84.5555 506.2767,82.4905 C506.4547,80.9045 506.6307,79.3235 506.8007,77.8065 C506.8437,77.4715 506.8867,77.1395 506.9297,76.8115 C506.9827,76.4405 507.0357,76.0745 507.0887,75.7145 C507.1987,74.9945 507.3057,74.2985 507.4067,73.6335 C507.8267,70.9745 508.2267,68.8185 508.5327,67.6455 C507.3027,64.9855 508.6547,61.8785 507.9497,59.3085 L508.2687,59.5865 C507.9477,56.8575 510.5357,41.7495 510.2777,38.5875 L510.0367,38.9915 C509.3667,36.1985 510.9127,36.6925 511.5797,34.5855 C509.9397,34.7405 509.2157,32.3355 509.1667,31.4345 L509.5177,31.4965 C509.3547,30.1325 508.2017,26.9815 508.1677,24.7465 L509.0457,24.9035 C508.2477,22.9795 508.9287,19.5345 508.9447,18.1985 C509.5617,15.1885 511.4857,10.6275 510.6527,6.4685 L513.3887,4.0505 L513.1697,3.6465 C513.1697,3.6465 483.0957,-3.0975 476.1717,1.7575 L475.2967,1.5995 L475.3227,2.6745 C474.7827,3.9175 475.7577,4.5925 474.8837,4.4335 L475.1357,2.6905 C474.7737,3.9545 474.3807,3.0195 473.9217,2.4875 C473.7917,3.0175 473.6427,3.5295 473.3377,3.9345 C473.6557,4.2155 473.7187,3.7785 473.9267,3.5935 C474.1807,4.3105 474.9307,5.3405 474.4547,6.1495 C474.2637,7.4575 473.0197,6.1165 472.7967,7.6445 C471.4467,15.6865 469.7777,23.4525 469.3027,31.6545 C468.9217,31.8125 468.9527,31.5915 468.8087,31.3425 C468.9857,33.8385 468.6677,36.0195 468.8777,38.2965 C468.4317,38.8895 467.8727,39.0175 467.4917,39.1735 C468.2547,38.8595 467.2707,51.6375 467.0627,51.8255 L468.6427,52.1025 C468.4667,54.5325 466.7617,52.6715 466.9697,54.9465 C469.1517,55.9945 466.4297,58.6585 467.5637,59.5245 C467.3857,59.4935 467.2277,60.5875 466.5267,60.4645 C467.7237,60.8935 466.7187,61.6175 466.9747,62.3335 C467.2937,62.6105 467.3547,62.1765 467.7397,62.0165 L468.0417,63.6365 C467.5967,64.2285 466.8627,64.3275 466.7857,63.6425 C466.5907,64.6715 466.2687,66.6845 465.8987,69.1945 C465.7207,70.4495 465.5237,71.8295 465.3177,73.2715 C465.2177,73.9235 465.1247,74.9565 465.0367,75.6925 C464.9537,76.4385 464.8697,77.1915 464.7857,77.9455 C464.1287,83.9815 463.6017,90.0655 463.7657,92.3175 C464.7277,91.8025 464.1897,90.3835 465.6787,89.9525 C466.4187,91.1845 465.2827,91.6725 466.1067,92.2475 C463.9137,92.5635 465.4247,94.8095 463.1757,95.5645 L464.3797,95.9805 L463.5927,96.5195 C464.5397,101.7935 464.1407,97.7455 463.5597,102.3305 C463.5787,105.0065 465.1997,106.3805 464.4797,107.8235 C464.5067,107.6045 465.2947,107.0645 465.5637,107.7745 C464.4797,107.8235 466.2207,109.6595 465.1107,109.9275 C465.2047,110.6115 464.9277,112.7935 466.4457,112.1455 C465.6887,112.4705 465.2637,114.4055 464.6987,113.2015 C464.6137,113.8585 464.3567,114.4835 464.6517,114.9785 L465.1157,114.1575 C465.1897,116.3975 463.9737,117.5385 465.2137,119.0725 L465.8517,118.2875 C465.8597,119.6245 465.8997,120.7445 464.4107,121.1745 L464.0487,119.7795 C463.9467,121.9895 463.9587,123.3275 464.6177,125.2155 L464.6987,124.5615 C466.0067,126.9975 466.4357,139.3345 468.1227,141.6095 L468.7897,141.0925 C468.6987,141.3885 468.6087,141.6825 468.5217,141.9755 C467.7727,141.7365 467.0327,141.4985 466.9147,141.3765 C466.8687,142.6355 466.7987,145.4305 466.6947,148.8135 C466.0427,151.5875 465.6377,153.8185 465.5427,155.0085 L465.8687,154.3665 C465.9607,158.9345 464.5157,158.0555 463.4927,161.4775 C465.1537,161.2675 465.5317,165.1445 465.4937,166.5745 L465.1477,166.4775 C465.1447,167.2385 465.2507,168.3395 465.3897,169.5935 C465.3817,169.6245 465.3737,169.6645 465.3657,169.6935 C464.6467,171.1385 463.5547,169.8495 463.3767,169.8215 C463.6867,171.6525 464.5267,170.6745 464.3347,172.2045 C464.1047,172.6105 463.4537,172.0625 463.3077,171.8165 C463.3997,172.4985 462.9697,173.0985 463.4947,173.1825 C463.8727,172.5135 464.8647,172.6855 465.7247,172.6065 C465.7887,173.2235 465.8487,173.8445 465.8967,174.4565 L465.1467,174.3345 C465.1237,174.5145 465.5167,174.7615 465.9447,175.1205 C465.9907,175.8305 466.0187,176.5185 466.0137,177.1565 L465.1387,176.9545 C465.7897,179.6925 465.3057,184.4665 465.2517,186.8775 C465.1387,186.6455 465.0377,186.3805 464.9377,186.1165 C464.8837,186.5565 464.9787,187.2375 464.5717,187.6225 C464.9697,187.3235 465.1327,187.4985 465.2167,187.7725 C464.6667,192.5425 463.1947,199.8145 464.6577,206.1365 C463.8797,207.5715 463.1177,209.0255 462.3757,210.5285 L462.6717,211.1505 C462.6717,211.1505 470.4147,212.3725 478.8847,212.1855 C480.9997,212.1185 483.1587,211.9855 485.2527,211.7565 C487.3477,211.5375 489.3707,211.1695 491.2347,210.8255 C494.9577,210.0535 497.9917,208.8625 499.5057,207.0015 L500.3957,207.0585 L500.2007,205.6665 C500.5477,203.9555 499.4967,203.2025 500.3827,203.2835 L500.3837,205.6145 C500.5557,203.9005 501.0797,205.0715 501.6157,205.6835 C501.6617,204.9785 501.7377,204.2845 501.9837,203.7095 C501.6307,203.3875 501.6257,203.9725 501.4467,204.2445 C501.3127,203.9005 501.0997,203.5045 500.9097,203.0815 C501.2287,203.0815 501.5367,203.0805 501.8607,203.0795 L500.9087,203.0795 C500.8047,202.8465 500.7097,202.6055 500.6367,202.3615 C501.4507,202.4375 502.0287,202.4815 502.2717,202.4925 C502.2437,202.6295 502.2127,202.7665 502.1637,202.8795 C502.1387,202.9365 502.1087,202.9875 502.0737,203.0295 L502.0457,203.0585 L502.0307,203.0725 L502.0237,203.0795 C502.0637,203.0795 502.1017,203.0785 502.1417,203.0785 C502.2027,203.0565 502.2597,203.0285 502.3107,202.9965 C502.4127,202.9325 502.4937,202.8515 502.5487,202.7635 C502.6027,202.6765 502.6287,202.5835 502.6217,202.4925 C502.6157,202.3925 502.5727,202.3545 502.5087,202.1315 L501.2737,201.9505 C500.9267,200.3765 502.0307,201.6265 502.0327,200.1105 C502.5427,200.0985 502.8317,200.4435 502.9977,200.9445 C503.0807,201.1945 503.1327,201.4835 503.1657,201.7885 C503.1777,201.9395 503.1897,202.0945 503.2017,202.2515 C503.2087,202.4345 503.2277,202.4115 503.2337,202.5005 C503.2527,202.4315 503.2757,202.4205 503.3117,202.3085 C503.3527,202.1735 503.3927,202.0415 503.4327,201.9105 C503.5157,201.6495 503.5997,201.3985 503.6427,201.1665 C503.7297,200.7025 503.6587,200.3105 503.1157,200.0555 C503.5967,199.0445 504.3507,200.2395 504.8547,199.0195 C504.6047,198.1265 503.6837,196.8665 504.3457,195.8645 L504.5227,195.8935 C505.7227,193.4265 503.2117,191.9385 504.3907,189.6785 L504.7147,189.9485 C505.3527,189.1645 504.6607,187.5035 505.3767,186.0625 C505.1467,186.4715 504.3907,186.7945 504.3227,185.8975 C505.0657,184.2365 504.4967,183.0375 505.3647,181.8405 L504.4437,180.5855 C504.5977,178.9485 504.7127,175.9585 504.8027,172.3665 C505.0337,170.6285 505.2647,168.8915 505.4887,167.1585 C505.8867,166.9775 505.8327,167.2555 505.9517,167.5785 C506.0357,164.4115 506.6637,161.7205 506.8547,158.9145 C507.4057,158.2405 507.9817,158.1545 508.3887,158.0125 C507.9867,158.1665 508.5857,154.3685 509.5947,150.7695 C510.0767,148.9525 510.6687,147.2045 511.1457,145.8995 C511.6287,144.6015 512.0067,143.7565 512.0657,143.7155 L510.6467,142.9595 C511.6847,140.4465 512.6177,142.9055 513.2527,140.5385 C512.4077,139.6215 512.9207,138.7545 513.5137,137.9545 C514.1427,137.2005 514.8437,136.5135 514.5277,135.8955 C514.6777,135.9985 515.2907,135.0675 515.8627,135.4905 C514.9687,134.5575 516.2067,134.4065 516.2897,133.6595 C516.1327,133.2635 515.8877,133.6135 515.4757,133.5735 C515.6247,133.0365 515.8037,132.5465 515.9737,132.0355 C516.6387,131.7555 517.3027,132.0605 517.0577,132.6655 C517.6967,131.9155 518.9227,130.4785 520.4667,129.0505 C522.0087,127.6025 523.8677,126.2595 525.7357,125.2065 C527.6297,124.1945 529.5887,123.4615 531.4127,122.9545 C533.2277,122.4465 534.9067,122.1805 535.8087,121.8985 C535.2167,121.0565 534.1617,121.8065 533.4867,120.4885 C533.8937,119.9795 534.2837,119.9835 534.6057,120.0205 C534.9237,120.0445 535.1627,120.0725 535.3377,119.6125 C535.5217,120.1365 535.6937,120.4055 536.0227,120.5565 C536.3857,120.7095 536.8077,120.7375 537.2457,120.7645 C538.1207,120.8185 539.0657,120.8675 539.6957,121.9115 L540.0117,120.6475 L540.7807,121.3305 C543.7807,120.5545 544.1437,120.3685 544.4027,120.3975 C544.6727,120.4125 544.8627,120.6485 547.4227,120.7945 C547.7937,120.7685 548.1427,120.7185 548.4707,120.6525 C548.7887,120.5955 549.0687,120.5425 549.3457,120.4665 C549.8937,120.3215 550.3827,120.1345 550.8367,119.9695 C551.7697,119.6165 552.4557,119.4515 553.1467,119.8445 C552.9377,119.8085 552.4277,118.9925 553.1487,118.7585 C553.1257,119.8515 555.1227,118.1655 555.2127,119.3405 C555.5247,119.3315 556.1647,119.4465 556.6847,119.3605 C557.2237,119.2605 557.5267,119.0555 557.4077,118.2405 C557.5647,119.0575 559.0117,119.7185 557.9387,120.1145 C558.1877,120.1985 558.4207,120.3195 558.6467,120.3885 C558.8577,120.4675 559.0197,120.5165 559.2267,120.4125 C559.0817,120.2225 558.9667,120.0095 558.7877,119.8245 C559.1967,119.8965 559.4847,120.0535 559.7697,120.1985 C560.0407,120.3485 560.3097,120.4905 560.4547,120.6395 C560.6287,120.7755 560.8037,120.8645 561.0217,120.8605 C561.1317,120.8595 561.2517,120.8345 561.3897,120.7805 C561.5067,120.7355 561.6247,120.6685 561.7757,120.5645 C561.7597,120.3235 561.7467,120.0695 561.6557,119.8405 C562.3257,120.0965 562.9117,120.2585 562.1887,121.5875 L561.9027,121.6355 L561.5347,121.7095 C562.2527,122.1245 562.4927,122.1285 563.2687,121.8745 C563.2427,121.8375 563.2217,121.7965 563.2027,121.7525 C563.3587,121.6795 563.5867,121.5985 563.8037,121.5905 C563.9057,121.5965 564.0197,121.6035 564.1417,121.6105 C564.2837,121.6085 564.4017,121.6425 564.5177,121.6935 C565.0517,121.8175 565.6797,122.2695 566.3197,123.1745 C566.9657,124.0545 567.5747,125.3805 568.0897,126.6675 C568.3307,127.3295 568.5907,127.9325 568.8017,128.4925 C569.0347,129.0265 569.2597,129.4735 569.4777,129.7735 L570.5987,128.7015 C570.9537,129.3295 571.2317,130.0565 571.5577,130.7545 C571.5697,130.5095 568.5247,129.8525 568.2597,129.6035 C568.2887,130.6605 568.3237,132.7715 568.0777,136.0165 C567.9167,137.9195 567.7397,140.0145 567.5547,142.2045 C567.4807,143.1875 567.4057,144.1915 567.3297,145.2075 L567.2927,145.7435 L567.2047,146.4425 L567.0157,147.8925 C566.4857,151.8195 565.6937,156.1655 564.9817,159.6675 C564.2587,163.1985 563.5957,165.9805 563.1307,167.2445 C562.0797,169.2125 561.2917,167.2535 561.1207,167.1935 C561.0017,169.8275 562.0727,168.5365 561.5157,170.6885 C561.1877,171.2395 560.6737,170.3805 560.5867,170.0135 C560.5137,170.9945 559.9397,171.7955 560.4417,171.9785 C561.0997,170.8735 562.3647,171.6705 563.3657,171.3555 L562.6467,174.1305 L561.8057,173.8205 C561.6427,174.4395 563.8457,175.9135 562.7697,178.5725 C561.3797,183.1425 560.5517,188.2705 559.2857,192.9105 C558.7837,192.7185 558.6997,191.6665 558.6187,190.6125 C558.4497,191.2335 558.3667,192.2205 557.8627,192.7135 C559.0357,191.7915 558.0277,194.8185 558.6137,194.0215 C559.9457,197.9365 556.9927,201.9345 557.7207,205.2945 C559.5657,205.9745 588.8147,219.4465 591.0607,220.0115 C590.7937,220.9585 590.5247,221.9085 590.2667,222.1705 C590.8597,222.0315 591.5617,220.2055 591.4917,219.1345 L590.3227,218.6775 C590.4387,216.2815 591.1687,218.3085 591.6127,216.0475 C592.6317,216.1605 592.3587,218.2725 592.0237,220.1165 C592.5247,218.5045 593.6317,217.0425 592.7027,216.1235 C593.4737,214.6815 593.8727,216.5775 594.7287,214.8235 C594.7467,213.4355 594.1777,211.4785 595.1147,210.0985 L595.2827,210.1665 C597.1567,206.7135 595.0797,204.1825 596.8557,201.0415 L597.1047,201.4795 C597.9477,200.4165 597.7147,197.8985 598.8067,195.8785 C598.4687,196.4485 597.6317,196.8215 597.8027,195.4995 C598.9797,193.1575 598.7367,191.3335 599.9067,189.6825 L599.3167,187.7245 C600.3597,183.3935 602.4107,172.6975 604.1637,161.4395 C604.3887,160.0505 604.5867,158.5465 604.7947,157.1205 C604.8957,156.3825 605.0027,155.7205 605.0957,154.9325 C605.1887,154.1615 605.2797,153.3955 605.3717,152.6365 C605.4167,152.2575 605.4617,151.8795 605.5067,151.5045 C605.5507,151.1335 605.5957,150.7775 605.6347,150.2775 C605.7097,149.3525 605.7827,148.4395 605.8557,147.5395 C605.8837,147.1445 605.9097,146.7525 605.9377,146.3635 L605.9487,145.8675 C605.9757,145.4035 606.0017,144.9475 606.0267,144.5025 C606.1817,142.4055 606.3967,139.9625 606.5157,137.8095 C606.6487,135.6635 606.7047,133.7235 606.7307,132.2945 L606.8727,132.7455 C606.8967,130.5785 606.8547,127.9965 606.6257,125.0465" id="Fill-11"></path>
            </g>
        </g>
    </g>
</svg>